{"glyphs":{"0":{"ha":842,"x_min":60,"x_max":782,"o":"m 421 -28 q 60 458 60 -28 q 421 944 60 944 q 782 458 782 944 q 421 -28 782 -28 m 421 35 q 548 136 508 35 q 588 458 588 238 q 548 781 588 679 q 421 882 508 882 q 294 781 333 882 q 254 458 254 679 q 294 136 254 238 q 421 35 333 35 z "},"1":{"ha":449,"x_min":11,"x_max":346,"o":"m 165 0 l 165 753 l 44 675 l 11 718 l 225 917 l 346 917 l 346 0 l 165 0 z "},"2":{"ha":749,"x_min":57,"x_max":681,"o":"m 57 90 q 121 151 96 129 q 297 326 222 246 q 429 501 372 407 q 486 676 486 594 q 442 830 486 778 q 333 882 397 882 q 185 822 243 882 q 106 639 126 763 l 57 639 q 63 758 57 713 q 90 833 68 804 q 203 913 129 881 q 361 944 276 944 q 584 886 488 944 q 681 676 681 828 q 615 483 681 582 q 465 306 549 385 q 268 139 381 228 q 178 63 201 86 l 465 63 q 594 102 549 63 q 639 215 639 142 l 681 215 l 681 111 q 563 0 681 0 l 57 0 l 57 90 z "},"3":{"ha":754,"x_min":38,"x_max":711,"o":"m 385 -28 q 180 10 258 -28 q 38 122 101 47 l 76 163 q 198 67 133 99 q 324 35 263 35 q 463 90 410 35 q 517 257 517 144 q 467 418 517 364 q 339 472 417 472 q 235 458 288 472 l 193 446 l 160 499 l 539 854 l 290 854 q 162 815 207 854 q 117 701 117 775 l 75 701 l 75 806 q 193 917 75 917 l 663 917 l 663 854 l 317 529 q 352 533 326 531 q 406 535 378 535 q 547 506 476 535 q 664 415 617 478 q 711 257 711 353 q 656 86 711 150 q 526 -3 600 22 q 385 -28 451 -28 z "},"4":{"ha":794,"x_min":13,"x_max":763,"o":"m 457 0 l 457 236 l 13 236 l 13 292 l 493 917 l 638 917 l 638 299 l 763 299 l 763 236 l 638 236 l 638 0 l 457 0 m 108 299 l 457 299 l 457 754 l 108 299 z "},"5":{"ha":758,"x_min":51,"x_max":722,"o":"m 368 -28 q 187 10 260 -28 q 51 122 114 47 l 92 158 q 207 65 142 96 q 336 35 272 35 q 475 91 422 35 q 528 264 528 147 q 471 424 528 371 q 308 478 414 478 q 193 461 250 478 q 135 446 174 457 l 79 500 l 94 917 l 635 917 l 635 856 l 256 856 l 243 535 l 285 538 q 364 542 356 542 q 530 516 449 542 q 667 428 611 490 q 722 264 722 365 q 665 90 722 156 q 527 -1 608 25 q 368 -28 446 -28 z "},"6":{"ha":778,"x_min":61,"x_max":735,"o":"m 408 -28 q 61 458 61 -28 q 158 826 61 707 q 450 944 256 944 q 608 921 522 944 q 672 897 643 911 l 664 858 l 600 869 q 478 882 515 882 q 310 795 371 882 q 249 535 249 708 q 301 568 271 553 q 443 601 368 601 q 667 519 599 601 q 735 285 735 436 q 697 130 735 201 q 585 15 660 58 q 408 -28 511 -28 m 408 35 q 510 106 474 35 q 547 285 547 178 q 513 476 547 413 q 401 539 479 539 q 329 524 364 539 q 272 490 294 508 q 249 468 249 472 q 290 140 249 244 q 408 35 332 35 z "},"7":{"ha":657,"x_min":29,"x_max":649,"o":"m 481 854 l 244 854 q 116 815 161 854 q 71 701 71 775 l 29 701 l 29 806 q 147 917 29 917 l 649 917 l 649 854 l 301 0 l 133 0 l 481 854 z "},"8":{"ha":803,"x_min":54,"x_max":749,"o":"m 401 -28 q 151 31 249 -28 q 54 211 54 90 q 117 360 54 301 q 286 465 179 419 q 139 572 189 519 q 89 706 89 624 q 174 889 89 833 q 401 944 260 944 q 628 892 543 944 q 714 719 714 839 q 663 589 714 644 q 526 497 613 533 q 690 379 632 440 q 749 225 749 318 q 653 33 749 94 q 401 -28 558 -28 m 454 533 q 509 604 492 563 q 526 719 526 646 q 488 844 526 806 q 401 882 450 882 q 315 847 353 882 q 276 733 276 811 q 326 621 276 672 q 454 533 375 569 m 401 35 q 517 77 474 35 q 561 197 561 119 q 509 328 561 275 q 360 432 457 381 q 272 351 301 401 q 242 211 242 300 q 285 78 242 122 q 401 35 328 35 z "},"9":{"ha":778,"x_min":43,"x_max":717,"o":"m 328 -28 q 169 -4 246 -28 q 106 19 125 8 l 114 58 l 178 46 q 300 35 253 35 q 468 122 407 35 q 529 382 529 208 q 476 349 507 364 q 335 315 410 315 q 111 398 179 315 q 43 632 43 481 q 81 787 43 715 q 192 901 118 858 q 369 944 267 944 q 717 458 717 944 q 620 90 717 208 q 328 -28 524 -28 m 376 378 q 447 393 413 378 q 506 426 482 408 q 529 449 529 444 q 488 777 529 672 q 369 882 446 882 q 267 810 304 882 q 231 632 231 739 q 265 441 231 504 q 376 378 299 378 z "},"\u0000":{"ha":0,"x_min":0,"x_max":0,"o":""},"\r":{"ha":347,"x_min":0,"x_max":0,"o":""}," ":{"ha":347,"x_min":0,"x_max":0,"o":""},"A":{"ha":899,"x_min":11,"x_max":939,"o":"m 872 -6 q 714 31 785 -6 q 599 175 643 68 l 567 253 l 197 253 l 83 0 l 11 0 l 421 917 l 483 917 l 794 175 q 939 36 847 46 l 939 1 q 872 -6 914 -6 m 226 315 l 540 315 l 388 678 l 226 315 z "},"Á":{"ha":899,"x_min":11,"x_max":939,"o":"m 872 -6 q 714 31 785 -6 q 599 175 643 68 l 567 253 l 197 253 l 83 0 l 11 0 l 421 917 l 483 917 l 794 175 q 939 36 847 46 l 939 1 q 872 -6 914 -6 m 226 315 l 540 315 l 388 678 l 226 315 m 418 972 l 476 1167 l 642 1167 l 494 972 l 418 972 z "},"Ă":{"ha":899,"x_min":11,"x_max":939,"o":"m 872 -6 q 714 31 785 -6 q 599 175 643 68 l 567 253 l 197 253 l 83 0 l 11 0 l 421 917 l 483 917 l 794 175 q 939 36 847 46 l 939 1 q 872 -6 914 -6 m 226 315 l 540 315 l 388 678 l 226 315 m 450 958 q 332 994 383 958 q 254 1089 281 1029 l 293 1118 q 356 1069 317 1089 q 450 1049 396 1049 q 544 1069 504 1049 q 607 1118 583 1089 l 646 1089 q 568 994 619 1029 q 450 958 517 958 z "},"Ắ":{"ha":899,"x_min":11,"x_max":939,"o":"m 872 -6 q 714 31 785 -6 q 599 175 643 68 l 567 253 l 197 253 l 83 0 l 11 0 l 421 917 l 483 917 l 794 175 q 939 36 847 46 l 939 1 q 872 -6 914 -6 m 226 315 l 540 315 l 388 678 l 226 315 m 450 958 q 332 994 383 958 q 254 1089 281 1029 l 293 1118 q 356 1069 317 1089 q 450 1049 396 1049 q 544 1069 504 1049 q 607 1118 583 1089 l 646 1089 q 568 994 619 1029 q 450 958 517 958 m 407 1181 l 465 1375 l 631 1375 l 483 1181 l 407 1181 z "},"Ặ":{"ha":899,"x_min":11,"x_max":939,"o":"m 872 -6 q 714 31 785 -6 q 599 175 643 68 l 567 253 l 197 253 l 83 0 l 11 0 l 421 917 l 483 917 l 794 175 q 939 36 847 46 l 939 1 q 872 -6 914 -6 m 226 315 l 540 315 l 388 678 l 226 315 m 450 -240 q 399 -221 417 -240 q 381 -169 381 -201 q 399 -119 381 -139 q 450 -100 418 -100 q 502 -119 483 -100 q 521 -169 521 -139 q 502 -221 521 -201 q 450 -240 483 -240 m 450 958 q 332 994 383 958 q 254 1089 281 1029 l 293 1118 q 356 1069 317 1089 q 450 1049 396 1049 q 544 1069 504 1049 q 607 1118 583 1089 l 646 1089 q 568 994 619 1029 q 450 958 517 958 z "},"Ằ":{"ha":899,"x_min":11,"x_max":939,"o":"m 872 -6 q 714 31 785 -6 q 599 175 643 68 l 567 253 l 197 253 l 83 0 l 11 0 l 421 917 l 483 917 l 794 175 q 939 36 847 46 l 939 1 q 872 -6 914 -6 m 226 315 l 540 315 l 388 678 l 226 315 m 450 958 q 332 994 383 958 q 254 1089 281 1029 l 293 1118 q 356 1069 317 1089 q 450 1049 396 1049 q 544 1069 504 1049 q 607 1118 583 1089 l 646 1089 q 568 994 619 1029 q 450 958 517 958 m 443 1181 l 296 1375 l 461 1375 l 519 1181 l 443 1181 z "},"Ẳ":{"ha":899,"x_min":11,"x_max":939,"o":"m 872 -6 q 714 31 785 -6 q 599 175 643 68 l 567 253 l 197 253 l 83 0 l 11 0 l 421 917 l 483 917 l 794 175 q 939 36 847 46 l 939 1 q 872 -6 914 -6 m 226 315 l 540 315 l 388 678 l 226 315 m 450 958 q 332 994 383 958 q 254 1089 281 1029 l 293 1118 q 356 1069 317 1089 q 450 1049 396 1049 q 544 1069 504 1049 q 607 1118 583 1089 l 646 1089 q 568 994 619 1029 q 450 958 517 958 m 425 1128 q 432 1165 426 1150 q 450 1201 438 1181 q 471 1258 471 1233 q 458 1286 471 1275 q 425 1297 444 1297 q 386 1283 400 1297 q 365 1225 372 1268 l 289 1226 q 321 1344 289 1304 q 425 1383 353 1383 q 526 1351 490 1383 q 563 1271 563 1319 q 554 1233 563 1249 q 531 1199 546 1217 q 506 1163 514 1178 q 497 1128 499 1149 l 425 1128 z "},"Ẵ":{"ha":899,"x_min":11,"x_max":939,"o":"m 872 -6 q 714 31 785 -6 q 599 175 643 68 l 567 253 l 197 253 l 83 0 l 11 0 l 421 917 l 483 917 l 794 175 q 939 36 847 46 l 939 1 q 872 -6 914 -6 m 226 315 l 540 315 l 388 678 l 226 315 m 450 958 q 332 994 383 958 q 254 1089 281 1029 l 293 1118 q 356 1069 317 1089 q 450 1049 396 1049 q 544 1069 504 1049 q 607 1118 583 1089 l 646 1089 q 568 994 619 1029 q 450 958 517 958 m 286 1229 q 310 1338 286 1307 q 381 1368 335 1368 q 422 1359 404 1368 q 461 1335 439 1350 q 479 1322 464 1332 q 508 1313 494 1313 q 544 1329 531 1313 q 557 1368 557 1346 l 613 1368 q 589 1260 613 1290 q 519 1229 565 1229 q 481 1238 497 1229 q 439 1263 464 1246 q 414 1278 426 1271 q 390 1285 401 1285 q 355 1268 368 1285 q 342 1229 342 1251 l 286 1229 z "},"Â":{"ha":899,"x_min":11,"x_max":939,"o":"m 872 -6 q 714 31 785 -6 q 599 175 643 68 l 567 253 l 197 253 l 83 0 l 11 0 l 421 917 l 483 917 l 794 175 q 939 36 847 46 l 939 1 q 872 -6 914 -6 m 226 315 l 540 315 l 388 678 l 226 315 m 247 951 l 358 1125 l 539 1125 l 650 951 l 567 951 l 449 1063 l 331 951 l 247 951 z "},"Ấ":{"ha":899,"x_min":11,"x_max":939,"o":"m 872 -6 q 714 31 785 -6 q 599 175 643 68 l 567 253 l 197 253 l 83 0 l 11 0 l 421 917 l 483 917 l 794 175 q 939 36 847 46 l 939 1 q 872 -6 914 -6 m 226 315 l 540 315 l 388 678 l 226 315 m 249 993 l 360 1167 l 540 1167 l 651 993 l 568 993 l 450 1104 l 332 993 l 249 993 m 628 1086 l 686 1281 l 851 1281 l 704 1086 l 628 1086 z "},"Ậ":{"ha":899,"x_min":11,"x_max":939,"o":"m 872 -6 q 714 31 785 -6 q 599 175 643 68 l 567 253 l 197 253 l 83 0 l 11 0 l 421 917 l 483 917 l 794 175 q 939 36 847 46 l 939 1 q 872 -6 914 -6 m 226 315 l 540 315 l 388 678 l 226 315 m 450 -240 q 399 -221 417 -240 q 381 -169 381 -201 q 399 -119 381 -139 q 450 -100 418 -100 q 502 -119 483 -100 q 521 -169 521 -139 q 502 -221 521 -201 q 450 -240 483 -240 m 249 993 l 360 1167 l 540 1167 l 651 993 l 568 993 l 450 1104 l 332 993 l 249 993 z "},"Ầ":{"ha":899,"x_min":11,"x_max":939,"o":"m 872 -6 q 714 31 785 -6 q 599 175 643 68 l 567 253 l 197 253 l 83 0 l 11 0 l 421 917 l 483 917 l 794 175 q 939 36 847 46 l 939 1 q 872 -6 914 -6 m 226 315 l 540 315 l 388 678 l 226 315 m 249 993 l 360 1167 l 540 1167 l 651 993 l 568 993 l 450 1104 l 332 993 l 249 993 m 644 1114 l 497 1308 l 663 1308 l 721 1114 l 644 1114 z "},"Ẩ":{"ha":899,"x_min":11,"x_max":939,"o":"m 872 -6 q 714 31 785 -6 q 599 175 643 68 l 567 253 l 197 253 l 83 0 l 11 0 l 421 917 l 483 917 l 794 175 q 939 36 847 46 l 939 1 q 872 -6 914 -6 m 226 315 l 540 315 l 388 678 l 226 315 m 249 993 l 360 1167 l 540 1167 l 651 993 l 568 993 l 450 1104 l 332 993 l 249 993 m 632 1122 q 639 1160 633 1144 q 657 1196 644 1175 q 678 1253 678 1228 q 665 1281 678 1269 q 632 1292 651 1292 q 593 1277 607 1292 q 572 1219 579 1263 l 496 1221 q 528 1338 496 1299 q 632 1378 560 1378 q 733 1346 697 1378 q 769 1265 769 1314 q 761 1227 769 1243 q 738 1193 753 1211 q 713 1158 721 1172 q 704 1122 706 1143 l 632 1122 z "},"Ẫ":{"ha":899,"x_min":11,"x_max":939,"o":"m 872 -6 q 714 31 785 -6 q 599 175 643 68 l 567 253 l 197 253 l 83 0 l 11 0 l 421 917 l 483 917 l 794 175 q 939 36 847 46 l 939 1 q 872 -6 914 -6 m 226 315 l 540 315 l 388 678 l 226 315 m 249 993 l 360 1167 l 540 1167 l 651 993 l 568 993 l 450 1104 l 332 993 l 249 993 m 286 1203 q 310 1311 286 1281 q 381 1342 335 1342 q 422 1333 404 1342 q 461 1308 439 1324 q 479 1296 464 1306 q 508 1286 494 1286 q 544 1303 531 1286 q 557 1342 557 1319 l 613 1342 q 589 1233 613 1264 q 519 1203 565 1203 q 481 1211 497 1203 q 439 1236 464 1219 q 414 1251 426 1244 q 390 1258 401 1258 q 355 1242 368 1258 q 342 1203 342 1225 l 286 1203 z "},"Ä":{"ha":899,"x_min":11,"x_max":939,"o":"m 872 -6 q 714 31 785 -6 q 599 175 643 68 l 567 253 l 197 253 l 83 0 l 11 0 l 421 917 l 483 917 l 794 175 q 939 36 847 46 l 939 1 q 872 -6 914 -6 m 226 315 l 540 315 l 388 678 l 226 315 m 332 958 q 275 981 296 958 q 254 1036 254 1003 q 275 1092 254 1069 q 332 1114 296 1114 q 389 1092 368 1114 q 410 1036 410 1069 q 389 981 410 1003 q 332 958 368 958 m 568 958 q 511 981 532 958 q 490 1036 490 1003 q 511 1092 490 1069 q 568 1114 532 1114 q 625 1092 604 1114 q 646 1036 646 1069 q 625 981 646 1003 q 568 958 604 958 z "},"Ạ":{"ha":899,"x_min":11,"x_max":939,"o":"m 872 -6 q 714 31 785 -6 q 599 175 643 68 l 567 253 l 197 253 l 83 0 l 11 0 l 421 917 l 483 917 l 794 175 q 939 36 847 46 l 939 1 q 872 -6 914 -6 m 226 315 l 540 315 l 388 678 l 226 315 m 450 -240 q 399 -221 417 -240 q 381 -169 381 -201 q 399 -119 381 -139 q 450 -100 418 -100 q 502 -119 483 -100 q 521 -169 521 -139 q 502 -221 521 -201 q 450 -240 483 -240 z "},"À":{"ha":899,"x_min":11,"x_max":939,"o":"m 872 -6 q 714 31 785 -6 q 599 175 643 68 l 567 253 l 197 253 l 83 0 l 11 0 l 421 917 l 483 917 l 794 175 q 939 36 847 46 l 939 1 q 872 -6 914 -6 m 226 315 l 540 315 l 388 678 l 226 315 m 443 979 l 296 1174 l 461 1174 l 519 979 l 443 979 z "},"Ả":{"ha":899,"x_min":11,"x_max":939,"o":"m 872 -6 q 714 31 785 -6 q 599 175 643 68 l 567 253 l 197 253 l 83 0 l 11 0 l 421 917 l 483 917 l 794 175 q 939 36 847 46 l 939 1 q 872 -6 914 -6 m 226 315 l 540 315 l 388 678 l 226 315 m 450 988 q 457 1025 451 1010 q 475 1061 463 1040 q 496 1118 496 1093 q 483 1146 496 1135 q 450 1157 469 1157 q 411 1142 425 1157 q 390 1085 397 1128 l 314 1086 q 346 1203 314 1164 q 450 1243 378 1243 q 551 1211 515 1243 q 588 1131 588 1179 q 579 1092 588 1108 q 556 1058 571 1076 q 531 1023 539 1038 q 522 988 524 1008 l 450 988 z "},"Å":{"ha":899,"x_min":11,"x_max":939,"o":"m 872 -6 q 714 31 785 -6 q 599 175 643 68 l 567 253 l 197 253 l 83 0 l 11 0 l 394 860 q 342 906 365 875 q 319 979 319 938 q 356 1074 319 1038 q 451 1111 393 1111 q 547 1074 510 1111 q 583 979 583 1038 q 560 906 583 938 q 507 860 536 874 l 794 175 q 939 36 847 46 l 939 1 q 872 -6 914 -6 m 483 917 q 514 979 514 938 q 496 1030 514 1011 q 451 1049 478 1049 q 407 1030 425 1049 q 389 979 389 1011 q 421 917 389 938 l 483 917 m 226 315 l 540 315 l 388 678 l 226 315 z "},"Ã":{"ha":899,"x_min":11,"x_max":939,"o":"m 872 -6 q 714 31 785 -6 q 599 175 643 68 l 567 253 l 197 253 l 83 0 l 11 0 l 421 917 l 483 917 l 794 175 q 939 36 847 46 l 939 1 q 872 -6 914 -6 m 226 315 l 540 315 l 388 678 l 226 315 m 292 972 q 316 1081 292 1050 q 386 1111 340 1111 q 427 1102 410 1111 q 467 1078 444 1093 q 485 1065 469 1075 q 514 1056 500 1056 q 549 1072 536 1056 q 563 1111 563 1089 l 618 1111 q 594 1003 618 1033 q 525 972 571 972 q 486 981 503 972 q 444 1006 469 989 q 419 1021 432 1014 q 396 1028 407 1028 q 360 1011 374 1028 q 347 972 347 994 l 292 972 z "},"Æ":{"ha":1206,"x_min":-31,"x_max":1179,"o":"m 483 917 l 1006 917 q 1124 806 1124 917 l 1124 688 l 1082 688 q 1038 814 1082 774 q 908 854 994 854 l 685 854 l 685 507 l 1046 507 l 1046 444 l 685 444 l 685 63 l 922 63 q 1054 98 1001 63 q 1142 221 1107 133 l 1179 207 l 1139 97 q 1096 24 1121 47 q 1018 0 1071 0 l 504 0 l 504 264 l 201 264 l 53 0 l -31 0 l 483 917 m 236 326 l 504 326 l 504 804 l 236 326 z "},"B":{"ha":894,"x_min":21,"x_max":847,"o":"m 132 736 q 113 841 132 807 q 35 875 93 875 l 21 875 l 21 917 l 396 917 q 688 868 571 917 q 806 674 806 819 q 755 553 806 610 q 613 474 704 497 q 847 254 847 450 q 732 55 847 110 q 438 0 617 0 l 132 0 l 132 736 m 417 501 q 559 544 507 501 q 611 681 611 586 q 549 819 611 776 q 396 861 488 861 q 338 856 358 861 l 313 851 l 313 501 l 417 501 m 417 56 q 592 106 532 56 q 653 247 653 156 q 417 439 653 439 l 313 439 l 313 69 q 340 63 328 64 q 410 56 371 56 l 417 56 z "},"C":{"ha":943,"x_min":51,"x_max":910,"o":"m 510 -28 q 263 34 367 -28 q 106 203 160 96 q 51 444 51 310 q 111 698 51 583 q 276 878 171 813 q 510 944 381 944 q 714 913 632 944 q 839 832 796 882 q 869 753 864 800 q 875 621 875 706 l 833 621 q 736 815 807 749 q 551 882 665 882 q 328 782 410 882 q 246 444 246 682 q 321 151 246 268 q 551 35 396 35 q 730 86 649 35 q 861 233 811 138 l 910 196 q 749 26 843 79 q 510 -28 654 -28 z "},"Ç":{"ha":943,"x_min":51,"x_max":910,"o":"m 440 -222 l 510 -222 q 550 -209 535 -222 q 565 -178 565 -196 q 550 -144 565 -157 q 510 -132 535 -132 l 447 -132 l 447 -24 q 235 53 324 -11 q 99 219 146 117 q 51 444 51 321 q 111 698 51 583 q 276 878 171 813 q 510 944 381 944 q 714 913 632 944 q 839 832 796 882 q 869 753 864 800 q 875 621 875 706 l 833 621 q 736 815 807 749 q 551 882 665 882 q 328 782 410 882 q 246 444 246 682 q 321 151 246 268 q 551 35 396 35 q 730 86 649 35 q 861 233 811 138 l 910 196 q 759 31 847 83 q 538 -26 671 -22 l 538 -69 q 629 -99 596 -69 q 663 -178 663 -128 q 629 -257 663 -228 q 538 -286 596 -286 l 440 -286 l 440 -222 z "},"D":{"ha":1022,"x_min":21,"x_max":972,"o":"m 132 736 q 113 841 132 807 q 35 875 93 875 l 21 875 l 21 917 l 399 917 q 826 798 679 917 q 972 464 972 679 q 910 222 972 326 q 727 58 849 117 q 435 0 606 0 l 132 0 l 132 736 m 431 56 q 603 104 528 56 q 722 244 679 153 q 764 458 764 336 q 722 670 764 579 q 603 811 679 761 q 428 861 526 861 l 417 861 q 343 856 371 861 l 313 851 l 313 65 l 343 60 q 417 56 372 56 l 431 56 z "},"Ð":{"ha":1022,"x_min":21,"x_max":972,"o":"m 132 424 l 35 424 l 35 493 l 132 493 l 132 736 q 113 841 132 807 q 35 875 93 875 l 21 875 l 21 917 l 399 917 q 826 798 679 917 q 972 464 972 679 q 910 222 972 326 q 727 58 849 117 q 435 0 606 0 l 132 0 l 132 424 m 431 56 q 603 104 528 56 q 722 244 679 153 q 764 458 764 336 q 722 670 764 579 q 603 811 679 761 q 428 861 526 861 l 417 861 q 343 856 371 861 l 313 851 l 313 493 l 417 493 l 417 424 l 313 424 l 313 65 l 343 60 q 417 56 372 56 l 431 56 z "},"Đ":{"ha":1022,"x_min":21,"x_max":972,"o":"m 132 424 l 35 424 l 35 493 l 132 493 l 132 736 q 113 841 132 807 q 35 875 93 875 l 21 875 l 21 917 l 399 917 q 826 798 679 917 q 972 464 972 679 q 910 222 972 326 q 727 58 849 117 q 435 0 606 0 l 132 0 l 132 424 m 431 56 q 603 104 528 56 q 722 244 679 153 q 764 458 764 336 q 722 670 764 579 q 603 811 679 761 q 428 861 526 861 l 417 861 q 343 856 371 861 l 313 851 l 313 493 l 417 493 l 417 424 l 313 424 l 313 65 l 343 60 q 417 56 372 56 l 431 56 z "},"E":{"ha":833,"x_min":21,"x_max":807,"o":"m 132 736 q 113 841 132 807 q 35 875 93 875 l 21 875 l 21 917 l 633 917 q 751 806 751 917 l 751 688 l 710 688 q 666 814 710 774 q 536 854 622 854 l 313 854 l 313 507 l 674 507 l 674 444 l 313 444 l 313 63 l 550 63 q 682 98 629 63 q 769 221 735 133 l 807 207 l 767 97 q 724 24 749 47 q 646 0 699 0 l 132 0 l 132 736 z "},"É":{"ha":833,"x_min":21,"x_max":807,"o":"m 132 736 q 113 841 132 807 q 35 875 93 875 l 21 875 l 21 917 l 633 917 q 751 806 751 917 l 751 688 l 710 688 q 666 814 710 774 q 536 854 622 854 l 313 854 l 313 507 l 674 507 l 674 444 l 313 444 l 313 63 l 550 63 q 682 98 629 63 q 769 221 735 133 l 807 207 l 767 97 q 724 24 749 47 q 646 0 699 0 l 132 0 l 132 736 m 389 972 l 447 1167 l 613 1167 l 465 972 l 389 972 z "},"Ê":{"ha":833,"x_min":21,"x_max":807,"o":"m 132 736 q 113 841 132 807 q 35 875 93 875 l 21 875 l 21 917 l 633 917 q 751 806 751 917 l 751 688 l 710 688 q 666 814 710 774 q 536 854 622 854 l 313 854 l 313 507 l 674 507 l 674 444 l 313 444 l 313 63 l 550 63 q 682 98 629 63 q 769 221 735 133 l 807 207 l 767 97 q 724 24 749 47 q 646 0 699 0 l 132 0 l 132 736 m 222 1003 l 333 1176 l 514 1176 l 625 1003 l 542 1003 l 424 1114 l 306 1003 l 222 1003 z "},"Ế":{"ha":833,"x_min":21,"x_max":818,"o":"m 132 736 q 113 841 132 807 q 35 875 93 875 l 21 875 l 21 917 l 633 917 q 751 806 751 917 l 751 688 l 710 688 q 666 814 710 774 q 536 854 622 854 l 313 854 l 313 507 l 674 507 l 674 444 l 313 444 l 313 63 l 550 63 q 682 98 629 63 q 769 221 735 133 l 807 207 l 767 97 q 724 24 749 47 q 646 0 699 0 l 132 0 l 132 736 m 215 993 l 326 1167 l 507 1167 l 618 993 l 535 993 l 417 1104 l 299 993 l 215 993 m 594 1086 l 653 1281 l 818 1281 l 671 1086 l 594 1086 z "},"Ệ":{"ha":833,"x_min":21,"x_max":807,"o":"m 132 736 q 113 841 132 807 q 35 875 93 875 l 21 875 l 21 917 l 633 917 q 751 806 751 917 l 751 688 l 710 688 q 666 814 710 774 q 536 854 622 854 l 313 854 l 313 507 l 674 507 l 674 444 l 313 444 l 313 63 l 550 63 q 682 98 629 63 q 769 221 735 133 l 807 207 l 767 97 q 724 24 749 47 q 646 0 699 0 l 132 0 l 132 736 m 417 -240 q 365 -221 383 -240 q 347 -169 347 -201 q 366 -119 347 -139 q 417 -100 385 -100 q 469 -119 450 -100 q 488 -169 488 -139 q 469 -221 488 -201 q 417 -240 450 -240 m 215 993 l 326 1167 l 507 1167 l 618 993 l 535 993 l 417 1104 l 299 993 l 215 993 z "},"Ề":{"ha":833,"x_min":21,"x_max":807,"o":"m 132 736 q 113 841 132 807 q 35 875 93 875 l 21 875 l 21 917 l 633 917 q 751 806 751 917 l 751 688 l 710 688 q 666 814 710 774 q 536 854 622 854 l 313 854 l 313 507 l 674 507 l 674 444 l 313 444 l 313 63 l 550 63 q 682 98 629 63 q 769 221 735 133 l 807 207 l 767 97 q 724 24 749 47 q 646 0 699 0 l 132 0 l 132 736 m 215 993 l 326 1167 l 507 1167 l 618 993 l 535 993 l 417 1104 l 299 993 l 215 993 m 611 1114 l 464 1308 l 629 1308 l 688 1114 l 611 1114 z "},"Ể":{"ha":833,"x_min":21,"x_max":807,"o":"m 132 736 q 113 841 132 807 q 35 875 93 875 l 21 875 l 21 917 l 633 917 q 751 806 751 917 l 751 688 l 710 688 q 666 814 710 774 q 536 854 622 854 l 313 854 l 313 507 l 674 507 l 674 444 l 313 444 l 313 63 l 550 63 q 682 98 629 63 q 769 221 735 133 l 807 207 l 767 97 q 724 24 749 47 q 646 0 699 0 l 132 0 l 132 736 m 215 993 l 326 1167 l 507 1167 l 618 993 l 535 993 l 417 1104 l 299 993 l 215 993 m 599 1122 q 606 1160 600 1144 q 624 1196 611 1175 q 644 1253 644 1228 q 631 1281 644 1269 q 599 1292 618 1292 q 560 1277 574 1292 q 539 1219 546 1263 l 463 1221 q 494 1338 463 1299 q 599 1378 526 1378 q 700 1346 664 1378 q 736 1265 736 1314 q 728 1227 736 1243 q 704 1193 719 1211 q 680 1158 688 1172 q 671 1122 672 1143 l 599 1122 z "},"Ễ":{"ha":833,"x_min":21,"x_max":807,"o":"m 132 736 q 113 841 132 807 q 35 875 93 875 l 21 875 l 21 917 l 633 917 q 751 806 751 917 l 751 688 l 710 688 q 666 814 710 774 q 536 854 622 854 l 313 854 l 313 507 l 674 507 l 674 444 l 313 444 l 313 63 l 550 63 q 682 98 629 63 q 769 221 735 133 l 807 207 l 767 97 q 724 24 749 47 q 646 0 699 0 l 132 0 l 132 736 m 215 993 l 326 1167 l 507 1167 l 618 993 l 535 993 l 417 1104 l 299 993 l 215 993 m 253 1203 q 277 1311 253 1281 q 347 1342 301 1342 q 388 1333 371 1342 q 428 1308 406 1324 q 446 1296 431 1306 q 475 1286 461 1286 q 510 1303 497 1286 q 524 1342 524 1319 l 579 1342 q 556 1233 579 1264 q 486 1203 532 1203 q 447 1211 464 1203 q 406 1236 431 1219 q 381 1251 393 1244 q 357 1258 368 1258 q 322 1242 335 1258 q 308 1203 308 1225 l 253 1203 z "},"Ë":{"ha":833,"x_min":21,"x_max":807,"o":"m 132 736 q 113 841 132 807 q 35 875 93 875 l 21 875 l 21 917 l 633 917 q 751 806 751 917 l 751 688 l 710 688 q 666 814 710 774 q 536 854 622 854 l 313 854 l 313 507 l 674 507 l 674 444 l 313 444 l 313 63 l 550 63 q 682 98 629 63 q 769 221 735 133 l 807 207 l 767 97 q 724 24 749 47 q 646 0 699 0 l 132 0 l 132 736 m 294 1014 q 238 1036 258 1014 q 217 1092 217 1058 q 238 1147 217 1125 q 294 1169 258 1169 q 351 1147 331 1169 q 372 1092 372 1125 q 351 1036 372 1058 q 294 1014 331 1014 m 544 1014 q 488 1036 508 1014 q 467 1092 467 1058 q 488 1147 467 1125 q 544 1169 508 1169 q 601 1147 581 1169 q 622 1092 622 1125 q 601 1036 622 1058 q 544 1014 581 1014 z "},"Ẹ":{"ha":833,"x_min":21,"x_max":807,"o":"m 132 736 q 113 841 132 807 q 35 875 93 875 l 21 875 l 21 917 l 633 917 q 751 806 751 917 l 751 688 l 710 688 q 666 814 710 774 q 536 854 622 854 l 313 854 l 313 507 l 674 507 l 674 444 l 313 444 l 313 63 l 550 63 q 682 98 629 63 q 769 221 735 133 l 807 207 l 767 97 q 724 24 749 47 q 646 0 699 0 l 132 0 l 132 736 m 417 -240 q 365 -221 383 -240 q 347 -169 347 -201 q 366 -119 347 -139 q 417 -100 385 -100 q 469 -119 450 -100 q 488 -169 488 -139 q 469 -221 488 -201 q 417 -240 450 -240 z "},"È":{"ha":833,"x_min":21,"x_max":807,"o":"m 132 736 q 113 841 132 807 q 35 875 93 875 l 21 875 l 21 917 l 633 917 q 751 806 751 917 l 751 688 l 710 688 q 666 814 710 774 q 536 854 622 854 l 313 854 l 313 507 l 674 507 l 674 444 l 313 444 l 313 63 l 550 63 q 682 98 629 63 q 769 221 735 133 l 807 207 l 767 97 q 724 24 749 47 q 646 0 699 0 l 132 0 l 132 736 m 410 979 l 263 1174 l 428 1174 l 486 979 l 410 979 z "},"Ẻ":{"ha":833,"x_min":21,"x_max":807,"o":"m 132 736 q 113 841 132 807 q 35 875 93 875 l 21 875 l 21 917 l 633 917 q 751 806 751 917 l 751 688 l 710 688 q 666 814 710 774 q 536 854 622 854 l 313 854 l 313 507 l 674 507 l 674 444 l 313 444 l 313 63 l 550 63 q 682 98 629 63 q 769 221 735 133 l 807 207 l 767 97 q 724 24 749 47 q 646 0 699 0 l 132 0 l 132 736 m 417 988 q 424 1025 418 1010 q 442 1061 429 1040 q 463 1118 463 1093 q 449 1146 463 1135 q 417 1157 436 1157 q 378 1142 392 1157 q 357 1085 364 1128 l 281 1086 q 313 1203 281 1164 q 417 1243 344 1243 q 518 1211 482 1243 q 554 1131 554 1179 q 546 1092 554 1108 q 522 1058 538 1076 q 498 1023 506 1038 q 489 988 490 1008 l 417 988 z "},"Ẽ":{"ha":833,"x_min":21,"x_max":807,"o":"m 132 736 q 113 841 132 807 q 35 875 93 875 l 21 875 l 21 917 l 633 917 q 751 806 751 917 l 751 688 l 710 688 q 666 814 710 774 q 536 854 622 854 l 313 854 l 313 507 l 674 507 l 674 444 l 313 444 l 313 63 l 550 63 q 682 98 629 63 q 769 221 735 133 l 807 207 l 767 97 q 724 24 749 47 q 646 0 699 0 l 132 0 l 132 736 m 253 1028 q 277 1136 253 1106 q 347 1167 301 1167 q 388 1158 371 1167 q 428 1133 406 1149 q 446 1121 431 1131 q 475 1111 461 1111 q 510 1128 497 1111 q 524 1167 524 1144 l 579 1167 q 556 1058 579 1089 q 486 1028 532 1028 q 447 1036 464 1028 q 406 1061 431 1044 q 381 1076 393 1069 q 357 1083 368 1083 q 322 1067 335 1083 q 308 1028 308 1050 l 253 1028 z "},"F":{"ha":749,"x_min":21,"x_max":721,"o":"m 132 736 q 113 841 132 807 q 35 875 93 875 l 21 875 l 21 917 l 603 917 q 721 806 721 917 l 721 688 l 679 688 q 635 815 679 775 q 506 854 592 854 l 313 854 l 313 500 l 618 500 l 618 438 l 313 438 l 313 0 l 132 0 l 132 736 z "},"G":{"ha":1019,"x_min":49,"x_max":1006,"o":"m 549 -28 q 292 38 407 -28 q 113 219 178 104 q 49 472 49 333 q 106 713 49 606 q 267 883 163 821 q 507 944 372 944 q 715 913 629 944 q 843 832 801 881 q 873 754 867 801 q 879 639 879 707 l 838 639 q 741 824 811 765 q 549 882 671 882 q 318 765 393 882 q 243 472 243 649 q 326 131 243 235 q 549 28 408 28 q 736 64 657 28 l 736 311 q 792 433 736 385 q 1006 481 847 481 l 1006 446 q 917 314 917 446 l 917 65 q 747 -6 838 17 q 549 -28 657 -28 z "},"Ğ":{"ha":1019,"x_min":49,"x_max":1006,"o":"m 549 -28 q 292 38 407 -28 q 113 219 178 104 q 49 472 49 333 q 106 713 49 606 q 267 883 163 821 q 507 944 372 944 q 715 913 629 944 q 843 832 801 881 q 873 754 867 801 q 879 639 879 707 l 838 639 q 741 824 811 765 q 549 882 671 882 q 318 765 393 882 q 243 472 243 649 q 326 131 243 235 q 549 28 408 28 q 736 64 657 28 l 736 311 q 792 433 736 385 q 1006 481 847 481 l 1006 446 q 917 314 917 446 l 917 65 q 747 -6 838 17 q 549 -28 657 -28 m 524 1014 q 406 1049 457 1014 q 328 1144 354 1085 l 367 1174 q 430 1124 390 1144 q 524 1104 469 1104 q 617 1124 578 1104 q 681 1174 657 1144 l 719 1144 q 642 1049 693 1085 q 524 1014 590 1014 z "},"H":{"ha":1000,"x_min":21,"x_max":979,"o":"m 132 736 q 113 841 132 807 q 35 875 93 875 l 21 875 l 21 917 l 188 917 q 264 900 238 917 q 301 845 290 883 q 313 736 313 807 l 313 507 l 688 507 l 688 917 l 868 917 l 868 181 q 888 76 868 110 q 965 42 907 42 l 979 42 l 979 0 l 813 0 q 736 16 763 0 q 699 70 710 32 q 688 181 688 108 l 688 444 l 313 444 l 313 0 l 132 0 l 132 736 z "},"I":{"ha":422,"x_min":110,"x_max":401,"o":"m 235 0 q 158 16 185 0 q 121 70 132 32 q 110 181 110 108 l 110 917 l 290 917 l 290 181 q 310 76 290 110 q 388 42 329 42 l 401 42 l 401 0 l 235 0 z "},"Í":{"ha":422,"x_min":110,"x_max":401,"o":"m 235 0 q 158 16 185 0 q 121 70 132 32 q 110 181 110 108 l 110 917 l 290 917 l 290 181 q 310 76 290 110 q 388 42 329 42 l 401 42 l 401 0 l 235 0 m 154 972 l 213 1167 l 378 1167 l 231 972 l 154 972 z "},"Î":{"ha":422,"x_min":0,"x_max":403,"o":"m 235 0 q 158 16 185 0 q 121 70 132 32 q 110 181 110 108 l 110 917 l 290 917 l 290 181 q 310 76 290 110 q 388 42 329 42 l 401 42 l 401 0 l 235 0 m 0 965 l 111 1139 l 292 1139 l 403 965 l 319 965 l 201 1076 l 83 965 l 0 965 z "},"Ï":{"ha":422,"x_min":7,"x_max":401,"o":"m 85 993 q 28 1015 49 993 q 7 1071 7 1038 q 28 1126 7 1104 q 85 1149 49 1149 q 142 1126 121 1149 q 163 1071 163 1104 q 142 1015 163 1038 q 85 993 121 993 m 315 993 q 258 1015 279 993 q 238 1071 238 1038 q 258 1126 238 1104 q 315 1149 279 1149 q 372 1126 351 1149 q 393 1071 393 1104 q 372 1015 393 1038 q 315 993 351 993 m 235 0 q 158 16 185 0 q 121 70 132 32 q 110 181 110 108 l 110 917 l 290 917 l 290 181 q 310 76 290 110 q 388 42 329 42 l 401 42 l 401 0 l 235 0 z "},"İ":{"ha":422,"x_min":103,"x_max":401,"o":"m 207 992 q 130 1022 157 992 q 103 1097 103 1053 q 124 1154 103 1133 q 179 1175 146 1175 q 256 1144 229 1175 q 283 1069 283 1114 q 262 1013 283 1033 q 207 992 240 992 m 235 0 q 158 16 185 0 q 121 70 132 32 q 110 181 110 108 l 110 917 l 290 917 l 290 181 q 310 76 290 110 q 388 42 329 42 l 401 42 l 401 0 l 235 0 z "},"Ị":{"ha":422,"x_min":110,"x_max":401,"o":"m 235 0 q 158 16 185 0 q 121 70 132 32 q 110 181 110 108 l 110 917 l 290 917 l 290 181 q 310 76 290 110 q 388 42 329 42 l 401 42 l 401 0 l 235 0 m 211 -240 q 160 -221 178 -240 q 142 -169 142 -201 q 160 -119 142 -139 q 211 -100 179 -100 q 263 -119 244 -100 q 282 -169 282 -139 q 263 -221 282 -201 q 211 -240 244 -240 z "},"Ì":{"ha":422,"x_min":57,"x_max":401,"o":"m 235 0 q 158 16 185 0 q 121 70 132 32 q 110 181 110 108 l 110 917 l 290 917 l 290 181 q 310 76 290 110 q 388 42 329 42 l 401 42 l 401 0 l 235 0 m 204 979 l 57 1174 l 222 1174 l 281 979 l 204 979 z "},"Ỉ":{"ha":422,"x_min":75,"x_max":401,"o":"m 235 0 q 158 16 185 0 q 121 70 132 32 q 110 181 110 108 l 110 917 l 290 917 l 290 181 q 310 76 290 110 q 388 42 329 42 l 401 42 l 401 0 l 235 0 m 211 988 q 218 1025 213 1010 q 236 1061 224 1040 q 257 1118 257 1093 q 244 1146 257 1135 q 211 1157 231 1157 q 172 1142 186 1157 q 151 1085 158 1128 l 75 1086 q 107 1203 75 1164 q 211 1243 139 1243 q 313 1211 276 1243 q 349 1131 349 1179 q 340 1092 349 1108 q 317 1058 332 1076 q 292 1023 300 1038 q 283 988 285 1008 l 211 988 z "},"Ĩ":{"ha":422,"x_min":47,"x_max":401,"o":"m 235 0 q 158 16 185 0 q 121 70 132 32 q 110 181 110 108 l 110 917 l 290 917 l 290 181 q 310 76 290 110 q 388 42 329 42 l 401 42 l 401 0 l 235 0 m 47 1028 q 72 1136 47 1106 q 142 1167 96 1167 q 183 1158 165 1167 q 222 1133 200 1149 q 240 1121 225 1131 q 269 1111 256 1111 q 305 1128 292 1111 q 318 1167 318 1144 l 374 1167 q 350 1058 374 1089 q 281 1028 326 1028 q 242 1036 258 1028 q 200 1061 225 1044 q 175 1076 188 1069 q 151 1083 163 1083 q 116 1067 129 1083 q 103 1028 103 1050 l 47 1028 z "},"J":{"ha":386,"x_min":-26,"x_max":283,"o":"m -26 -149 q 72 -83 40 -140 q 103 115 103 -25 l 103 917 l 283 917 l 283 115 q 258 -73 283 -8 q 167 -164 232 -137 q -26 -190 101 -190 l -26 -149 z "},"K":{"ha":963,"x_min":21,"x_max":978,"o":"m 876 -14 q 709 22 789 -14 q 538 153 629 57 l 314 386 l 314 0 l 133 0 l 132 736 q 113 841 132 807 q 35 875 93 875 l 21 875 l 21 917 l 188 917 q 263 900 236 917 q 302 844 290 883 q 314 736 314 806 l 314 472 l 554 771 q 665 877 606 838 q 800 917 724 917 l 897 917 l 897 868 q 749 847 811 868 q 643 769 688 825 l 436 514 l 757 181 q 873 81 808 124 q 978 33 938 39 l 978 0 q 876 -14 936 -14 z "},"L":{"ha":792,"x_min":21,"x_max":792,"o":"m 132 736 q 113 841 132 807 q 35 875 93 875 l 21 875 l 21 917 l 188 917 q 264 900 238 917 q 301 845 290 883 q 313 736 313 807 l 313 63 l 792 63 l 792 0 l 132 0 l 132 736 z "},"M":{"ha":1204,"x_min":103,"x_max":1176,"o":"m 1176 -62 q 960 8 1026 -62 q 894 236 894 78 l 894 728 l 590 0 l 544 0 l 172 756 l 172 0 l 103 0 l 103 917 l 272 917 l 608 235 l 893 917 l 1075 917 l 1075 236 q 1097 44 1075 106 q 1176 -28 1119 -17 l 1176 -62 z "},"N":{"ha":961,"x_min":4,"x_max":858,"o":"m 206 688 l 206 0 l 136 0 l 136 750 q 108 842 136 808 q 11 875 79 875 l 4 875 l 4 917 l 101 917 q 228 897 179 917 q 311 833 278 876 l 789 278 l 789 917 l 858 917 l 858 -4 l 794 -4 l 206 688 z "},"Ñ":{"ha":961,"x_min":4,"x_max":858,"o":"m 206 688 l 206 0 l 136 0 l 136 750 q 108 842 136 808 q 11 875 79 875 l 4 875 l 4 917 l 101 917 q 228 897 179 917 q 311 833 278 876 l 789 278 l 789 917 l 858 917 l 858 -4 l 794 -4 l 206 688 m 326 964 q 351 1072 326 1042 q 421 1103 375 1103 q 462 1094 444 1103 q 501 1069 479 1085 q 519 1057 504 1067 q 549 1047 535 1047 q 584 1064 571 1047 q 597 1103 597 1081 l 653 1103 q 629 994 653 1025 q 560 964 606 964 q 521 972 538 964 q 479 997 504 981 q 454 1013 467 1006 q 431 1019 442 1019 q 395 1003 408 1019 q 382 964 382 986 l 326 964 z "},"O":{"ha":1018,"x_min":51,"x_max":967,"o":"m 510 -28 q 270 36 375 -28 q 108 211 165 100 q 51 458 51 322 q 108 706 51 594 q 270 881 165 817 q 510 944 375 944 q 749 881 644 944 q 910 706 853 817 q 967 458 967 594 q 910 211 967 322 q 749 36 853 100 q 510 -28 644 -28 m 510 35 q 706 145 636 35 q 775 458 775 256 q 706 772 775 661 q 510 882 636 882 q 315 772 383 882 q 246 458 246 661 q 315 145 246 256 q 510 35 383 35 z "},"Ó":{"ha":1018,"x_min":51,"x_max":967,"o":"m 510 -28 q 270 36 375 -28 q 108 211 165 100 q 51 458 51 322 q 108 706 51 594 q 270 881 165 817 q 510 944 375 944 q 749 881 644 944 q 910 706 853 817 q 967 458 967 594 q 910 211 967 322 q 749 36 853 100 q 510 -28 644 -28 m 510 35 q 706 145 636 35 q 775 458 775 256 q 706 772 775 661 q 510 882 636 882 q 315 772 383 882 q 246 458 246 661 q 315 145 246 256 q 510 35 383 35 m 469 1006 l 528 1200 l 693 1200 l 546 1006 l 469 1006 z "},"Ô":{"ha":1018,"x_min":51,"x_max":967,"o":"m 510 -28 q 270 36 375 -28 q 108 211 165 100 q 51 458 51 322 q 108 706 51 594 q 270 881 165 817 q 510 944 375 944 q 749 881 644 944 q 910 706 853 817 q 967 458 967 594 q 910 211 967 322 q 749 36 853 100 q 510 -28 644 -28 m 510 35 q 706 145 636 35 q 775 458 775 256 q 706 772 775 661 q 510 882 636 882 q 315 772 383 882 q 246 458 246 661 q 315 145 246 256 q 510 35 383 35 m 303 1015 l 414 1189 l 594 1189 l 706 1015 l 622 1015 l 504 1126 l 386 1015 l 303 1015 z "},"Ố":{"ha":1018,"x_min":51,"x_max":967,"o":"m 510 -28 q 270 36 375 -28 q 108 211 165 100 q 51 458 51 322 q 108 706 51 594 q 270 881 165 817 q 510 944 375 944 q 749 881 644 944 q 910 706 853 817 q 967 458 967 594 q 910 211 967 322 q 749 36 853 100 q 510 -28 644 -28 m 510 35 q 706 145 636 35 q 775 458 775 256 q 706 772 775 661 q 510 882 636 882 q 315 772 383 882 q 246 458 246 661 q 315 145 246 256 q 510 35 383 35 m 308 993 l 419 1167 l 600 1167 l 711 993 l 628 993 l 510 1104 l 392 993 l 308 993 m 688 1086 l 746 1281 l 911 1281 l 764 1086 l 688 1086 z "},"Ộ":{"ha":1018,"x_min":51,"x_max":967,"o":"m 510 -28 q 270 36 375 -28 q 108 211 165 100 q 51 458 51 322 q 108 706 51 594 q 270 881 165 817 q 510 944 375 944 q 749 881 644 944 q 910 706 853 817 q 967 458 967 594 q 910 211 967 322 q 749 36 853 100 q 510 -28 644 -28 m 510 35 q 706 145 636 35 q 775 458 775 256 q 706 772 775 661 q 510 882 636 882 q 315 772 383 882 q 246 458 246 661 q 315 145 246 256 q 510 35 383 35 m 510 -240 q 458 -221 476 -240 q 440 -169 440 -201 q 459 -119 440 -139 q 510 -100 478 -100 q 562 -119 543 -100 q 581 -169 581 -139 q 562 -221 581 -201 q 510 -240 543 -240 m 308 993 l 419 1167 l 600 1167 l 711 993 l 628 993 l 510 1104 l 392 993 l 308 993 z "},"Ồ":{"ha":1018,"x_min":51,"x_max":967,"o":"m 510 -28 q 270 36 375 -28 q 108 211 165 100 q 51 458 51 322 q 108 706 51 594 q 270 881 165 817 q 510 944 375 944 q 749 881 644 944 q 910 706 853 817 q 967 458 967 594 q 910 211 967 322 q 749 36 853 100 q 510 -28 644 -28 m 510 35 q 706 145 636 35 q 775 458 775 256 q 706 772 775 661 q 510 882 636 882 q 315 772 383 882 q 246 458 246 661 q 315 145 246 256 q 510 35 383 35 m 308 993 l 419 1167 l 600 1167 l 711 993 l 628 993 l 510 1104 l 392 993 l 308 993 m 704 1114 l 557 1308 l 722 1308 l 781 1114 l 704 1114 z "},"Ổ":{"ha":1018,"x_min":51,"x_max":967,"o":"m 510 -28 q 270 36 375 -28 q 108 211 165 100 q 51 458 51 322 q 108 706 51 594 q 270 881 165 817 q 510 944 375 944 q 749 881 644 944 q 910 706 853 817 q 967 458 967 594 q 910 211 967 322 q 749 36 853 100 q 510 -28 644 -28 m 510 35 q 706 145 636 35 q 775 458 775 256 q 706 772 775 661 q 510 882 636 882 q 315 772 383 882 q 246 458 246 661 q 315 145 246 256 q 510 35 383 35 m 308 993 l 419 1167 l 600 1167 l 711 993 l 628 993 l 510 1104 l 392 993 l 308 993 m 692 1122 q 699 1160 693 1144 q 717 1196 704 1175 q 738 1253 738 1228 q 724 1281 738 1269 q 692 1292 711 1292 q 653 1277 667 1292 q 632 1219 639 1263 l 556 1221 q 588 1338 556 1299 q 692 1378 619 1378 q 793 1346 757 1378 q 829 1265 829 1314 q 821 1227 829 1243 q 797 1193 813 1211 q 773 1158 781 1172 q 764 1122 765 1143 l 692 1122 z "},"Ỗ":{"ha":1018,"x_min":51,"x_max":967,"o":"m 510 -28 q 270 36 375 -28 q 108 211 165 100 q 51 458 51 322 q 108 706 51 594 q 270 881 165 817 q 510 944 375 944 q 749 881 644 944 q 910 706 853 817 q 967 458 967 594 q 910 211 967 322 q 749 36 853 100 q 510 -28 644 -28 m 510 35 q 706 145 636 35 q 775 458 775 256 q 706 772 775 661 q 510 882 636 882 q 315 772 383 882 q 246 458 246 661 q 315 145 246 256 q 510 35 383 35 m 308 993 l 419 1167 l 600 1167 l 711 993 l 628 993 l 510 1104 l 392 993 l 308 993 m 346 1203 q 370 1311 346 1281 q 440 1342 394 1342 q 481 1333 464 1342 q 521 1308 499 1324 q 539 1296 524 1306 q 568 1286 554 1286 q 603 1303 590 1286 q 617 1342 617 1319 l 672 1342 q 649 1233 672 1264 q 579 1203 625 1203 q 540 1211 557 1203 q 499 1236 524 1219 q 474 1251 486 1244 q 450 1258 461 1258 q 415 1242 428 1258 q 401 1203 401 1225 l 346 1203 z "},"Ö":{"ha":1018,"x_min":51,"x_max":967,"o":"m 510 -28 q 270 36 375 -28 q 108 211 165 100 q 51 458 51 322 q 108 706 51 594 q 270 881 165 817 q 510 944 375 944 q 749 881 644 944 q 910 706 853 817 q 967 458 967 594 q 910 211 967 322 q 749 36 853 100 q 510 -28 644 -28 m 510 35 q 706 145 636 35 q 775 458 775 256 q 706 772 775 661 q 510 882 636 882 q 315 772 383 882 q 246 458 246 661 q 315 145 246 256 q 510 35 383 35 m 385 1021 q 328 1043 349 1021 q 307 1099 307 1065 q 328 1154 307 1132 q 385 1176 349 1176 q 442 1154 421 1176 q 463 1099 463 1132 q 442 1043 463 1065 q 385 1021 421 1021 m 635 1021 q 578 1043 599 1021 q 557 1099 557 1065 q 578 1154 557 1132 q 635 1176 599 1176 q 692 1154 671 1176 q 713 1099 713 1132 q 692 1043 713 1065 q 635 1021 671 1021 z "},"Ọ":{"ha":1018,"x_min":51,"x_max":967,"o":"m 510 -28 q 270 36 375 -28 q 108 211 165 100 q 51 458 51 322 q 108 706 51 594 q 270 881 165 817 q 510 944 375 944 q 749 881 644 944 q 910 706 853 817 q 967 458 967 594 q 910 211 967 322 q 749 36 853 100 q 510 -28 644 -28 m 510 35 q 706 145 636 35 q 775 458 775 256 q 706 772 775 661 q 510 882 636 882 q 315 772 383 882 q 246 458 246 661 q 315 145 246 256 q 510 35 383 35 m 510 -240 q 458 -221 476 -240 q 440 -169 440 -201 q 459 -119 440 -139 q 510 -100 478 -100 q 562 -119 543 -100 q 581 -169 581 -139 q 562 -221 581 -201 q 510 -240 543 -240 z "},"Ò":{"ha":1018,"x_min":51,"x_max":967,"o":"m 510 -28 q 270 36 375 -28 q 108 211 165 100 q 51 458 51 322 q 108 706 51 594 q 270 881 165 817 q 510 944 375 944 q 749 881 644 944 q 910 706 853 817 q 967 458 967 594 q 910 211 967 322 q 749 36 853 100 q 510 -28 644 -28 m 510 35 q 706 145 636 35 q 775 458 775 256 q 706 772 775 661 q 510 882 636 882 q 315 772 383 882 q 246 458 246 661 q 315 145 246 256 q 510 35 383 35 m 503 979 l 356 1174 l 521 1174 l 579 979 l 503 979 z "},"Ỏ":{"ha":1018,"x_min":51,"x_max":967,"o":"m 510 -28 q 270 36 375 -28 q 108 211 165 100 q 51 458 51 322 q 108 706 51 594 q 270 881 165 817 q 510 944 375 944 q 749 881 644 944 q 910 706 853 817 q 967 458 967 594 q 910 211 967 322 q 749 36 853 100 q 510 -28 644 -28 m 510 35 q 706 145 636 35 q 775 458 775 256 q 706 772 775 661 q 510 882 636 882 q 315 772 383 882 q 246 458 246 661 q 315 145 246 256 q 510 35 383 35 m 510 988 q 517 1025 511 1010 q 535 1061 522 1040 q 556 1118 556 1093 q 542 1146 556 1135 q 510 1157 529 1157 q 471 1142 485 1157 q 450 1085 457 1128 l 374 1086 q 406 1203 374 1164 q 510 1243 438 1243 q 611 1211 575 1243 q 647 1131 647 1179 q 639 1092 647 1108 q 615 1058 631 1076 q 591 1023 599 1038 q 582 988 583 1008 l 510 988 z "},"Ơ":{"ha":1018,"x_min":51,"x_max":967,"o":"m 764 871 q 913 699 860 807 q 967 458 967 590 q 910 211 967 322 q 749 36 853 100 q 510 -28 644 -28 q 270 36 375 -28 q 108 211 165 100 q 51 458 51 322 q 108 706 51 594 q 270 881 165 817 q 510 944 375 944 q 675 915 600 944 q 768 963 738 921 q 799 1060 799 1006 l 910 1060 q 872 947 910 1000 q 764 871 835 894 m 510 35 q 706 145 636 35 q 775 458 775 256 q 706 772 775 661 q 510 882 636 882 q 315 772 383 882 q 246 458 246 661 q 315 145 246 256 q 510 35 383 35 z "},"Ớ":{"ha":1018,"x_min":51,"x_max":967,"o":"m 764 871 q 913 699 860 807 q 967 458 967 590 q 910 211 967 322 q 749 36 853 100 q 510 -28 644 -28 q 270 36 375 -28 q 108 211 165 100 q 51 458 51 322 q 108 706 51 594 q 270 881 165 817 q 510 944 375 944 q 675 915 600 944 q 768 963 738 921 q 799 1060 799 1006 l 910 1060 q 872 947 910 1000 q 764 871 835 894 m 510 35 q 706 145 636 35 q 775 458 775 256 q 706 772 775 661 q 510 882 636 882 q 315 772 383 882 q 246 458 246 661 q 315 145 246 256 q 510 35 383 35 m 467 979 l 525 1174 l 690 1174 l 543 979 l 467 979 z "},"Ợ":{"ha":1018,"x_min":51,"x_max":967,"o":"m 764 871 q 913 699 860 807 q 967 458 967 590 q 910 211 967 322 q 749 36 853 100 q 510 -28 644 -28 q 270 36 375 -28 q 108 211 165 100 q 51 458 51 322 q 108 706 51 594 q 270 881 165 817 q 510 944 375 944 q 675 915 600 944 q 768 963 738 921 q 799 1060 799 1006 l 910 1060 q 872 947 910 1000 q 764 871 835 894 m 510 35 q 706 145 636 35 q 775 458 775 256 q 706 772 775 661 q 510 882 636 882 q 315 772 383 882 q 246 458 246 661 q 315 145 246 256 q 510 35 383 35 m 510 -240 q 458 -221 476 -240 q 440 -169 440 -201 q 459 -119 440 -139 q 510 -100 478 -100 q 562 -119 543 -100 q 581 -169 581 -139 q 562 -221 581 -201 q 510 -240 543 -240 z "},"Ờ":{"ha":1018,"x_min":51,"x_max":967,"o":"m 764 871 q 913 699 860 807 q 967 458 967 590 q 910 211 967 322 q 749 36 853 100 q 510 -28 644 -28 q 270 36 375 -28 q 108 211 165 100 q 51 458 51 322 q 108 706 51 594 q 270 881 165 817 q 510 944 375 944 q 675 915 600 944 q 768 963 738 921 q 799 1060 799 1006 l 910 1060 q 872 947 910 1000 q 764 871 835 894 m 510 35 q 706 145 636 35 q 775 458 775 256 q 706 772 775 661 q 510 882 636 882 q 315 772 383 882 q 246 458 246 661 q 315 145 246 256 q 510 35 383 35 m 503 979 l 356 1174 l 521 1174 l 579 979 l 503 979 z "},"Ở":{"ha":1018,"x_min":51,"x_max":967,"o":"m 764 871 q 913 699 860 807 q 967 458 967 590 q 910 211 967 322 q 749 36 853 100 q 510 -28 644 -28 q 270 36 375 -28 q 108 211 165 100 q 51 458 51 322 q 108 706 51 594 q 270 881 165 817 q 510 944 375 944 q 675 915 600 944 q 768 963 738 921 q 799 1060 799 1006 l 910 1060 q 872 947 910 1000 q 764 871 835 894 m 510 35 q 706 145 636 35 q 775 458 775 256 q 706 772 775 661 q 510 882 636 882 q 315 772 383 882 q 246 458 246 661 q 315 145 246 256 q 510 35 383 35 m 510 988 q 517 1025 511 1010 q 535 1061 522 1040 q 556 1118 556 1093 q 542 1146 556 1135 q 510 1157 529 1157 q 471 1142 485 1157 q 450 1085 457 1128 l 374 1086 q 406 1203 374 1164 q 510 1243 438 1243 q 611 1211 575 1243 q 647 1131 647 1179 q 639 1092 647 1108 q 615 1058 631 1076 q 591 1023 599 1038 q 582 988 583 1008 l 510 988 z "},"Ỡ":{"ha":1018,"x_min":51,"x_max":967,"o":"m 764 871 q 913 699 860 807 q 967 458 967 590 q 910 211 967 322 q 749 36 853 100 q 510 -28 644 -28 q 270 36 375 -28 q 108 211 165 100 q 51 458 51 322 q 108 706 51 594 q 270 881 165 817 q 510 944 375 944 q 675 915 600 944 q 768 963 738 921 q 799 1060 799 1006 l 910 1060 q 872 947 910 1000 q 764 871 835 894 m 510 35 q 706 145 636 35 q 775 458 775 256 q 706 772 775 661 q 510 882 636 882 q 315 772 383 882 q 246 458 246 661 q 315 145 246 256 q 510 35 383 35 m 346 1028 q 370 1136 346 1106 q 440 1167 394 1167 q 481 1158 464 1167 q 521 1133 499 1149 q 539 1121 524 1131 q 568 1111 554 1111 q 603 1128 590 1111 q 617 1167 617 1144 l 672 1167 q 649 1058 672 1089 q 579 1028 625 1028 q 540 1036 557 1028 q 499 1061 524 1044 q 474 1076 486 1069 q 450 1083 461 1083 q 415 1067 428 1083 q 401 1028 401 1050 l 346 1028 z "},"Ø":{"ha":1018,"x_min":51,"x_max":967,"o":"m 211 78 q 93 243 135 144 q 51 458 51 342 q 108 706 51 594 q 270 881 165 817 q 510 944 375 944 q 708 901 621 944 l 733 944 l 861 944 l 800 843 q 924 677 881 776 q 967 458 967 578 q 910 211 967 322 q 749 36 853 100 q 510 -28 644 -28 q 304 18 399 -28 l 276 -28 l 149 -28 l 211 78 m 661 824 q 510 882 597 882 q 315 772 383 882 q 246 458 246 661 q 286 201 246 307 l 661 824 m 510 35 q 706 145 636 35 q 775 458 775 256 q 729 725 775 614 l 351 97 q 510 35 414 35 z "},"Õ":{"ha":1018,"x_min":51,"x_max":967,"o":"m 510 -28 q 270 36 375 -28 q 108 211 165 100 q 51 458 51 322 q 108 706 51 594 q 270 881 165 817 q 510 944 375 944 q 749 881 644 944 q 910 706 853 817 q 967 458 967 594 q 910 211 967 322 q 749 36 853 100 q 510 -28 644 -28 m 510 35 q 706 145 636 35 q 775 458 775 256 q 706 772 775 661 q 510 882 636 882 q 315 772 383 882 q 246 458 246 661 q 315 145 246 256 q 510 35 383 35 m 346 1025 q 370 1133 346 1103 q 440 1164 394 1164 q 481 1155 464 1164 q 521 1131 499 1146 q 539 1118 524 1128 q 568 1108 554 1108 q 603 1125 590 1108 q 617 1164 617 1142 l 672 1164 q 649 1056 672 1086 q 579 1025 625 1025 q 540 1033 557 1025 q 499 1058 524 1042 q 474 1074 486 1067 q 450 1081 461 1081 q 415 1064 428 1081 q 401 1025 401 1047 l 346 1025 z "},"Œ":{"ha":1329,"x_min":51,"x_max":1303,"o":"m 510 -28 q 270 36 375 -28 q 108 211 165 100 q 51 458 51 322 q 108 706 51 594 q 270 881 165 817 q 510 944 375 944 q 596 938 563 944 q 669 917 629 931 l 1129 917 q 1247 806 1247 917 l 1247 688 l 1206 688 q 1162 814 1206 774 q 1032 854 1118 854 l 808 854 l 808 507 l 1169 507 l 1169 444 l 808 444 l 808 63 l 1046 63 q 1178 98 1125 63 q 1265 221 1231 133 l 1303 207 l 1263 97 q 1219 24 1244 47 q 1142 0 1194 0 l 669 0 q 510 -28 604 -28 m 510 35 q 628 67 575 35 l 628 849 q 510 882 575 882 q 315 772 383 882 q 246 458 246 661 q 315 145 246 256 q 510 35 383 35 z "},"P":{"ha":801,"x_min":21,"x_max":778,"o":"m 132 736 q 113 841 132 807 q 35 875 93 875 l 21 875 l 21 917 l 403 917 q 662 860 546 917 q 778 638 778 804 q 717 469 778 529 q 582 390 657 410 q 444 371 507 371 l 313 371 l 313 0 l 132 0 l 132 736 m 396 426 q 531 476 478 426 q 583 644 583 526 q 531 811 583 761 q 403 861 479 861 q 340 856 363 861 l 313 851 l 313 426 l 396 426 z "},"Þ":{"ha":771,"x_min":24,"x_max":746,"o":"m 135 778 q 115 883 135 849 q 38 917 96 917 l 24 917 l 24 958 l 190 958 q 267 942 240 958 q 304 887 293 925 q 315 778 315 849 l 315 764 q 746 438 746 754 q 315 111 746 119 l 315 -42 l 135 -42 l 135 778 m 315 174 q 492 251 433 182 q 551 438 551 321 q 492 624 551 554 q 315 700 433 693 l 315 174 z "},"Q":{"ha":1021,"x_min":53,"x_max":968,"o":"m 963 -285 q 640 -218 793 -285 q 367 -6 488 -151 q 138 165 222 39 q 53 458 53 290 q 110 706 53 594 q 272 881 167 817 q 511 944 376 944 q 750 881 646 944 q 911 706 854 817 q 968 458 968 594 q 881 158 968 285 q 643 -10 793 32 q 720 -130 667 -75 q 839 -217 774 -185 q 963 -249 904 -249 l 963 -285 m 511 35 q 707 145 638 35 q 776 458 776 256 q 707 772 776 661 q 511 882 638 882 q 316 772 385 882 q 247 458 247 661 q 316 145 247 256 q 511 35 385 35 z "},"R":{"ha":856,"x_min":21,"x_max":872,"o":"m 778 -14 q 639 31 701 -14 q 508 188 576 76 l 369 419 l 314 419 l 314 0 l 132 0 l 132 736 q 113 841 132 807 q 35 875 93 875 l 21 875 l 21 917 l 404 917 q 664 864 549 917 q 779 661 779 811 q 554 431 779 488 l 700 188 q 872 35 782 50 l 872 0 q 832 -10 861 -6 q 778 -14 803 -14 m 397 475 q 530 522 475 475 q 585 668 585 568 q 531 814 585 767 q 404 861 476 861 q 342 856 364 861 l 314 851 l 314 475 l 397 475 z "},"S":{"ha":779,"x_min":65,"x_max":728,"o":"m 379 -24 q 229 -3 301 -24 q 111 55 157 17 q 65 143 65 93 l 65 306 l 104 306 q 192 101 125 164 q 378 39 258 39 q 506 74 458 39 q 553 174 553 108 q 518 268 553 229 q 410 353 483 307 l 239 456 q 106 568 146 510 q 67 704 67 626 q 151 878 67 814 q 378 942 235 942 q 528 922 456 942 q 646 863 600 901 q 692 775 692 825 l 692 613 l 653 613 q 565 817 629 754 q 393 879 501 879 q 274 843 318 879 q 231 744 231 807 q 265 655 231 690 q 375 575 299 619 l 546 474 q 685 363 643 417 q 728 235 728 310 q 637 45 728 114 q 379 -24 546 -24 z "},"Š":{"ha":779,"x_min":65,"x_max":728,"o":"m 379 -24 q 229 -3 301 -24 q 111 55 157 17 q 65 143 65 93 l 65 306 l 104 306 q 192 101 125 164 q 378 39 258 39 q 506 74 458 39 q 553 174 553 108 q 518 268 553 229 q 410 353 483 307 l 239 456 q 106 568 146 510 q 67 704 67 626 q 151 878 67 814 q 378 942 235 942 q 528 922 456 942 q 646 863 600 901 q 692 775 692 825 l 692 613 l 653 613 q 565 817 629 754 q 393 879 501 879 q 274 843 318 879 q 231 744 231 807 q 265 655 231 690 q 375 575 299 619 l 546 474 q 685 363 643 417 q 728 235 728 310 q 637 45 728 114 q 379 -24 546 -24 m 281 1001 l 169 1175 l 267 1175 l 371 1064 l 475 1175 l 572 1175 l 461 1001 l 281 1001 z "},"Ş":{"ha":782,"x_min":67,"x_max":729,"o":"m 328 -222 l 397 -222 q 438 -209 422 -222 q 453 -178 453 -196 q 438 -144 453 -157 q 397 -132 422 -132 l 335 -132 l 335 -21 q 144 31 222 -12 q 67 143 67 75 l 67 306 l 106 306 q 193 101 126 164 q 379 39 260 39 q 507 74 460 39 q 554 174 554 108 q 519 268 554 229 q 411 353 485 307 l 240 456 q 108 568 147 510 q 68 704 68 626 q 152 878 68 814 q 379 942 236 942 q 529 922 457 942 q 647 863 601 901 q 693 775 693 825 l 693 613 l 654 613 q 567 817 631 754 q 394 879 503 879 q 276 843 319 879 q 232 744 232 807 q 266 655 232 690 q 376 575 300 619 l 547 474 q 687 363 644 417 q 729 235 729 310 q 650 55 729 122 q 425 -22 571 -12 l 425 -69 q 517 -99 483 -69 q 550 -178 550 -128 q 517 -257 550 -228 q 425 -286 483 -286 l 328 -286 l 328 -222 z "},"T":{"ha":799,"x_min":22,"x_max":793,"o":"m 322 854 l 224 854 q 105 815 146 854 q 64 688 64 776 l 22 688 l 22 806 q 140 917 22 917 l 793 917 l 793 854 l 503 854 l 503 0 l 322 0 l 322 854 z "},"U":{"ha":964,"x_min":31,"x_max":871,"o":"m 503 -14 q 128 400 128 -14 l 128 736 q 108 841 128 807 q 31 875 89 875 l 31 917 l 183 917 q 260 900 233 917 q 297 845 286 883 q 308 736 308 807 l 310 358 q 367 130 311 211 q 531 49 424 49 q 737 133 672 49 q 801 400 801 217 l 801 917 l 871 917 l 871 400 q 785 91 871 196 q 503 -14 699 -14 z "},"Ú":{"ha":965,"x_min":31,"x_max":871,"o":"m 503 -14 q 128 400 128 -14 l 128 736 q 108 841 128 807 q 31 875 89 875 l 31 917 l 183 917 q 260 900 233 917 q 297 845 286 883 q 308 736 308 807 l 310 358 q 367 130 311 211 q 531 49 424 49 q 737 133 672 49 q 801 400 801 217 l 801 917 l 871 917 l 871 400 q 785 91 871 196 q 503 -14 699 -14 m 468 946 l 526 1140 l 692 1140 l 544 946 l 468 946 z "},"Û":{"ha":965,"x_min":31,"x_max":871,"o":"m 503 -14 q 128 400 128 -14 l 128 736 q 108 841 128 807 q 31 875 89 875 l 31 917 l 183 917 q 260 900 233 917 q 297 845 286 883 q 308 736 308 807 l 310 358 q 367 130 311 211 q 531 49 424 49 q 737 133 672 49 q 801 400 801 217 l 801 917 l 871 917 l 871 400 q 785 91 871 196 q 503 -14 699 -14 m 338 946 l 449 1119 l 629 1119 l 740 946 l 657 946 l 539 1057 l 421 946 l 338 946 z "},"Ü":{"ha":965,"x_min":31,"x_max":871,"o":"m 503 -14 q 128 400 128 -14 l 128 736 q 108 841 128 807 q 31 875 89 875 l 31 917 l 183 917 q 260 900 233 917 q 297 845 286 883 q 308 736 308 807 l 310 358 q 367 130 311 211 q 531 49 424 49 q 737 133 672 49 q 801 400 801 217 l 801 917 l 871 917 l 871 400 q 785 91 871 196 q 503 -14 699 -14 m 407 946 q 350 968 371 946 q 329 1024 329 990 q 350 1079 329 1057 q 407 1101 371 1101 q 464 1079 443 1101 q 485 1024 485 1057 q 464 968 485 990 q 407 946 443 946 m 657 946 q 600 968 621 946 q 579 1024 579 990 q 600 1079 579 1057 q 657 1101 621 1101 q 714 1079 693 1101 q 735 1024 735 1057 q 714 968 735 990 q 657 946 693 946 z "},"Ụ":{"ha":964,"x_min":31,"x_max":871,"o":"m 503 -14 q 128 400 128 -14 l 128 736 q 108 841 128 807 q 31 875 89 875 l 31 917 l 183 917 q 260 900 233 917 q 297 845 286 883 q 308 736 308 807 l 310 358 q 367 130 311 211 q 531 49 424 49 q 737 133 672 49 q 801 400 801 217 l 801 917 l 871 917 l 871 400 q 785 91 871 196 q 503 -14 699 -14 m 482 -240 q 431 -221 449 -240 q 413 -169 413 -201 q 431 -119 413 -139 q 482 -100 450 -100 q 534 -119 515 -100 q 553 -169 553 -139 q 534 -221 553 -201 q 482 -240 515 -240 z "},"Ù":{"ha":964,"x_min":31,"x_max":871,"o":"m 503 -14 q 128 400 128 -14 l 128 736 q 108 841 128 807 q 31 875 89 875 l 31 917 l 183 917 q 260 900 233 917 q 297 845 286 883 q 308 736 308 807 l 310 358 q 367 130 311 211 q 531 49 424 49 q 737 133 672 49 q 801 400 801 217 l 801 917 l 871 917 l 871 400 q 785 91 871 196 q 503 -14 699 -14 m 475 979 l 328 1174 l 493 1174 l 551 979 l 475 979 z "},"Ủ":{"ha":964,"x_min":31,"x_max":871,"o":"m 503 -14 q 128 400 128 -14 l 128 736 q 108 841 128 807 q 31 875 89 875 l 31 917 l 183 917 q 260 900 233 917 q 297 845 286 883 q 308 736 308 807 l 310 358 q 367 130 311 211 q 531 49 424 49 q 737 133 672 49 q 801 400 801 217 l 801 917 l 871 917 l 871 400 q 785 91 871 196 q 503 -14 699 -14 m 482 988 q 489 1025 483 1010 q 507 1061 494 1040 q 528 1118 528 1093 q 515 1146 528 1135 q 482 1157 501 1157 q 443 1142 457 1157 q 422 1085 429 1128 l 346 1086 q 378 1203 346 1164 q 482 1243 410 1243 q 583 1211 547 1243 q 619 1131 619 1179 q 611 1092 619 1108 q 588 1058 603 1076 q 563 1023 571 1038 q 554 988 556 1008 l 482 988 z "},"Ư":{"ha":964,"x_min":31,"x_max":1061,"o":"m 1061 1060 q 1012 933 1061 992 q 871 860 963 875 l 871 400 q 785 91 871 196 q 503 -14 699 -14 q 128 400 128 -14 l 128 736 q 108 841 128 807 q 31 875 89 875 l 31 917 l 183 917 q 260 900 233 917 q 297 845 286 883 q 308 736 308 807 l 310 358 q 367 130 311 211 q 531 49 424 49 q 737 133 672 49 q 801 400 801 217 l 801 917 l 833 917 q 921 966 892 925 q 950 1060 950 1007 l 1061 1060 z "},"Ứ":{"ha":964,"x_min":31,"x_max":1061,"o":"m 1061 1060 q 1012 933 1061 992 q 871 860 963 875 l 871 400 q 785 91 871 196 q 503 -14 699 -14 q 128 400 128 -14 l 128 736 q 108 841 128 807 q 31 875 89 875 l 31 917 l 183 917 q 260 900 233 917 q 297 845 286 883 q 308 736 308 807 l 310 358 q 367 130 311 211 q 531 49 424 49 q 737 133 672 49 q 801 400 801 217 l 801 917 l 833 917 q 921 966 892 925 q 950 1060 950 1007 l 1061 1060 m 439 979 l 497 1174 l 663 1174 l 515 979 l 439 979 z "},"Ự":{"ha":964,"x_min":31,"x_max":1061,"o":"m 1061 1060 q 1012 933 1061 992 q 871 860 963 875 l 871 400 q 785 91 871 196 q 503 -14 699 -14 q 128 400 128 -14 l 128 736 q 108 841 128 807 q 31 875 89 875 l 31 917 l 183 917 q 260 900 233 917 q 297 845 286 883 q 308 736 308 807 l 310 358 q 367 130 311 211 q 531 49 424 49 q 737 133 672 49 q 801 400 801 217 l 801 917 l 833 917 q 921 966 892 925 q 950 1060 950 1007 l 1061 1060 m 482 -240 q 431 -221 449 -240 q 413 -169 413 -201 q 431 -119 413 -139 q 482 -100 450 -100 q 534 -119 515 -100 q 553 -169 553 -139 q 534 -221 553 -201 q 482 -240 515 -240 z "},"Ừ":{"ha":964,"x_min":31,"x_max":1061,"o":"m 1061 1060 q 1012 933 1061 992 q 871 860 963 875 l 871 400 q 785 91 871 196 q 503 -14 699 -14 q 128 400 128 -14 l 128 736 q 108 841 128 807 q 31 875 89 875 l 31 917 l 183 917 q 260 900 233 917 q 297 845 286 883 q 308 736 308 807 l 310 358 q 367 130 311 211 q 531 49 424 49 q 737 133 672 49 q 801 400 801 217 l 801 917 l 833 917 q 921 966 892 925 q 950 1060 950 1007 l 1061 1060 m 475 979 l 328 1174 l 493 1174 l 551 979 l 475 979 z "},"Ử":{"ha":964,"x_min":31,"x_max":1061,"o":"m 1061 1060 q 1012 933 1061 992 q 871 860 963 875 l 871 400 q 785 91 871 196 q 503 -14 699 -14 q 128 400 128 -14 l 128 736 q 108 841 128 807 q 31 875 89 875 l 31 917 l 183 917 q 260 900 233 917 q 297 845 286 883 q 308 736 308 807 l 310 358 q 367 130 311 211 q 531 49 424 49 q 737 133 672 49 q 801 400 801 217 l 801 917 l 833 917 q 921 966 892 925 q 950 1060 950 1007 l 1061 1060 m 482 988 q 489 1025 483 1010 q 507 1061 494 1040 q 528 1118 528 1093 q 515 1146 528 1135 q 482 1157 501 1157 q 443 1142 457 1157 q 422 1085 429 1128 l 346 1086 q 378 1203 346 1164 q 482 1243 410 1243 q 583 1211 547 1243 q 619 1131 619 1179 q 611 1092 619 1108 q 588 1058 603 1076 q 563 1023 571 1038 q 554 988 556 1008 l 482 988 z "},"Ữ":{"ha":964,"x_min":31,"x_max":1061,"o":"m 1061 1060 q 1012 933 1061 992 q 871 860 963 875 l 871 400 q 785 91 871 196 q 503 -14 699 -14 q 128 400 128 -14 l 128 736 q 108 841 128 807 q 31 875 89 875 l 31 917 l 183 917 q 260 900 233 917 q 297 845 286 883 q 308 736 308 807 l 310 358 q 367 130 311 211 q 531 49 424 49 q 737 133 672 49 q 801 400 801 217 l 801 917 l 833 917 q 921 966 892 925 q 950 1060 950 1007 l 1061 1060 m 318 1028 q 342 1136 318 1106 q 413 1167 367 1167 q 453 1158 436 1167 q 493 1133 471 1149 q 511 1121 496 1131 q 540 1111 526 1111 q 576 1128 563 1111 q 589 1167 589 1144 l 644 1167 q 621 1058 644 1089 q 551 1028 597 1028 q 513 1036 529 1028 q 471 1061 496 1044 q 446 1076 458 1069 q 422 1083 433 1083 q 387 1067 400 1083 q 374 1028 374 1050 l 318 1028 z "},"Ũ":{"ha":964,"x_min":31,"x_max":871,"o":"m 503 -14 q 128 400 128 -14 l 128 736 q 108 841 128 807 q 31 875 89 875 l 31 917 l 183 917 q 260 900 233 917 q 297 845 286 883 q 308 736 308 807 l 310 358 q 367 130 311 211 q 531 49 424 49 q 737 133 672 49 q 801 400 801 217 l 801 917 l 871 917 l 871 400 q 785 91 871 196 q 503 -14 699 -14 m 318 1028 q 342 1136 318 1106 q 413 1167 367 1167 q 453 1158 436 1167 q 493 1133 471 1149 q 511 1121 496 1131 q 540 1111 526 1111 q 576 1128 563 1111 q 589 1167 589 1144 l 644 1167 q 621 1058 644 1089 q 551 1028 597 1028 q 513 1036 529 1028 q 471 1061 496 1044 q 446 1076 458 1069 q 422 1083 433 1083 q 387 1067 400 1083 q 374 1028 374 1050 l 318 1028 z "},"V":{"ha":882,"x_min":-46,"x_max":871,"o":"m 92 754 q 28 863 60 831 q -46 900 -3 894 l -46 928 l 13 931 q 174 896 104 931 q 288 754 243 861 l 507 235 l 800 917 l 871 917 l 471 -14 l 415 -14 l 92 754 z "},"W":{"ha":1258,"x_min":-53,"x_max":1229,"o":"m 85 754 q 22 863 54 831 q -53 900 -10 894 l -53 928 l 6 931 q 168 897 99 931 q 281 754 238 863 l 468 275 l 593 631 l 544 754 q 478 862 514 829 q 397 900 443 894 l 397 928 l 451 931 q 614 896 544 931 q 726 754 683 861 l 925 249 l 1163 917 l 1229 917 l 900 -12 l 844 -12 l 631 532 l 440 -12 l 385 -12 l 85 754 z "},"X":{"ha":899,"x_min":-18,"x_max":926,"o":"m 365 432 l 168 736 q 79 839 132 794 q -18 889 26 883 l -18 917 l 135 917 q 263 872 206 917 q 361 764 321 828 l 482 578 l 750 917 l 840 917 l 522 515 l 740 181 q 829 78 776 122 q 926 28 882 33 l 926 0 l 774 0 q 645 44 703 0 q 547 153 588 89 l 407 369 l 114 0 l 24 0 l 365 432 z "},"Y":{"ha":886,"x_min":-43,"x_max":883,"o":"m 388 367 l 142 736 q 51 840 100 796 q -43 889 1 885 l -43 917 l 108 917 q 237 872 179 917 q 335 764 294 828 l 524 479 l 793 917 l 883 917 l 568 404 l 568 0 l 388 0 l 388 367 z "},"Ý":{"ha":886,"x_min":-43,"x_max":883,"o":"m 388 367 l 142 736 q 51 840 100 796 q -43 889 1 885 l -43 917 l 108 917 q 237 872 179 917 q 335 764 294 828 l 524 479 l 793 917 l 883 917 l 568 404 l 568 0 l 388 0 l 388 367 m 442 931 l 500 1125 l 665 1125 l 518 931 l 442 931 z "},"Ÿ":{"ha":886,"x_min":-43,"x_max":883,"o":"m 388 367 l 142 736 q 51 840 100 796 q -43 889 1 885 l -43 917 l 108 917 q 237 872 179 917 q 335 764 294 828 l 524 479 l 793 917 l 883 917 l 568 404 l 568 0 l 388 0 l 388 367 m 378 958 q 321 981 342 958 q 300 1036 300 1003 q 321 1092 300 1069 q 378 1114 342 1114 q 435 1092 414 1114 q 456 1036 456 1069 q 435 981 456 1003 q 378 958 414 958 m 614 958 q 557 981 578 958 q 536 1036 536 1003 q 557 1092 536 1069 q 614 1114 578 1114 q 671 1092 650 1114 q 692 1036 692 1069 q 671 981 692 1003 q 614 958 650 958 z "},"Ỵ":{"ha":886,"x_min":-43,"x_max":883,"o":"m 388 367 l 142 736 q 51 840 100 796 q -43 889 1 885 l -43 917 l 108 917 q 237 872 179 917 q 335 764 294 828 l 524 479 l 793 917 l 883 917 l 568 404 l 568 0 l 388 0 l 388 367 m 443 -240 q 392 -221 410 -240 q 374 -169 374 -201 q 392 -119 374 -139 q 443 -100 411 -100 q 495 -119 476 -100 q 514 -169 514 -139 q 495 -221 514 -201 q 443 -240 476 -240 z "},"Ỳ":{"ha":886,"x_min":-43,"x_max":883,"o":"m 388 367 l 142 736 q 51 840 100 796 q -43 889 1 885 l -43 917 l 108 917 q 237 872 179 917 q 335 764 294 828 l 524 479 l 793 917 l 883 917 l 568 404 l 568 0 l 388 0 l 388 367 m 436 979 l 289 1174 l 454 1174 l 513 979 l 436 979 z "},"Ỷ":{"ha":886,"x_min":-43,"x_max":883,"o":"m 388 367 l 142 736 q 51 840 100 796 q -43 889 1 885 l -43 917 l 108 917 q 237 872 179 917 q 335 764 294 828 l 524 479 l 793 917 l 883 917 l 568 404 l 568 0 l 388 0 l 388 367 m 443 988 q 450 1025 444 1010 q 468 1061 456 1040 q 489 1118 489 1093 q 476 1146 489 1135 q 443 1157 463 1157 q 404 1142 418 1157 q 383 1085 390 1128 l 307 1086 q 339 1203 307 1164 q 443 1243 371 1243 q 544 1211 508 1243 q 581 1131 581 1179 q 572 1092 581 1108 q 549 1058 564 1076 q 524 1023 532 1038 q 515 988 517 1008 l 443 988 z "},"Ỹ":{"ha":886,"x_min":-43,"x_max":883,"o":"m 388 367 l 142 736 q 51 840 100 796 q -43 889 1 885 l -43 917 l 108 917 q 237 872 179 917 q 335 764 294 828 l 524 479 l 793 917 l 883 917 l 568 404 l 568 0 l 388 0 l 388 367 m 279 1028 q 303 1136 279 1106 q 374 1167 328 1167 q 415 1158 397 1167 q 454 1133 432 1149 q 472 1121 457 1131 q 501 1111 488 1111 q 537 1128 524 1111 q 550 1167 550 1144 l 606 1167 q 582 1058 606 1089 q 513 1028 558 1028 q 474 1036 490 1028 q 432 1061 457 1044 q 407 1076 419 1069 q 383 1083 394 1083 q 348 1067 361 1083 q 335 1028 335 1050 l 279 1028 z "},"Z":{"ha":832,"x_min":43,"x_max":807,"o":"m 43 44 l 560 856 l 258 856 q 140 816 181 856 q 99 688 99 776 l 57 688 l 57 806 q 175 917 57 917 l 807 917 l 263 63 l 800 63 l 800 0 l 43 0 l 43 44 z "},"Ž":{"ha":817,"x_min":43,"x_max":807,"o":"m 43 44 l 560 856 l 258 856 q 140 816 181 856 q 99 688 99 776 l 57 688 l 57 806 q 175 917 57 917 l 807 917 l 263 63 l 800 63 l 800 0 l 43 0 l 43 44 m 347 988 l 236 1161 l 333 1161 l 438 1050 l 542 1161 l 639 1161 l 528 988 l 347 988 z "},"a":{"ha":689,"x_min":40,"x_max":617,"o":"m 276 -14 q 102 37 164 -14 q 40 174 40 88 q 73 289 40 243 q 188 358 106 335 q 415 382 269 382 l 436 382 q 403 553 436 503 q 304 604 369 604 q 215 578 250 604 q 165 479 181 551 l 89 479 q 95 560 89 526 q 124 618 101 593 q 332 667 167 667 q 544 594 471 667 q 617 375 617 521 l 617 0 l 499 0 l 450 63 l 443 63 q 404 24 431 43 q 276 -14 357 -14 m 318 56 q 368 67 347 56 q 408 100 389 79 q 436 146 426 119 l 436 319 l 415 319 q 272 284 317 319 q 228 174 228 249 q 251 86 228 117 q 318 56 275 56 z "},"á":{"ha":689,"x_min":40,"x_max":617,"o":"m 276 -14 q 102 37 164 -14 q 40 174 40 88 q 73 289 40 243 q 188 358 106 335 q 415 382 269 382 l 436 382 q 403 553 436 503 q 304 604 369 604 q 215 578 250 604 q 165 479 181 551 l 89 479 q 95 560 89 526 q 124 618 101 593 q 332 667 167 667 q 544 594 471 667 q 617 375 617 521 l 617 0 l 499 0 l 450 63 l 443 63 q 404 24 431 43 q 276 -14 357 -14 m 318 56 q 368 67 347 56 q 408 100 389 79 q 436 146 426 119 l 436 319 l 415 319 q 272 284 317 319 q 228 174 228 249 q 251 86 228 117 q 318 56 275 56 m 279 731 l 338 925 l 503 925 l 356 731 l 279 731 z "},"ă":{"ha":689,"x_min":40,"x_max":617,"o":"m 276 -14 q 102 37 164 -14 q 40 174 40 88 q 73 289 40 243 q 188 358 106 335 q 415 382 269 382 l 436 382 q 403 553 436 503 q 304 604 369 604 q 215 578 250 604 q 165 479 181 551 l 89 479 q 95 560 89 526 q 124 618 101 593 q 332 667 167 667 q 544 594 471 667 q 617 375 617 521 l 617 0 l 499 0 l 450 63 l 443 63 q 404 24 431 43 q 276 -14 357 -14 m 318 56 q 368 67 347 56 q 408 100 389 79 q 436 146 426 119 l 436 319 l 415 319 q 272 284 317 319 q 228 174 228 249 q 251 86 228 117 q 318 56 275 56 m 344 694 q 226 730 278 694 q 149 825 175 765 l 188 854 q 251 805 211 825 q 344 785 290 785 q 438 805 399 785 q 501 854 478 825 l 540 825 q 463 730 514 765 q 344 694 411 694 z "},"ắ":{"ha":689,"x_min":40,"x_max":617,"o":"m 276 -14 q 102 37 164 -14 q 40 174 40 88 q 73 289 40 243 q 188 358 106 335 q 415 382 269 382 l 436 382 q 403 553 436 503 q 304 604 369 604 q 215 578 250 604 q 165 479 181 551 l 89 479 q 95 560 89 526 q 124 618 101 593 q 332 667 167 667 q 544 594 471 667 q 617 375 617 521 l 617 0 l 499 0 l 450 63 l 443 63 q 404 24 431 43 q 276 -14 357 -14 m 318 56 q 368 67 347 56 q 408 100 389 79 q 436 146 426 119 l 436 319 l 415 319 q 272 284 317 319 q 228 174 228 249 q 251 86 228 117 q 318 56 275 56 m 344 694 q 226 730 278 694 q 149 825 175 765 l 188 854 q 251 805 211 825 q 344 785 290 785 q 438 805 399 785 q 501 854 478 825 l 540 825 q 463 730 514 765 q 344 694 411 694 m 301 917 l 360 1111 l 525 1111 l 378 917 l 301 917 z "},"ặ":{"ha":689,"x_min":40,"x_max":617,"o":"m 276 -14 q 102 37 164 -14 q 40 174 40 88 q 73 289 40 243 q 188 358 106 335 q 415 382 269 382 l 436 382 q 403 553 436 503 q 304 604 369 604 q 215 578 250 604 q 165 479 181 551 l 89 479 q 95 560 89 526 q 124 618 101 593 q 332 667 167 667 q 544 594 471 667 q 617 375 617 521 l 617 0 l 499 0 l 450 63 l 443 63 q 404 24 431 43 q 276 -14 357 -14 m 318 56 q 368 67 347 56 q 408 100 389 79 q 436 146 426 119 l 436 319 l 415 319 q 272 284 317 319 q 228 174 228 249 q 251 86 228 117 q 318 56 275 56 m 344 -240 q 293 -221 311 -240 q 275 -169 275 -201 q 294 -119 275 -139 q 344 -100 313 -100 q 397 -119 378 -100 q 415 -169 415 -139 q 397 -221 415 -201 q 344 -240 378 -240 m 344 694 q 226 730 278 694 q 149 825 175 765 l 188 854 q 251 805 211 825 q 344 785 290 785 q 438 805 399 785 q 501 854 478 825 l 540 825 q 463 730 514 765 q 344 694 411 694 z "},"ằ":{"ha":689,"x_min":40,"x_max":617,"o":"m 276 -14 q 102 37 164 -14 q 40 174 40 88 q 73 289 40 243 q 188 358 106 335 q 415 382 269 382 l 436 382 q 403 553 436 503 q 304 604 369 604 q 215 578 250 604 q 165 479 181 551 l 89 479 q 95 560 89 526 q 124 618 101 593 q 332 667 167 667 q 544 594 471 667 q 617 375 617 521 l 617 0 l 499 0 l 450 63 l 443 63 q 404 24 431 43 q 276 -14 357 -14 m 318 56 q 368 67 347 56 q 408 100 389 79 q 436 146 426 119 l 436 319 l 415 319 q 272 284 317 319 q 228 174 228 249 q 251 86 228 117 q 318 56 275 56 m 344 694 q 226 730 278 694 q 149 825 175 765 l 188 854 q 251 805 211 825 q 344 785 290 785 q 438 805 399 785 q 501 854 478 825 l 540 825 q 463 730 514 765 q 344 694 411 694 m 338 917 l 190 1111 l 356 1111 l 414 917 l 338 917 z "},"ẳ":{"ha":689,"x_min":40,"x_max":617,"o":"m 276 -14 q 102 37 164 -14 q 40 174 40 88 q 73 289 40 243 q 188 358 106 335 q 415 382 269 382 l 436 382 q 403 553 436 503 q 304 604 369 604 q 215 578 250 604 q 165 479 181 551 l 89 479 q 95 560 89 526 q 124 618 101 593 q 332 667 167 667 q 544 594 471 667 q 617 375 617 521 l 617 0 l 499 0 l 450 63 l 443 63 q 404 24 431 43 q 276 -14 357 -14 m 318 56 q 368 67 347 56 q 408 100 389 79 q 436 146 426 119 l 436 319 l 415 319 q 272 284 317 319 q 228 174 228 249 q 251 86 228 117 q 318 56 275 56 m 344 694 q 226 730 278 694 q 149 825 175 765 l 188 854 q 251 805 211 825 q 344 785 290 785 q 438 805 399 785 q 501 854 478 825 l 540 825 q 463 730 514 765 q 344 694 411 694 m 319 864 q 326 901 321 886 q 344 938 332 917 q 365 994 365 969 q 352 1022 365 1011 q 319 1033 339 1033 q 281 1019 294 1033 q 260 961 267 1004 l 183 963 q 215 1080 183 1040 q 319 1119 247 1119 q 421 1088 385 1119 q 457 1007 457 1056 q 449 969 457 985 q 425 935 440 953 q 401 899 408 914 q 392 864 393 885 l 319 864 z "},"ẵ":{"ha":689,"x_min":40,"x_max":617,"o":"m 276 -14 q 102 37 164 -14 q 40 174 40 88 q 73 289 40 243 q 188 358 106 335 q 415 382 269 382 l 436 382 q 403 553 436 503 q 304 604 369 604 q 215 578 250 604 q 165 479 181 551 l 89 479 q 95 560 89 526 q 124 618 101 593 q 332 667 167 667 q 544 594 471 667 q 617 375 617 521 l 617 0 l 499 0 l 450 63 l 443 63 q 404 24 431 43 q 276 -14 357 -14 m 318 56 q 368 67 347 56 q 408 100 389 79 q 436 146 426 119 l 436 319 l 415 319 q 272 284 317 319 q 228 174 228 249 q 251 86 228 117 q 318 56 275 56 m 344 694 q 226 730 278 694 q 149 825 175 765 l 188 854 q 251 805 211 825 q 344 785 290 785 q 438 805 399 785 q 501 854 478 825 l 540 825 q 463 730 514 765 q 344 694 411 694 m 181 965 q 205 1074 181 1043 q 275 1104 229 1104 q 316 1095 299 1104 q 356 1071 333 1086 q 374 1058 358 1068 q 403 1049 389 1049 q 438 1065 425 1049 q 451 1104 451 1082 l 507 1104 q 483 996 507 1026 q 414 965 460 965 q 375 974 392 965 q 333 999 358 982 q 308 1014 321 1007 q 285 1021 296 1021 q 249 1004 263 1021 q 236 965 236 988 l 181 965 z "},"â":{"ha":689,"x_min":40,"x_max":617,"o":"m 276 -14 q 102 37 164 -14 q 40 174 40 88 q 73 289 40 243 q 188 358 106 335 q 415 382 269 382 l 436 382 q 403 553 436 503 q 304 604 369 604 q 215 578 250 604 q 165 479 181 551 l 89 479 q 95 560 89 526 q 124 618 101 593 q 332 667 167 667 q 544 594 471 667 q 617 375 617 521 l 617 0 l 499 0 l 450 63 l 443 63 q 404 24 431 43 q 276 -14 357 -14 m 318 56 q 368 67 347 56 q 408 100 389 79 q 436 146 426 119 l 436 319 l 415 319 q 272 284 317 319 q 228 174 228 249 q 251 86 228 117 q 318 56 275 56 m 146 738 l 257 911 l 438 911 l 549 738 l 465 738 l 347 849 l 229 738 l 146 738 z "},"ấ":{"ha":689,"x_min":40,"x_max":746,"o":"m 276 -14 q 102 37 164 -14 q 40 174 40 88 q 73 289 40 243 q 188 358 106 335 q 415 382 269 382 l 436 382 q 403 553 436 503 q 304 604 369 604 q 215 578 250 604 q 165 479 181 551 l 89 479 q 95 560 89 526 q 124 618 101 593 q 332 667 167 667 q 544 594 471 667 q 617 375 617 521 l 617 0 l 499 0 l 450 63 l 443 63 q 404 24 431 43 q 276 -14 357 -14 m 318 56 q 368 67 347 56 q 408 100 389 79 q 436 146 426 119 l 436 319 l 415 319 q 272 284 317 319 q 228 174 228 249 q 251 86 228 117 q 318 56 275 56 m 143 729 l 254 903 l 435 903 l 546 729 l 463 729 l 344 840 l 226 729 l 143 729 m 522 822 l 581 1017 l 746 1017 l 599 822 l 522 822 z "},"ậ":{"ha":689,"x_min":40,"x_max":617,"o":"m 276 -14 q 102 37 164 -14 q 40 174 40 88 q 73 289 40 243 q 188 358 106 335 q 415 382 269 382 l 436 382 q 403 553 436 503 q 304 604 369 604 q 215 578 250 604 q 165 479 181 551 l 89 479 q 95 560 89 526 q 124 618 101 593 q 332 667 167 667 q 544 594 471 667 q 617 375 617 521 l 617 0 l 499 0 l 450 63 l 443 63 q 404 24 431 43 q 276 -14 357 -14 m 318 56 q 368 67 347 56 q 408 100 389 79 q 436 146 426 119 l 436 319 l 415 319 q 272 284 317 319 q 228 174 228 249 q 251 86 228 117 q 318 56 275 56 m 344 -240 q 293 -221 311 -240 q 275 -169 275 -201 q 294 -119 275 -139 q 344 -100 313 -100 q 397 -119 378 -100 q 415 -169 415 -139 q 397 -221 415 -201 q 344 -240 378 -240 m 143 729 l 254 903 l 435 903 l 546 729 l 463 729 l 344 840 l 226 729 l 143 729 z "},"ầ":{"ha":689,"x_min":40,"x_max":617,"o":"m 276 -14 q 102 37 164 -14 q 40 174 40 88 q 73 289 40 243 q 188 358 106 335 q 415 382 269 382 l 436 382 q 403 553 436 503 q 304 604 369 604 q 215 578 250 604 q 165 479 181 551 l 89 479 q 95 560 89 526 q 124 618 101 593 q 332 667 167 667 q 544 594 471 667 q 617 375 617 521 l 617 0 l 499 0 l 450 63 l 443 63 q 404 24 431 43 q 276 -14 357 -14 m 318 56 q 368 67 347 56 q 408 100 389 79 q 436 146 426 119 l 436 319 l 415 319 q 272 284 317 319 q 228 174 228 249 q 251 86 228 117 q 318 56 275 56 m 143 729 l 254 903 l 435 903 l 546 729 l 463 729 l 344 840 l 226 729 l 143 729 m 539 850 l 392 1044 l 557 1044 l 615 850 l 539 850 z "},"ẩ":{"ha":689,"x_min":40,"x_max":664,"o":"m 276 -14 q 102 37 164 -14 q 40 174 40 88 q 73 289 40 243 q 188 358 106 335 q 415 382 269 382 l 436 382 q 403 553 436 503 q 304 604 369 604 q 215 578 250 604 q 165 479 181 551 l 89 479 q 95 560 89 526 q 124 618 101 593 q 332 667 167 667 q 544 594 471 667 q 617 375 617 521 l 617 0 l 499 0 l 450 63 l 443 63 q 404 24 431 43 q 276 -14 357 -14 m 318 56 q 368 67 347 56 q 408 100 389 79 q 436 146 426 119 l 436 319 l 415 319 q 272 284 317 319 q 228 174 228 249 q 251 86 228 117 q 318 56 275 56 m 143 729 l 254 903 l 435 903 l 546 729 l 463 729 l 344 840 l 226 729 l 143 729 m 526 858 q 533 896 528 881 q 551 932 539 911 q 572 989 572 964 q 559 1017 572 1006 q 526 1028 546 1028 q 488 1013 501 1028 q 467 956 474 999 l 390 957 q 422 1074 390 1035 q 526 1114 454 1114 q 628 1082 592 1114 q 664 1001 664 1050 q 656 963 664 979 q 632 929 647 947 q 608 894 615 908 q 599 858 600 879 l 526 858 z "},"ẫ":{"ha":689,"x_min":40,"x_max":617,"o":"m 276 -14 q 102 37 164 -14 q 40 174 40 88 q 73 289 40 243 q 188 358 106 335 q 415 382 269 382 l 436 382 q 403 553 436 503 q 304 604 369 604 q 215 578 250 604 q 165 479 181 551 l 89 479 q 95 560 89 526 q 124 618 101 593 q 332 667 167 667 q 544 594 471 667 q 617 375 617 521 l 617 0 l 499 0 l 450 63 l 443 63 q 404 24 431 43 q 276 -14 357 -14 m 318 56 q 368 67 347 56 q 408 100 389 79 q 436 146 426 119 l 436 319 l 415 319 q 272 284 317 319 q 228 174 228 249 q 251 86 228 117 q 318 56 275 56 m 143 729 l 254 903 l 435 903 l 546 729 l 463 729 l 344 840 l 226 729 l 143 729 m 181 939 q 205 1047 181 1017 q 275 1078 229 1078 q 316 1069 299 1078 q 356 1044 333 1060 q 374 1032 358 1042 q 403 1022 389 1022 q 438 1039 425 1022 q 451 1078 451 1056 l 507 1078 q 483 969 507 1000 q 414 939 460 939 q 375 947 392 939 q 333 972 358 956 q 308 988 321 981 q 285 994 296 994 q 249 978 263 994 q 236 939 236 961 l 181 939 z "},"ä":{"ha":689,"x_min":40,"x_max":660,"o":"m 276 -14 q 102 37 164 -14 q 40 174 40 88 q 73 289 40 243 q 188 358 106 335 q 415 382 269 382 l 436 382 q 403 553 436 503 q 304 604 369 604 q 215 578 250 604 q 165 479 181 551 l 89 479 q 95 560 89 526 q 124 618 101 593 q 332 667 167 667 q 544 594 471 667 q 617 375 617 521 l 617 0 l 499 0 l 450 63 l 443 63 q 404 24 431 43 q 276 -14 357 -14 m 318 56 q 368 67 347 56 q 408 100 389 79 q 436 146 426 119 l 436 319 l 415 319 q 272 284 317 319 q 228 174 228 249 q 251 86 228 117 q 318 56 275 56 m 332 743 q 275 765 296 743 q 254 821 254 788 q 275 876 254 854 q 332 899 296 899 q 389 876 368 899 q 410 821 410 854 q 389 765 410 788 q 332 743 368 743 m 582 743 q 525 765 546 743 q 504 821 504 788 q 525 876 504 854 q 582 899 546 899 q 639 876 618 899 q 660 821 660 854 q 639 765 660 788 q 582 743 618 743 z "},"ạ":{"ha":689,"x_min":40,"x_max":617,"o":"m 276 -14 q 102 37 164 -14 q 40 174 40 88 q 73 289 40 243 q 188 358 106 335 q 415 382 269 382 l 436 382 q 403 553 436 503 q 304 604 369 604 q 215 578 250 604 q 165 479 181 551 l 89 479 q 95 560 89 526 q 124 618 101 593 q 332 667 167 667 q 544 594 471 667 q 617 375 617 521 l 617 0 l 499 0 l 450 63 l 443 63 q 404 24 431 43 q 276 -14 357 -14 m 318 56 q 368 67 347 56 q 408 100 389 79 q 436 146 426 119 l 436 319 l 415 319 q 272 284 317 319 q 228 174 228 249 q 251 86 228 117 q 318 56 275 56 m 344 -240 q 293 -221 311 -240 q 275 -169 275 -201 q 294 -119 275 -139 q 344 -100 313 -100 q 397 -119 378 -100 q 415 -169 415 -139 q 397 -221 415 -201 q 344 -240 378 -240 z "},"à":{"ha":689,"x_min":40,"x_max":617,"o":"m 276 -14 q 102 37 164 -14 q 40 174 40 88 q 73 289 40 243 q 188 358 106 335 q 415 382 269 382 l 436 382 q 403 553 436 503 q 304 604 369 604 q 215 578 250 604 q 165 479 181 551 l 89 479 q 95 560 89 526 q 124 618 101 593 q 332 667 167 667 q 544 594 471 667 q 617 375 617 521 l 617 0 l 499 0 l 450 63 l 443 63 q 404 24 431 43 q 276 -14 357 -14 m 318 56 q 368 67 347 56 q 408 100 389 79 q 436 146 426 119 l 436 319 l 415 319 q 272 284 317 319 q 228 174 228 249 q 251 86 228 117 q 318 56 275 56 m 338 715 l 190 910 l 356 910 l 414 715 l 338 715 z "},"ả":{"ha":689,"x_min":40,"x_max":617,"o":"m 276 -14 q 102 37 164 -14 q 40 174 40 88 q 73 289 40 243 q 188 358 106 335 q 415 382 269 382 l 436 382 q 403 553 436 503 q 304 604 369 604 q 215 578 250 604 q 165 479 181 551 l 89 479 q 95 560 89 526 q 124 618 101 593 q 332 667 167 667 q 544 594 471 667 q 617 375 617 521 l 617 0 l 499 0 l 450 63 l 443 63 q 404 24 431 43 q 276 -14 357 -14 m 318 56 q 368 67 347 56 q 408 100 389 79 q 436 146 426 119 l 436 319 l 415 319 q 272 284 317 319 q 228 174 228 249 q 251 86 228 117 q 318 56 275 56 m 344 724 q 351 761 346 746 q 369 797 357 776 q 390 854 390 829 q 377 882 390 871 q 344 893 364 893 q 306 878 319 893 q 285 821 292 864 l 208 822 q 240 940 208 900 q 344 979 272 979 q 446 947 410 979 q 482 867 482 915 q 474 828 482 844 q 450 794 465 813 q 426 759 433 774 q 417 724 418 744 l 344 724 z "},"å":{"ha":689,"x_min":40,"x_max":617,"o":"m 276 -14 q 102 37 164 -14 q 40 174 40 88 q 73 289 40 243 q 188 358 106 335 q 415 382 269 382 l 436 382 q 403 553 436 503 q 304 604 369 604 q 215 578 250 604 q 165 479 181 551 l 89 479 q 95 560 89 526 q 124 618 101 593 q 332 667 167 667 q 544 594 471 667 q 617 375 617 521 l 617 0 l 499 0 l 450 63 l 443 63 q 404 24 431 43 q 276 -14 357 -14 m 318 56 q 368 67 347 56 q 408 100 389 79 q 436 146 426 119 l 436 319 l 415 319 q 272 284 317 319 q 228 174 228 249 q 251 86 228 117 q 318 56 275 56 m 338 722 q 242 759 279 722 q 206 854 206 796 q 242 949 206 913 q 338 986 279 986 q 433 949 396 986 q 469 854 469 913 q 433 759 469 796 q 338 722 396 722 m 338 785 q 382 803 364 785 q 400 854 400 822 q 382 905 400 886 q 338 924 364 924 q 293 905 311 924 q 275 854 275 886 q 293 803 275 822 q 338 785 311 785 z "},"ã":{"ha":689,"x_min":40,"x_max":617,"o":"m 276 -14 q 102 37 164 -14 q 40 174 40 88 q 73 289 40 243 q 188 358 106 335 q 415 382 269 382 l 436 382 q 403 553 436 503 q 304 604 369 604 q 215 578 250 604 q 165 479 181 551 l 89 479 q 95 560 89 526 q 124 618 101 593 q 332 667 167 667 q 544 594 471 667 q 617 375 617 521 l 617 0 l 499 0 l 450 63 l 443 63 q 404 24 431 43 q 276 -14 357 -14 m 318 56 q 368 67 347 56 q 408 100 389 79 q 436 146 426 119 l 436 319 l 415 319 q 272 284 317 319 q 228 174 228 249 q 251 86 228 117 q 318 56 275 56 m 178 744 q 202 853 178 822 q 272 883 226 883 q 313 874 296 883 q 353 850 331 865 q 371 838 356 847 q 400 828 386 828 q 435 844 422 828 q 449 883 449 861 l 504 883 q 481 775 504 806 q 411 744 457 744 q 372 753 389 744 q 331 778 356 761 q 306 793 318 786 q 282 800 293 800 q 247 783 260 800 q 233 744 233 767 l 178 744 z "},"æ":{"ha":1104,"x_min":39,"x_max":1060,"o":"m 289 -14 q 103 36 168 -14 q 39 167 39 86 q 124 313 39 263 q 421 364 208 364 l 442 364 q 407 546 442 488 q 303 604 372 604 q 214 578 249 604 q 164 479 179 551 l 88 479 q 94 560 88 526 q 122 618 100 593 q 197 655 144 643 q 303 667 249 667 q 451 633 389 667 q 546 540 513 600 q 643 635 586 603 q 768 667 700 667 q 915 632 849 667 q 1021 534 982 597 q 1060 389 1060 471 q 1057 329 1060 363 l 1054 301 l 636 301 l 636 288 q 678 106 638 164 q 789 49 718 49 q 901 78 856 49 q 988 164 946 108 l 1031 132 q 930 28 990 69 q 768 -14 869 -14 q 532 111 615 -14 q 442 22 504 58 q 289 -14 379 -14 m 872 364 q 840 545 872 486 q 754 604 808 604 q 669 544 703 604 q 636 364 636 485 l 872 364 m 317 56 q 413 100 371 56 q 442 146 429 119 l 442 301 l 421 301 q 267 268 307 301 q 226 167 226 235 q 251 87 226 118 q 317 56 276 56 z "},"b":{"ha":760,"x_min":-28,"x_max":708,"o":"m 417 -14 q 294 24 342 -14 q 257 63 271 40 l 250 63 l 201 0 l 83 0 l 83 736 q 64 841 83 807 q -14 875 44 875 l -28 875 l -28 917 l 139 917 q 215 900 189 917 q 253 845 242 883 q 264 736 264 807 l 264 625 q 303 646 282 636 q 410 667 360 667 q 631 572 554 667 q 708 326 708 476 q 633 81 708 176 q 417 -14 557 -14 m 389 49 q 489 124 457 49 q 521 326 521 199 q 382 604 521 604 q 297 583 342 604 q 264 563 278 572 l 264 139 q 294 93 276 111 q 389 49 336 49 z "},"c":{"ha":689,"x_min":50,"x_max":653,"o":"m 383 -14 q 201 32 276 -14 q 88 155 126 78 q 50 326 50 232 q 88 498 50 421 q 201 621 126 575 q 383 667 276 667 q 599 618 550 667 q 628 556 622 594 q 633 424 633 517 l 592 424 q 538 558 586 511 q 404 604 489 604 q 283 534 328 604 q 238 326 238 464 q 411 49 238 49 q 523 78 478 49 q 610 164 568 108 l 653 132 q 551 28 613 69 q 383 -14 490 -14 z "},"ç":{"ha":692,"x_min":51,"x_max":654,"o":"m 328 -197 l 383 -197 q 424 -184 408 -197 q 439 -153 439 -171 q 424 -119 439 -132 q 383 -107 408 -107 l 329 -107 l 329 -10 q 124 100 196 7 q 51 326 51 193 q 90 498 51 421 q 203 621 128 575 q 385 667 278 667 q 600 618 551 667 q 629 556 624 594 q 635 424 635 517 l 593 424 q 539 558 588 511 q 406 604 490 604 q 284 534 329 604 q 239 326 239 464 q 413 49 239 49 q 524 78 479 49 q 611 164 569 108 l 654 132 q 558 31 611 71 q 411 -12 506 -8 l 411 -44 q 498 -74 465 -44 q 531 -153 531 -103 q 497 -231 531 -201 q 411 -261 464 -261 l 328 -261 l 328 -197 z "},"d":{"ha":760,"x_min":51,"x_max":676,"o":"m 343 -14 q 127 81 203 -14 q 51 326 51 176 q 128 572 51 476 q 350 667 206 667 q 457 646 400 667 q 496 625 478 636 l 496 736 q 476 841 496 807 q 399 875 457 875 l 385 875 l 385 917 l 551 917 q 628 900 601 917 q 665 845 654 883 q 676 736 676 807 l 676 0 l 558 0 l 510 63 l 503 63 q 464 24 490 43 q 343 -14 417 -14 m 371 49 q 464 93 422 49 q 496 139 479 108 l 496 563 q 463 583 482 574 q 378 604 418 604 q 239 326 239 604 q 270 123 239 197 q 371 49 301 49 z "},"ð":{"ha":774,"x_min":50,"x_max":717,"o":"m 383 -14 q 201 31 276 -14 q 88 153 125 76 q 50 326 50 231 q 88 499 50 422 q 197 622 125 576 q 369 667 269 667 q 488 638 438 667 q 564 556 538 608 q 526 679 547 628 q 472 771 504 731 l 407 706 l 351 761 l 417 826 q 355 860 390 851 q 272 868 319 868 q 219 861 240 868 q 199 856 224 861 l 179 900 q 237 923 203 915 q 300 931 271 931 q 399 918 357 931 q 478 881 442 906 l 538 944 l 593 892 l 535 833 q 667 641 617 760 q 717 375 717 522 q 631 90 717 193 q 383 -14 546 -14 m 383 49 q 488 121 446 49 q 529 326 529 193 q 492 522 529 439 q 383 604 456 604 q 274 522 311 604 q 238 326 238 439 q 279 121 238 193 q 383 49 321 49 z "},"đ":{"ha":767,"x_min":51,"x_max":725,"o":"m 725 717 l 676 717 l 676 0 l 558 0 l 510 63 l 503 63 q 464 24 490 43 q 343 -14 417 -14 q 127 81 203 -14 q 51 326 51 176 q 128 572 51 476 q 350 667 206 667 q 457 646 400 667 q 496 625 478 636 l 496 717 l 310 717 l 310 779 l 494 779 q 469 851 490 826 q 399 875 447 875 l 385 875 l 385 917 l 551 917 q 644 887 617 917 q 675 779 671 857 l 725 779 l 725 717 m 496 563 q 463 583 482 574 q 378 604 418 604 q 239 326 239 604 q 270 123 239 197 q 371 49 301 49 q 464 93 422 49 q 496 139 479 108 l 496 563 z "},"e":{"ha":707,"x_min":51,"x_max":663,"o":"m 371 -14 q 203 31 275 -14 q 91 152 131 75 q 51 326 51 229 q 91 511 51 435 q 200 627 131 588 q 357 667 269 667 q 513 632 443 667 q 622 534 582 597 q 663 389 663 471 q 660 329 663 363 l 657 301 l 239 301 q 279 109 239 169 q 392 49 319 49 q 503 78 458 49 q 590 164 549 108 l 633 132 q 533 28 593 69 q 371 -14 472 -14 m 475 364 q 444 549 475 494 q 357 604 414 604 q 272 548 304 604 q 239 364 239 492 l 475 364 z "},"é":{"ha":707,"x_min":51,"x_max":663,"o":"m 371 -14 q 203 31 275 -14 q 91 152 131 75 q 51 326 51 229 q 91 511 51 435 q 200 627 131 588 q 357 667 269 667 q 513 632 443 667 q 622 534 582 597 q 663 389 663 471 q 660 329 663 363 l 657 301 l 239 301 q 279 109 239 169 q 392 49 319 49 q 503 78 458 49 q 590 164 549 108 l 633 132 q 533 28 593 69 q 371 -14 472 -14 m 475 364 q 444 549 475 494 q 357 604 414 604 q 272 548 304 604 q 239 364 239 492 l 475 364 m 304 729 l 363 924 l 528 924 l 381 729 l 304 729 z "},"ê":{"ha":707,"x_min":51,"x_max":663,"o":"m 371 -14 q 203 31 275 -14 q 91 152 131 75 q 51 326 51 229 q 91 511 51 435 q 200 627 131 588 q 357 667 269 667 q 513 632 443 667 q 622 534 582 597 q 663 389 663 471 q 660 329 663 363 l 657 301 l 239 301 q 279 109 239 169 q 392 49 319 49 q 503 78 458 49 q 590 164 549 108 l 633 132 q 533 28 593 69 q 371 -14 472 -14 m 475 364 q 444 549 475 494 q 357 604 414 604 q 272 548 304 604 q 239 364 239 492 l 475 364 m 149 731 l 260 904 l 440 904 l 551 731 l 468 731 l 350 842 l 232 731 l 149 731 z "},"ế":{"ha":707,"x_min":51,"x_max":756,"o":"m 371 -14 q 203 31 275 -14 q 91 152 131 75 q 51 326 51 229 q 91 511 51 435 q 200 627 131 588 q 357 667 269 667 q 513 632 443 667 q 622 534 582 597 q 663 389 663 471 q 660 329 663 363 l 657 301 l 239 301 q 279 109 239 169 q 392 49 319 49 q 503 78 458 49 q 590 164 549 108 l 633 132 q 533 28 593 69 q 371 -14 472 -14 m 475 364 q 444 549 475 494 q 357 604 414 604 q 272 548 304 604 q 239 364 239 492 l 475 364 m 153 729 l 264 903 l 444 903 l 556 729 l 472 729 l 354 840 l 236 729 l 153 729 m 532 822 l 590 1017 l 756 1017 l 608 822 l 532 822 z "},"ệ":{"ha":707,"x_min":51,"x_max":663,"o":"m 371 -14 q 203 31 275 -14 q 91 152 131 75 q 51 326 51 229 q 91 511 51 435 q 200 627 131 588 q 357 667 269 667 q 513 632 443 667 q 622 534 582 597 q 663 389 663 471 q 660 329 663 363 l 657 301 l 239 301 q 279 109 239 169 q 392 49 319 49 q 503 78 458 49 q 590 164 549 108 l 633 132 q 533 28 593 69 q 371 -14 472 -14 m 475 364 q 444 549 475 494 q 357 604 414 604 q 272 548 304 604 q 239 364 239 492 l 475 364 m 354 -240 q 303 -221 321 -240 q 285 -169 285 -201 q 303 -119 285 -139 q 354 -100 322 -100 q 406 -119 388 -100 q 425 -169 425 -139 q 406 -221 425 -201 q 354 -240 388 -240 m 153 729 l 264 903 l 444 903 l 556 729 l 472 729 l 354 840 l 236 729 l 153 729 z "},"ề":{"ha":707,"x_min":51,"x_max":663,"o":"m 371 -14 q 203 31 275 -14 q 91 152 131 75 q 51 326 51 229 q 91 511 51 435 q 200 627 131 588 q 357 667 269 667 q 513 632 443 667 q 622 534 582 597 q 663 389 663 471 q 660 329 663 363 l 657 301 l 239 301 q 279 109 239 169 q 392 49 319 49 q 503 78 458 49 q 590 164 549 108 l 633 132 q 533 28 593 69 q 371 -14 472 -14 m 475 364 q 444 549 475 494 q 357 604 414 604 q 272 548 304 604 q 239 364 239 492 l 475 364 m 153 729 l 264 903 l 444 903 l 556 729 l 472 729 l 354 840 l 236 729 l 153 729 m 549 850 l 401 1044 l 567 1044 l 625 850 l 549 850 z "},"ể":{"ha":707,"x_min":51,"x_max":674,"o":"m 371 -14 q 203 31 275 -14 q 91 152 131 75 q 51 326 51 229 q 91 511 51 435 q 200 627 131 588 q 357 667 269 667 q 513 632 443 667 q 622 534 582 597 q 663 389 663 471 q 660 329 663 363 l 657 301 l 239 301 q 279 109 239 169 q 392 49 319 49 q 503 78 458 49 q 590 164 549 108 l 633 132 q 533 28 593 69 q 371 -14 472 -14 m 475 364 q 444 549 475 494 q 357 604 414 604 q 272 548 304 604 q 239 364 239 492 l 475 364 m 153 729 l 264 903 l 444 903 l 556 729 l 472 729 l 354 840 l 236 729 l 153 729 m 536 858 q 543 896 538 881 q 561 932 549 911 q 582 989 582 964 q 569 1017 582 1006 q 536 1028 556 1028 q 497 1013 511 1028 q 476 956 483 999 l 400 957 q 432 1074 400 1035 q 536 1114 464 1114 q 638 1082 601 1114 q 674 1001 674 1050 q 665 963 674 979 q 642 929 657 947 q 617 894 625 908 q 608 858 610 879 l 536 858 z "},"ễ":{"ha":707,"x_min":51,"x_max":663,"o":"m 371 -14 q 203 31 275 -14 q 91 152 131 75 q 51 326 51 229 q 91 511 51 435 q 200 627 131 588 q 357 667 269 667 q 513 632 443 667 q 622 534 582 597 q 663 389 663 471 q 660 329 663 363 l 657 301 l 239 301 q 279 109 239 169 q 392 49 319 49 q 503 78 458 49 q 590 164 549 108 l 633 132 q 533 28 593 69 q 371 -14 472 -14 m 475 364 q 444 549 475 494 q 357 604 414 604 q 272 548 304 604 q 239 364 239 492 l 475 364 m 153 729 l 264 903 l 444 903 l 556 729 l 472 729 l 354 840 l 236 729 l 153 729 m 190 939 q 215 1047 190 1017 q 285 1078 239 1078 q 326 1069 308 1078 q 365 1044 343 1060 q 383 1032 368 1042 q 413 1022 399 1022 q 448 1039 435 1022 q 461 1078 461 1056 l 517 1078 q 493 969 517 1000 q 424 939 469 939 q 385 947 401 939 q 343 972 368 956 q 318 988 331 981 q 294 994 306 994 q 259 978 272 994 q 246 939 246 961 l 190 939 z "},"ë":{"ha":707,"x_min":51,"x_max":664,"o":"m 371 -14 q 203 31 275 -14 q 91 152 131 75 q 51 326 51 229 q 91 511 51 435 q 200 627 131 588 q 357 667 269 667 q 513 632 443 667 q 622 534 582 597 q 663 389 663 471 q 660 329 663 363 l 657 301 l 239 301 q 279 109 239 169 q 392 49 319 49 q 503 78 458 49 q 590 164 549 108 l 633 132 q 533 28 593 69 q 371 -14 472 -14 m 475 364 q 444 549 475 494 q 357 604 414 604 q 272 548 304 604 q 239 364 239 492 l 475 364 m 336 743 q 279 765 300 743 q 258 821 258 788 q 279 876 258 854 q 336 899 300 899 q 393 876 372 899 q 414 821 414 854 q 393 765 414 788 q 336 743 372 743 m 586 743 q 529 765 550 743 q 508 821 508 788 q 529 876 508 854 q 586 899 550 899 q 643 876 622 899 q 664 821 664 854 q 643 765 664 788 q 586 743 622 743 z "},"ẹ":{"ha":707,"x_min":51,"x_max":663,"o":"m 371 -14 q 203 31 275 -14 q 91 152 131 75 q 51 326 51 229 q 91 511 51 435 q 200 627 131 588 q 357 667 269 667 q 513 632 443 667 q 622 534 582 597 q 663 389 663 471 q 660 329 663 363 l 657 301 l 239 301 q 279 109 239 169 q 392 49 319 49 q 503 78 458 49 q 590 164 549 108 l 633 132 q 533 28 593 69 q 371 -14 472 -14 m 475 364 q 444 549 475 494 q 357 604 414 604 q 272 548 304 604 q 239 364 239 492 l 475 364 m 354 -240 q 303 -221 321 -240 q 285 -169 285 -201 q 303 -119 285 -139 q 354 -100 322 -100 q 406 -119 388 -100 q 425 -169 425 -139 q 406 -221 425 -201 q 354 -240 388 -240 z "},"è":{"ha":707,"x_min":51,"x_max":663,"o":"m 371 -14 q 203 31 275 -14 q 91 152 131 75 q 51 326 51 229 q 91 511 51 435 q 200 627 131 588 q 357 667 269 667 q 513 632 443 667 q 622 534 582 597 q 663 389 663 471 q 660 329 663 363 l 657 301 l 239 301 q 279 109 239 169 q 392 49 319 49 q 503 78 458 49 q 590 164 549 108 l 633 132 q 533 28 593 69 q 371 -14 472 -14 m 475 364 q 444 549 475 494 q 357 604 414 604 q 272 548 304 604 q 239 364 239 492 l 475 364 m 347 715 l 200 910 l 365 910 l 424 715 l 347 715 z "},"ẻ":{"ha":707,"x_min":51,"x_max":663,"o":"m 371 -14 q 203 31 275 -14 q 91 152 131 75 q 51 326 51 229 q 91 511 51 435 q 200 627 131 588 q 357 667 269 667 q 513 632 443 667 q 622 534 582 597 q 663 389 663 471 q 660 329 663 363 l 657 301 l 239 301 q 279 109 239 169 q 392 49 319 49 q 503 78 458 49 q 590 164 549 108 l 633 132 q 533 28 593 69 q 371 -14 472 -14 m 475 364 q 444 549 475 494 q 357 604 414 604 q 272 548 304 604 q 239 364 239 492 l 475 364 m 354 724 q 361 761 356 746 q 379 797 367 776 q 400 854 400 829 q 387 882 400 871 q 354 893 374 893 q 315 878 329 893 q 294 821 301 864 l 218 822 q 250 940 218 900 q 354 979 282 979 q 456 947 419 979 q 492 867 492 915 q 483 828 492 844 q 460 794 475 813 q 435 759 443 774 q 426 724 428 744 l 354 724 z "},"ẽ":{"ha":707,"x_min":51,"x_max":663,"o":"m 371 -14 q 203 31 275 -14 q 91 152 131 75 q 51 326 51 229 q 91 511 51 435 q 200 627 131 588 q 357 667 269 667 q 513 632 443 667 q 622 534 582 597 q 663 389 663 471 q 660 329 663 363 l 657 301 l 239 301 q 279 109 239 169 q 392 49 319 49 q 503 78 458 49 q 590 164 549 108 l 633 132 q 533 28 593 69 q 371 -14 472 -14 m 475 364 q 444 549 475 494 q 357 604 414 604 q 272 548 304 604 q 239 364 239 492 l 475 364 m 190 764 q 215 872 190 842 q 285 903 239 903 q 326 894 308 903 q 365 869 343 885 q 383 857 368 867 q 413 847 399 847 q 448 864 435 847 q 461 903 461 881 l 517 903 q 493 794 517 825 q 424 764 469 764 q 385 772 401 764 q 343 797 368 781 q 318 813 331 806 q 294 819 306 819 q 259 803 272 819 q 246 764 246 786 l 190 764 z "},"f":{"ha":475,"x_min":17,"x_max":551,"o":"m 100 590 l 17 590 l 17 653 l 100 653 l 100 690 q 167 869 100 808 q 371 931 235 931 q 445 924 410 931 q 497 907 481 918 q 551 847 533 886 l 496 799 q 444 850 475 832 q 378 868 414 868 q 305 828 329 868 q 281 690 281 788 l 281 653 l 461 653 l 461 590 l 281 590 l 281 0 l 100 0 l 100 590 z "},"g":{"ha":726,"x_min":19,"x_max":700,"o":"m 360 -278 q 110 -227 201 -278 q 19 -62 19 -176 q 75 53 19 7 q 207 118 131 99 q 144 194 144 138 q 200 264 144 242 q 101 336 140 285 q 61 450 61 388 q 142 615 61 564 q 360 667 224 667 l 651 667 l 651 629 l 526 613 q 622 544 585 590 q 658 450 658 499 q 581 286 658 336 q 360 236 504 236 q 254 228 288 236 q 221 194 221 221 q 254 165 221 172 q 360 157 288 158 q 605 98 510 154 q 700 -62 700 42 q 609 -227 700 -176 q 360 -278 518 -278 m 360 292 q 471 450 471 292 q 440 569 471 528 q 360 611 410 611 q 278 571 308 611 q 249 450 249 531 q 360 292 249 292 m 360 -215 q 472 -177 432 -215 q 513 -62 513 -139 q 474 40 513 -1 q 371 93 436 81 l 306 100 q 232 40 257 79 q 207 -62 207 1 q 247 -177 207 -139 q 360 -215 288 -215 z "},"ğ":{"ha":722,"x_min":19,"x_max":700,"o":"m 360 -278 q 110 -227 201 -278 q 19 -62 19 -176 q 75 53 19 7 q 207 118 131 99 q 144 194 144 138 q 200 264 144 242 q 101 336 140 285 q 61 450 61 388 q 142 615 61 564 q 360 667 224 667 l 651 667 l 651 629 l 526 613 q 622 544 585 590 q 658 450 658 499 q 581 286 658 336 q 360 236 504 236 q 254 228 288 236 q 221 194 221 221 q 254 165 221 172 q 360 157 288 158 q 605 98 510 154 q 700 -62 700 42 q 609 -227 700 -176 q 360 -278 518 -278 m 360 292 q 471 450 471 292 q 440 569 471 528 q 360 611 410 611 q 278 571 308 611 q 249 450 249 531 q 360 292 249 292 m 360 -215 q 472 -177 432 -215 q 513 -62 513 -139 q 474 40 513 -1 q 371 93 436 81 l 306 100 q 232 40 257 79 q 207 -62 207 1 q 247 -177 207 -139 q 360 -215 288 -215 m 361 736 q 243 772 294 736 q 165 867 192 807 l 204 896 q 267 847 228 867 q 361 826 307 826 q 455 847 415 826 q 518 896 494 867 l 557 867 q 479 772 531 807 q 361 736 428 736 z "},"h":{"ha":756,"x_min":-28,"x_max":681,"o":"m 83 736 q 64 841 83 807 q -14 875 44 875 l -28 875 l -28 917 l 139 917 q 215 900 189 917 q 253 845 242 883 q 264 736 264 807 l 264 614 q 307 640 276 624 q 417 667 363 667 q 605 609 529 667 q 681 413 681 551 l 681 0 l 500 0 l 500 406 q 465 551 500 506 q 375 597 429 597 q 296 572 338 597 q 264 549 279 563 l 264 0 l 83 0 l 83 736 z "},"i":{"ha":371,"x_min":-1,"x_max":290,"o":"m 200 728 q 123 758 150 728 q 96 833 96 789 q 117 890 96 869 q 172 911 139 911 q 249 881 222 911 q 276 806 276 850 q 255 749 276 769 q 200 728 233 728 m 110 472 q 90 577 110 543 q 13 611 71 611 l -1 611 l -1 653 l 165 653 q 242 636 215 653 q 279 581 268 619 q 290 472 290 543 l 290 0 l 110 0 l 110 472 z "},"ı":{"ha":371,"x_min":-1,"x_max":290,"o":"m 110 472 q 90 577 110 543 q 13 611 71 611 l -1 611 l -1 653 l 165 653 q 242 636 215 653 q 279 581 268 619 q 290 472 290 543 l 290 0 l 110 0 l 110 472 z "},"í":{"ha":371,"x_min":-1,"x_max":356,"o":"m 110 472 q 90 577 110 543 q 13 611 71 611 l -1 611 l -1 653 l 165 653 q 242 636 215 653 q 279 581 268 619 q 290 472 290 543 l 290 0 l 110 0 l 110 472 m 132 729 l 190 924 l 356 924 l 208 729 l 132 729 z "},"î":{"ha":371,"x_min":-14,"x_max":389,"o":"m 110 472 q 90 577 110 543 q 13 611 71 611 l -1 611 l -1 653 l 165 653 q 242 636 215 653 q 279 581 268 619 q 290 472 290 543 l 290 0 l 110 0 l 110 472 m -14 739 l 97 913 l 278 913 l 389 739 l 306 739 l 188 850 l 69 739 l -14 739 z "},"ï":{"ha":371,"x_min":-29,"x_max":408,"o":"m 75 742 q -2 772 25 742 q -29 847 -29 803 q -8 904 -29 883 q 47 925 14 925 q 124 894 97 925 q 151 819 151 864 q 130 763 151 783 q 75 742 108 742 m 332 742 q 255 772 282 742 q 228 847 228 803 q 249 904 228 883 q 304 925 271 925 q 381 894 354 925 q 408 819 408 864 q 387 763 408 783 q 332 742 365 742 m 110 472 q 90 577 110 543 q 13 611 71 611 l -1 611 l -1 653 l 165 653 q 242 636 215 653 q 279 581 268 619 q 290 472 290 543 l 290 0 l 110 0 l 110 472 z "},"ị":{"ha":371,"x_min":-1,"x_max":290,"o":"m 200 728 q 123 758 150 728 q 96 833 96 789 q 117 890 96 869 q 172 911 139 911 q 249 881 222 911 q 276 806 276 850 q 255 749 276 769 q 200 728 233 728 m 110 472 q 90 577 110 543 q 13 611 71 611 l -1 611 l -1 653 l 165 653 q 242 636 215 653 q 279 581 268 619 q 290 472 290 543 l 290 0 l 110 0 l 110 472 m 186 -240 q 135 -221 153 -240 q 117 -169 117 -201 q 135 -119 117 -139 q 186 -100 154 -100 q 238 -119 219 -100 q 257 -169 257 -139 q 238 -221 257 -201 q 186 -240 219 -240 z "},"ì":{"ha":371,"x_min":-1,"x_max":290,"o":"m 110 472 q 90 577 110 543 q 13 611 71 611 l -1 611 l -1 653 l 165 653 q 242 636 215 653 q 279 581 268 619 q 290 472 290 543 l 290 0 l 110 0 l 110 472 m 179 715 l 32 910 l 197 910 l 256 715 l 179 715 z "},"ỉ":{"ha":371,"x_min":-1,"x_max":324,"o":"m 110 472 q 90 577 110 543 q 13 611 71 611 l -1 611 l -1 653 l 165 653 q 242 636 215 653 q 279 581 268 619 q 290 472 290 543 l 290 0 l 110 0 l 110 472 m 186 724 q 193 761 188 746 q 211 797 199 776 q 232 854 232 829 q 219 882 232 871 q 186 893 206 893 q 147 878 161 893 q 126 821 133 864 l 50 822 q 82 940 50 900 q 186 979 114 979 q 288 947 251 979 q 324 867 324 915 q 315 828 324 844 q 292 794 307 813 q 267 759 275 774 q 258 724 260 744 l 186 724 z "},"ĩ":{"ha":371,"x_min":-1,"x_max":349,"o":"m 110 472 q 90 577 110 543 q 13 611 71 611 l -1 611 l -1 653 l 165 653 q 242 636 215 653 q 279 581 268 619 q 290 472 290 543 l 290 0 l 110 0 l 110 472 m 22 764 q 47 872 22 842 q 117 903 71 903 q 158 894 140 903 q 197 869 175 885 q 215 857 200 867 q 244 847 231 847 q 280 864 267 847 q 293 903 293 881 l 349 903 q 325 794 349 825 q 256 764 301 764 q 217 772 233 764 q 175 797 200 781 q 150 813 163 806 q 126 819 138 819 q 91 803 104 819 q 78 764 78 786 l 22 764 z "},"j":{"ha":371,"x_min":-12,"x_max":290,"o":"m 200 728 q 123 758 150 728 q 96 833 96 789 q 117 890 96 869 q 172 911 139 911 q 249 881 222 911 q 276 806 276 850 q 255 749 276 769 q 200 728 233 728 m -12 -229 q 81 -160 53 -217 q 110 35 110 -103 l 110 472 q 90 577 110 543 q 13 611 71 611 l -1 611 l -1 653 l 165 653 q 242 636 215 653 q 279 581 268 619 q 290 472 290 543 l 290 35 q 262 -146 290 -82 q 169 -237 233 -210 q -12 -264 104 -264 l -12 -229 z "},"k":{"ha":701,"x_min":-28,"x_max":700,"o":"m 604 -14 q 492 12 543 -14 q 397 97 442 38 l 264 272 l 264 0 l 83 0 l 83 736 q 64 841 83 807 q -14 875 44 875 l -28 875 l -28 917 l 139 917 q 215 900 189 917 q 253 845 242 883 q 264 736 264 807 l 264 340 l 432 546 q 521 628 479 603 q 632 653 563 653 l 660 653 l 660 617 q 585 600 618 617 q 521 547 551 583 l 386 383 l 571 139 q 700 33 638 49 l 700 0 q 659 -10 689 -6 q 604 -14 629 -14 z "},"l":{"ha":358,"x_min":-22,"x_max":269,"o":"m 89 736 q 69 841 89 807 q -8 875 50 875 l -22 875 l -22 917 l 144 917 q 221 900 194 917 q 258 845 247 883 q 269 736 269 807 l 269 0 l 89 0 l 89 736 z "},"m":{"ha":1147,"x_min":1,"x_max":1069,"o":"m 111 472 q 92 577 111 543 q 15 611 74 611 l 1 611 l 1 653 l 139 653 q 257 600 229 653 l 263 600 q 438 667 339 667 q 556 641 506 667 q 629 588 607 615 q 708 645 663 624 q 826 667 754 667 q 1069 411 1069 667 l 1069 0 l 889 0 l 889 413 q 858 553 889 508 q 778 597 828 597 q 708 583 740 597 q 658 544 676 568 q 669 514 661 539 q 681 411 681 472 l 681 0 l 500 0 l 500 413 q 469 553 500 508 q 389 597 439 597 q 328 580 360 597 q 282 542 297 563 l 286 522 q 292 468 292 506 l 292 0 l 111 0 l 111 472 z "},"n":{"ha":799,"x_min":1,"x_max":722,"o":"m 111 472 q 92 577 111 543 q 15 611 74 611 l 1 611 l 1 653 l 139 653 q 213 641 186 653 q 256 601 240 629 q 458 667 326 667 q 656 605 590 667 q 722 411 722 543 l 722 0 l 542 0 l 542 413 q 506 553 542 508 q 410 597 471 597 q 334 585 367 597 q 282 554 301 574 l 286 535 q 292 481 292 518 l 292 0 l 111 0 l 111 472 z "},"ñ":{"ha":799,"x_min":1,"x_max":722,"o":"m 111 472 q 92 577 111 543 q 15 611 74 611 l 1 611 l 1 653 l 139 653 q 213 641 186 653 q 256 601 240 629 q 458 667 326 667 q 656 605 590 667 q 722 411 722 543 l 722 0 l 542 0 l 542 413 q 506 553 542 508 q 410 597 471 597 q 334 585 367 597 q 282 554 301 574 l 286 535 q 292 481 292 518 l 292 0 l 111 0 l 111 472 m 246 757 q 270 865 246 835 q 340 896 294 896 q 381 887 364 896 q 421 863 399 878 q 439 850 424 860 q 468 840 454 840 q 503 857 490 840 q 517 896 517 874 l 572 896 q 549 788 572 818 q 479 757 525 757 q 440 765 457 757 q 399 790 424 774 q 374 806 386 799 q 350 813 361 813 q 315 796 328 813 q 301 757 301 779 l 246 757 z "},"o":{"ha":767,"x_min":50,"x_max":717,"o":"m 383 -14 q 206 31 282 -14 q 90 153 131 76 q 50 326 50 231 q 90 499 50 422 q 206 622 131 576 q 383 667 282 667 q 560 622 485 667 q 676 499 636 576 q 717 326 717 422 q 676 153 717 231 q 560 31 636 76 q 383 -14 485 -14 m 383 49 q 492 125 454 49 q 529 326 529 201 q 492 528 529 451 q 383 604 454 604 q 275 528 313 604 q 238 326 238 451 q 275 125 238 201 q 383 49 313 49 z "},"ó":{"ha":767,"x_min":50,"x_max":717,"o":"m 383 -14 q 206 31 282 -14 q 90 153 131 76 q 50 326 50 231 q 90 499 50 422 q 206 622 131 576 q 383 667 282 667 q 560 622 485 667 q 676 499 636 576 q 717 326 717 422 q 676 153 717 231 q 560 31 636 76 q 383 -14 485 -14 m 383 49 q 492 125 454 49 q 529 326 529 201 q 492 528 529 451 q 383 604 454 604 q 275 528 313 604 q 238 326 238 451 q 275 125 238 201 q 383 49 313 49 m 324 729 l 382 924 l 547 924 l 400 729 l 324 729 z "},"ô":{"ha":767,"x_min":50,"x_max":717,"o":"m 383 -14 q 206 31 282 -14 q 90 153 131 76 q 50 326 50 231 q 90 499 50 422 q 206 622 131 576 q 383 667 282 667 q 560 622 485 667 q 676 499 636 576 q 717 326 717 422 q 676 153 717 231 q 560 31 636 76 q 383 -14 485 -14 m 383 49 q 492 125 454 49 q 529 326 529 201 q 492 528 529 451 q 383 604 454 604 q 275 528 313 604 q 238 326 238 451 q 275 125 238 201 q 383 49 313 49 m 182 729 l 293 903 l 474 903 l 585 729 l 501 729 l 383 840 l 265 729 l 182 729 z "},"ố":{"ha":767,"x_min":50,"x_max":785,"o":"m 383 -14 q 206 31 282 -14 q 90 153 131 76 q 50 326 50 231 q 90 499 50 422 q 206 622 131 576 q 383 667 282 667 q 560 622 485 667 q 676 499 636 576 q 717 326 717 422 q 676 153 717 231 q 560 31 636 76 q 383 -14 485 -14 m 383 49 q 492 125 454 49 q 529 326 529 201 q 492 528 529 451 q 383 604 454 604 q 275 528 313 604 q 238 326 238 451 q 275 125 238 201 q 383 49 313 49 m 182 729 l 293 903 l 474 903 l 585 729 l 501 729 l 383 840 l 265 729 l 182 729 m 561 822 l 619 1017 l 785 1017 l 638 822 l 561 822 z "},"ộ":{"ha":767,"x_min":50,"x_max":717,"o":"m 383 -14 q 206 31 282 -14 q 90 153 131 76 q 50 326 50 231 q 90 499 50 422 q 206 622 131 576 q 383 667 282 667 q 560 622 485 667 q 676 499 636 576 q 717 326 717 422 q 676 153 717 231 q 560 31 636 76 q 383 -14 485 -14 m 383 49 q 492 125 454 49 q 529 326 529 201 q 492 528 529 451 q 383 604 454 604 q 275 528 313 604 q 238 326 238 451 q 275 125 238 201 q 383 49 313 49 m 383 -240 q 332 -221 350 -240 q 314 -169 314 -201 q 333 -119 314 -139 q 383 -100 351 -100 q 435 -119 417 -100 q 454 -169 454 -139 q 435 -221 454 -201 q 383 -240 417 -240 m 182 729 l 293 903 l 474 903 l 585 729 l 501 729 l 383 840 l 265 729 l 182 729 z "},"ồ":{"ha":767,"x_min":50,"x_max":717,"o":"m 383 -14 q 206 31 282 -14 q 90 153 131 76 q 50 326 50 231 q 90 499 50 422 q 206 622 131 576 q 383 667 282 667 q 560 622 485 667 q 676 499 636 576 q 717 326 717 422 q 676 153 717 231 q 560 31 636 76 q 383 -14 485 -14 m 383 49 q 492 125 454 49 q 529 326 529 201 q 492 528 529 451 q 383 604 454 604 q 275 528 313 604 q 238 326 238 451 q 275 125 238 201 q 383 49 313 49 m 182 729 l 293 903 l 474 903 l 585 729 l 501 729 l 383 840 l 265 729 l 182 729 m 578 850 l 431 1044 l 596 1044 l 654 850 l 578 850 z "},"ổ":{"ha":767,"x_min":50,"x_max":717,"o":"m 383 -14 q 206 31 282 -14 q 90 153 131 76 q 50 326 50 231 q 90 499 50 422 q 206 622 131 576 q 383 667 282 667 q 560 622 485 667 q 676 499 636 576 q 717 326 717 422 q 676 153 717 231 q 560 31 636 76 q 383 -14 485 -14 m 383 49 q 492 125 454 49 q 529 326 529 201 q 492 528 529 451 q 383 604 454 604 q 275 528 313 604 q 238 326 238 451 q 275 125 238 201 q 383 49 313 49 m 182 729 l 293 903 l 474 903 l 585 729 l 501 729 l 383 840 l 265 729 l 182 729 m 565 858 q 572 896 567 881 q 590 932 578 911 q 611 989 611 964 q 598 1017 611 1006 q 565 1028 585 1028 q 526 1013 540 1028 q 506 956 513 999 l 429 957 q 461 1074 429 1035 q 565 1114 493 1114 q 667 1082 631 1114 q 703 1001 703 1050 q 694 963 703 979 q 671 929 686 947 q 647 894 654 908 q 638 858 639 879 l 565 858 z "},"ỗ":{"ha":767,"x_min":50,"x_max":717,"o":"m 383 -14 q 206 31 282 -14 q 90 153 131 76 q 50 326 50 231 q 90 499 50 422 q 206 622 131 576 q 383 667 282 667 q 560 622 485 667 q 676 499 636 576 q 717 326 717 422 q 676 153 717 231 q 560 31 636 76 q 383 -14 485 -14 m 383 49 q 492 125 454 49 q 529 326 529 201 q 492 528 529 451 q 383 604 454 604 q 275 528 313 604 q 238 326 238 451 q 275 125 238 201 q 383 49 313 49 m 182 729 l 293 903 l 474 903 l 585 729 l 501 729 l 383 840 l 265 729 l 182 729 m 219 939 q 244 1047 219 1017 q 314 1078 268 1078 q 355 1069 338 1078 q 394 1044 372 1060 q 413 1032 397 1042 q 442 1022 428 1022 q 477 1039 464 1022 q 490 1078 490 1056 l 546 1078 q 522 969 546 1000 q 453 939 499 939 q 414 947 431 939 q 372 972 397 956 q 347 988 360 981 q 324 994 335 994 q 288 978 301 994 q 275 939 275 961 l 219 939 z "},"ö":{"ha":767,"x_min":50,"x_max":717,"o":"m 383 -14 q 206 31 282 -14 q 90 153 131 76 q 50 326 50 231 q 90 499 50 422 q 206 622 131 576 q 383 667 282 667 q 560 622 485 667 q 676 499 636 576 q 717 326 717 422 q 676 153 717 231 q 560 31 636 76 q 383 -14 485 -14 m 383 49 q 492 125 454 49 q 529 326 529 201 q 492 528 529 451 q 383 604 454 604 q 275 528 313 604 q 238 326 238 451 q 275 125 238 201 q 383 49 313 49 m 369 743 q 313 765 333 743 q 292 821 292 788 q 313 876 292 854 q 369 899 333 899 q 426 876 406 899 q 447 821 447 854 q 426 765 447 788 q 369 743 406 743 m 619 743 q 563 765 583 743 q 542 821 542 788 q 563 876 542 854 q 619 899 583 899 q 676 876 656 899 q 697 821 697 854 q 676 765 697 788 q 619 743 656 743 z "},"ọ":{"ha":767,"x_min":50,"x_max":717,"o":"m 383 -14 q 206 31 282 -14 q 90 153 131 76 q 50 326 50 231 q 90 499 50 422 q 206 622 131 576 q 383 667 282 667 q 560 622 485 667 q 676 499 636 576 q 717 326 717 422 q 676 153 717 231 q 560 31 636 76 q 383 -14 485 -14 m 383 49 q 492 125 454 49 q 529 326 529 201 q 492 528 529 451 q 383 604 454 604 q 275 528 313 604 q 238 326 238 451 q 275 125 238 201 q 383 49 313 49 m 383 -240 q 332 -221 350 -240 q 314 -169 314 -201 q 333 -119 314 -139 q 383 -100 351 -100 q 435 -119 417 -100 q 454 -169 454 -139 q 435 -221 454 -201 q 383 -240 417 -240 z "},"ò":{"ha":767,"x_min":50,"x_max":717,"o":"m 383 -14 q 206 31 282 -14 q 90 153 131 76 q 50 326 50 231 q 90 499 50 422 q 206 622 131 576 q 383 667 282 667 q 560 622 485 667 q 676 499 636 576 q 717 326 717 422 q 676 153 717 231 q 560 31 636 76 q 383 -14 485 -14 m 383 49 q 492 125 454 49 q 529 326 529 201 q 492 528 529 451 q 383 604 454 604 q 275 528 313 604 q 238 326 238 451 q 275 125 238 201 q 383 49 313 49 m 376 715 l 229 910 l 394 910 l 453 715 l 376 715 z "},"ỏ":{"ha":767,"x_min":50,"x_max":717,"o":"m 383 -14 q 206 31 282 -14 q 90 153 131 76 q 50 326 50 231 q 90 499 50 422 q 206 622 131 576 q 383 667 282 667 q 560 622 485 667 q 676 499 636 576 q 717 326 717 422 q 676 153 717 231 q 560 31 636 76 q 383 -14 485 -14 m 383 49 q 492 125 454 49 q 529 326 529 201 q 492 528 529 451 q 383 604 454 604 q 275 528 313 604 q 238 326 238 451 q 275 125 238 201 q 383 49 313 49 m 383 724 q 390 761 385 746 q 408 797 396 776 q 429 854 429 829 q 416 882 429 871 q 383 893 403 893 q 344 878 358 893 q 324 821 331 864 l 247 822 q 279 940 247 900 q 383 979 311 979 q 485 947 449 979 q 521 867 521 915 q 513 828 521 844 q 489 794 504 813 q 465 759 472 774 q 456 724 457 744 l 383 724 z "},"ơ":{"ha":767,"x_min":50,"x_max":718,"o":"m 579 610 q 681 490 644 564 q 717 326 717 415 q 676 153 717 231 q 560 31 636 76 q 383 -14 485 -14 q 206 31 282 -14 q 90 153 131 76 q 50 326 50 231 q 90 499 50 422 q 206 622 131 576 q 383 667 282 667 q 488 653 435 667 q 577 701 547 660 q 607 796 607 742 l 718 796 q 683 686 718 738 q 579 610 647 635 m 383 49 q 492 125 454 49 q 529 326 529 201 q 492 528 529 451 q 383 604 454 604 q 275 528 313 604 q 238 326 238 451 q 275 125 238 201 q 383 49 313 49 z "},"ớ":{"ha":767,"x_min":50,"x_max":718,"o":"m 579 610 q 681 490 644 564 q 717 326 717 415 q 676 153 717 231 q 560 31 636 76 q 383 -14 485 -14 q 206 31 282 -14 q 90 153 131 76 q 50 326 50 231 q 90 499 50 422 q 206 622 131 576 q 383 667 282 667 q 488 653 435 667 q 577 701 547 660 q 607 796 607 742 l 718 796 q 683 686 718 738 q 579 610 647 635 m 383 49 q 492 125 454 49 q 529 326 529 201 q 492 528 529 451 q 383 604 454 604 q 275 528 313 604 q 238 326 238 451 q 275 125 238 201 q 383 49 313 49 m 340 715 l 399 910 l 564 910 l 417 715 l 340 715 z "},"ợ":{"ha":767,"x_min":50,"x_max":718,"o":"m 579 610 q 681 490 644 564 q 717 326 717 415 q 676 153 717 231 q 560 31 636 76 q 383 -14 485 -14 q 206 31 282 -14 q 90 153 131 76 q 50 326 50 231 q 90 499 50 422 q 206 622 131 576 q 383 667 282 667 q 488 653 435 667 q 577 701 547 660 q 607 796 607 742 l 718 796 q 683 686 718 738 q 579 610 647 635 m 383 49 q 492 125 454 49 q 529 326 529 201 q 492 528 529 451 q 383 604 454 604 q 275 528 313 604 q 238 326 238 451 q 275 125 238 201 q 383 49 313 49 m 383 -240 q 332 -221 350 -240 q 314 -169 314 -201 q 333 -119 314 -139 q 383 -100 351 -100 q 435 -119 417 -100 q 454 -169 454 -139 q 435 -221 454 -201 q 383 -240 417 -240 z "},"ờ":{"ha":767,"x_min":50,"x_max":718,"o":"m 579 610 q 681 490 644 564 q 717 326 717 415 q 676 153 717 231 q 560 31 636 76 q 383 -14 485 -14 q 206 31 282 -14 q 90 153 131 76 q 50 326 50 231 q 90 499 50 422 q 206 622 131 576 q 383 667 282 667 q 488 653 435 667 q 577 701 547 660 q 607 796 607 742 l 718 796 q 683 686 718 738 q 579 610 647 635 m 383 49 q 492 125 454 49 q 529 326 529 201 q 492 528 529 451 q 383 604 454 604 q 275 528 313 604 q 238 326 238 451 q 275 125 238 201 q 383 49 313 49 m 376 715 l 229 910 l 394 910 l 453 715 l 376 715 z "},"ở":{"ha":767,"x_min":50,"x_max":718,"o":"m 579 610 q 681 490 644 564 q 717 326 717 415 q 676 153 717 231 q 560 31 636 76 q 383 -14 485 -14 q 206 31 282 -14 q 90 153 131 76 q 50 326 50 231 q 90 499 50 422 q 206 622 131 576 q 383 667 282 667 q 488 653 435 667 q 577 701 547 660 q 607 796 607 742 l 718 796 q 683 686 718 738 q 579 610 647 635 m 383 49 q 492 125 454 49 q 529 326 529 201 q 492 528 529 451 q 383 604 454 604 q 275 528 313 604 q 238 326 238 451 q 275 125 238 201 q 383 49 313 49 m 383 724 q 390 761 385 746 q 408 797 396 776 q 429 854 429 829 q 416 882 429 871 q 383 893 403 893 q 344 878 358 893 q 324 821 331 864 l 247 822 q 279 940 247 900 q 383 979 311 979 q 485 947 449 979 q 521 867 521 915 q 513 828 521 844 q 489 794 504 813 q 465 759 472 774 q 456 724 457 744 l 383 724 z "},"ỡ":{"ha":767,"x_min":50,"x_max":718,"o":"m 579 610 q 681 490 644 564 q 717 326 717 415 q 676 153 717 231 q 560 31 636 76 q 383 -14 485 -14 q 206 31 282 -14 q 90 153 131 76 q 50 326 50 231 q 90 499 50 422 q 206 622 131 576 q 383 667 282 667 q 488 653 435 667 q 577 701 547 660 q 607 796 607 742 l 718 796 q 683 686 718 738 q 579 610 647 635 m 383 49 q 492 125 454 49 q 529 326 529 201 q 492 528 529 451 q 383 604 454 604 q 275 528 313 604 q 238 326 238 451 q 275 125 238 201 q 383 49 313 49 m 219 764 q 244 872 219 842 q 314 903 268 903 q 355 894 338 903 q 394 869 372 885 q 413 857 397 867 q 442 847 428 847 q 477 864 464 847 q 490 903 490 881 l 546 903 q 522 794 546 825 q 453 764 499 764 q 414 772 431 764 q 372 797 397 781 q 347 813 360 806 q 324 819 335 819 q 288 803 301 819 q 275 764 275 786 l 219 764 z "},"ø":{"ha":767,"x_min":50,"x_max":717,"o":"m 383 -14 q 222 22 297 -14 l 206 0 l 78 0 l 139 83 q 73 192 96 129 q 50 326 50 254 q 90 499 50 422 q 206 622 131 576 q 383 667 282 667 q 544 631 469 667 l 561 653 l 689 653 l 626 569 q 694 461 671 524 q 717 326 717 399 q 676 153 717 231 q 560 31 636 76 q 383 -14 485 -14 m 481 544 q 383 604 443 604 q 275 528 313 604 q 238 326 238 451 q 244 225 238 265 l 481 544 m 383 49 q 492 125 454 49 q 529 326 529 201 q 521 426 529 381 l 285 107 q 383 49 321 49 z "},"õ":{"ha":767,"x_min":50,"x_max":717,"o":"m 383 -14 q 206 31 282 -14 q 90 153 131 76 q 50 326 50 231 q 90 499 50 422 q 206 622 131 576 q 383 667 282 667 q 560 622 485 667 q 676 499 636 576 q 717 326 717 422 q 676 153 717 231 q 560 31 636 76 q 383 -14 485 -14 m 383 49 q 492 125 454 49 q 529 326 529 201 q 492 528 529 451 q 383 604 454 604 q 275 528 313 604 q 238 326 238 451 q 275 125 238 201 q 383 49 313 49 m 219 744 q 244 853 219 822 q 314 883 268 883 q 355 874 338 883 q 394 850 372 865 q 413 838 397 847 q 442 828 428 828 q 477 844 464 828 q 490 883 490 861 l 546 883 q 522 775 546 806 q 453 744 499 744 q 414 753 431 744 q 372 778 397 761 q 347 793 360 786 q 324 800 335 800 q 288 783 301 800 q 275 744 275 767 l 219 744 z "},"œ":{"ha":1185,"x_min":50,"x_max":1140,"o":"m 383 -14 q 206 31 282 -14 q 90 153 131 76 q 50 326 50 231 q 90 499 50 422 q 206 622 131 576 q 383 667 282 667 q 617 579 525 667 q 835 667 700 667 q 990 632 921 667 q 1100 534 1060 597 q 1140 389 1140 471 q 1138 329 1140 363 l 1135 301 l 717 301 q 757 109 717 169 q 869 49 797 49 q 981 78 936 49 q 1068 164 1026 108 l 1111 132 q 1010 28 1071 69 q 849 -14 950 -14 q 621 78 706 -14 q 383 -14 529 -14 m 383 49 q 492 125 454 49 q 529 326 529 201 q 492 528 529 451 q 383 604 454 604 q 275 528 313 604 q 238 326 238 451 q 275 125 238 201 q 383 49 313 49 m 953 364 q 922 549 953 494 q 835 604 892 604 q 749 548 782 604 q 717 364 717 492 l 953 364 z "},"p":{"ha":788,"x_min":1,"x_max":736,"o":"m 111 472 q 92 577 111 543 q 15 611 74 611 l 1 611 l 1 653 l 139 653 q 214 640 188 653 q 256 594 240 626 q 444 667 338 667 q 660 572 585 667 q 736 326 736 476 q 659 81 736 176 q 438 -14 582 -14 q 331 7 381 -14 q 292 28 308 15 l 292 -264 l 111 -264 l 111 472 m 410 49 q 549 326 549 49 q 517 529 549 454 q 417 604 485 604 q 282 547 339 604 l 286 528 q 292 481 292 511 l 292 90 q 325 69 307 78 q 410 49 364 49 z "},"þ":{"ha":753,"x_min":-28,"x_max":700,"o":"m 83 736 q 64 841 83 807 q -14 875 44 875 l -28 875 l -28 917 l 139 917 q 215 900 189 917 q 253 845 242 883 q 264 736 264 807 l 264 618 q 422 667 322 667 q 629 575 558 667 q 700 326 700 483 q 627 78 700 169 q 408 -14 554 -14 q 264 14 332 -14 l 264 -264 l 83 -264 l 83 736 m 360 49 q 473 122 433 49 q 513 326 513 194 q 474 530 513 456 q 374 604 436 604 q 264 563 311 604 l 264 69 q 360 49 319 49 z "},"q":{"ha":760,"x_min":51,"x_max":676,"o":"m 496 28 q 457 7 479 15 q 350 -14 407 -14 q 128 81 206 -14 q 51 326 51 176 q 127 572 51 476 q 343 667 203 667 q 464 628 415 667 q 503 590 490 610 l 510 590 l 558 653 l 676 653 l 676 -264 l 496 -264 l 496 28 m 378 49 q 463 69 424 49 q 496 90 482 78 l 496 514 q 464 558 478 544 q 371 604 421 604 q 270 530 301 604 q 239 326 239 456 q 378 49 239 49 z "},"r":{"ha":581,"x_min":1,"x_max":576,"o":"m 529 639 q 565 599 554 621 q 576 576 576 578 l 506 522 q 481 549 496 535 q 410 576 450 576 q 286 533 329 576 l 289 513 q 292 467 292 488 l 292 0 l 111 0 l 111 472 q 92 577 111 543 q 15 611 74 611 l 1 611 l 1 653 l 139 653 q 213 641 186 653 q 256 601 240 629 q 431 667 331 667 q 529 639 490 667 z "},"s":{"ha":650,"x_min":54,"x_max":603,"o":"m 318 -14 q 94 43 156 -14 q 67 102 72 64 q 61 208 61 140 l 110 208 q 167 92 122 136 q 290 49 211 49 q 429 143 429 49 q 399 203 429 179 q 304 256 369 226 l 232 286 q 99 371 143 325 q 54 482 54 417 q 127 618 54 569 q 318 667 200 667 q 542 610 481 667 q 569 551 564 589 q 575 444 575 514 l 526 444 q 469 560 514 517 q 346 604 425 604 q 257 578 286 604 q 228 510 228 553 q 252 452 228 475 q 326 407 276 429 l 410 372 q 558 285 513 329 q 603 171 603 242 q 524 34 603 82 q 318 -14 446 -14 z "},"š":{"ha":650,"x_min":54,"x_max":603,"o":"m 318 -14 q 94 43 156 -14 q 67 102 72 64 q 61 208 61 140 l 110 208 q 167 92 122 136 q 290 49 211 49 q 429 143 429 49 q 399 203 429 179 q 304 256 369 226 l 232 286 q 99 371 143 325 q 54 482 54 417 q 127 618 54 569 q 318 667 200 667 q 542 610 481 667 q 569 551 564 589 q 575 444 575 514 l 526 444 q 469 560 514 517 q 346 604 425 604 q 257 578 286 604 q 228 510 228 553 q 252 452 228 475 q 326 407 276 429 l 410 372 q 558 285 513 329 q 603 171 603 242 q 524 34 603 82 q 318 -14 446 -14 m 218 722 l 107 896 l 204 896 l 308 785 l 413 896 l 510 896 l 399 722 l 218 722 z "},"ş":{"ha":650,"x_min":54,"x_max":603,"o":"m 258 -194 l 328 -194 q 368 -181 353 -194 q 383 -150 383 -168 q 368 -117 383 -129 q 328 -104 353 -104 l 265 -104 l 265 -11 q 94 43 146 -3 q 67 102 72 64 q 61 208 61 140 l 110 208 q 167 92 122 136 q 290 49 211 49 q 429 143 429 49 q 399 203 429 179 q 304 256 369 226 l 232 286 q 99 371 143 325 q 54 482 54 417 q 127 618 54 569 q 318 667 200 667 q 542 610 481 667 q 569 551 564 589 q 575 444 575 514 l 526 444 q 469 560 514 517 q 346 604 425 604 q 257 578 286 604 q 228 510 228 553 q 252 452 228 475 q 326 407 276 429 l 410 372 q 558 285 513 329 q 603 171 603 242 q 535 42 603 90 q 356 -12 468 -6 l 356 -42 q 447 -71 414 -42 q 481 -150 481 -100 q 447 -229 481 -200 q 356 -258 414 -258 l 258 -258 l 258 -194 z "},"ß":{"ha":796,"x_min":83,"x_max":771,"o":"m 528 -14 q 427 1 474 -14 q 354 42 381 15 q 326 95 332 64 q 319 167 319 126 l 361 167 q 404 85 367 121 q 500 49 442 49 q 572 75 546 49 q 597 139 597 101 q 566 219 597 188 q 472 293 535 251 q 396 347 425 324 q 347 406 367 371 q 326 486 326 440 q 346 571 326 539 q 404 640 365 603 q 455 697 438 671 q 472 764 472 724 q 445 842 472 815 q 375 868 418 868 q 264 694 264 868 l 264 0 l 83 0 l 83 694 q 160 881 83 831 q 382 931 236 931 q 580 894 514 931 q 646 792 646 857 q 620 700 646 736 q 544 619 594 664 q 490 565 507 586 q 472 514 472 543 q 506 433 472 465 q 610 360 540 400 q 694 306 663 329 q 749 247 726 282 q 771 167 771 213 q 699 32 771 78 q 528 -14 626 -14 z "},"t":{"ha":492,"x_min":29,"x_max":494,"o":"m 314 -14 q 165 38 218 -14 q 113 189 113 90 l 113 590 l 29 590 l 29 653 l 113 653 l 113 778 l 182 861 l 293 861 l 293 653 l 446 653 l 446 590 l 293 590 l 293 181 q 311 77 293 106 q 365 49 329 49 q 443 67 404 49 q 475 86 458 75 l 494 47 q 451 17 476 32 q 314 -14 393 -14 z "},"u":{"ha":785,"x_min":-14,"x_max":701,"o":"m 354 -14 q 160 47 222 -14 q 97 242 97 108 l 97 472 q 78 577 97 543 q 0 611 58 611 l -14 611 l -14 653 l 153 653 q 229 636 203 653 q 267 581 256 619 q 278 472 278 543 l 278 240 q 307 92 278 136 q 396 49 336 49 q 489 93 447 49 q 521 139 504 108 l 521 653 l 701 653 l 701 0 l 583 0 l 535 63 l 528 63 q 482 24 508 42 q 354 -14 429 -14 z "},"ú":{"ha":785,"x_min":-14,"x_max":701,"o":"m 354 -14 q 160 47 222 -14 q 97 242 97 108 l 97 472 q 78 577 97 543 q 0 611 58 611 l -14 611 l -14 653 l 153 653 q 229 636 203 653 q 267 581 256 619 q 278 472 278 543 l 278 240 q 307 92 278 136 q 396 49 336 49 q 489 93 447 49 q 521 139 504 108 l 521 653 l 701 653 l 701 0 l 583 0 l 535 63 l 528 63 q 482 24 508 42 q 354 -14 429 -14 m 340 694 l 399 889 l 564 889 l 417 694 l 340 694 z "},"û":{"ha":785,"x_min":-14,"x_max":701,"o":"m 354 -14 q 160 47 222 -14 q 97 242 97 108 l 97 472 q 78 577 97 543 q 0 611 58 611 l -14 611 l -14 653 l 153 653 q 229 636 203 653 q 267 581 256 619 q 278 472 278 543 l 278 240 q 307 92 278 136 q 396 49 336 49 q 489 93 447 49 q 521 139 504 108 l 521 653 l 701 653 l 701 0 l 583 0 l 535 63 l 528 63 q 482 24 508 42 q 354 -14 429 -14 m 182 731 l 293 904 l 474 904 l 585 731 l 501 731 l 383 842 l 265 731 l 182 731 z "},"ü":{"ha":785,"x_min":-14,"x_max":701,"o":"m 354 -14 q 160 47 222 -14 q 97 242 97 108 l 97 472 q 78 577 97 543 q 0 611 58 611 l -14 611 l -14 653 l 153 653 q 229 636 203 653 q 267 581 256 619 q 278 472 278 543 l 278 240 q 307 92 278 136 q 396 49 336 49 q 489 93 447 49 q 521 139 504 108 l 521 653 l 701 653 l 701 0 l 583 0 l 535 63 l 528 63 q 482 24 508 42 q 354 -14 429 -14 m 369 715 q 313 738 333 715 q 292 793 292 760 q 313 849 292 826 q 369 871 333 871 q 426 849 406 871 q 447 793 447 826 q 426 738 447 760 q 369 715 406 715 m 619 715 q 563 738 583 715 q 542 793 542 760 q 563 849 542 826 q 619 871 583 871 q 676 849 656 871 q 697 793 697 826 q 676 738 697 760 q 619 715 656 715 z "},"ụ":{"ha":785,"x_min":-14,"x_max":701,"o":"m 354 -14 q 160 47 222 -14 q 97 242 97 108 l 97 472 q 78 577 97 543 q 0 611 58 611 l -14 611 l -14 653 l 153 653 q 229 636 203 653 q 267 581 256 619 q 278 472 278 543 l 278 240 q 307 92 278 136 q 396 49 336 49 q 489 93 447 49 q 521 139 504 108 l 521 653 l 701 653 l 701 0 l 583 0 l 535 63 l 528 63 q 482 24 508 42 q 354 -14 429 -14 m 393 -240 q 342 -221 360 -240 q 324 -169 324 -201 q 342 -119 324 -139 q 393 -100 361 -100 q 445 -119 426 -100 q 464 -169 464 -139 q 445 -221 464 -201 q 393 -240 426 -240 z "},"ù":{"ha":785,"x_min":-14,"x_max":701,"o":"m 354 -14 q 160 47 222 -14 q 97 242 97 108 l 97 472 q 78 577 97 543 q 0 611 58 611 l -14 611 l -14 653 l 153 653 q 229 636 203 653 q 267 581 256 619 q 278 472 278 543 l 278 240 q 307 92 278 136 q 396 49 336 49 q 489 93 447 49 q 521 139 504 108 l 521 653 l 701 653 l 701 0 l 583 0 l 535 63 l 528 63 q 482 24 508 42 q 354 -14 429 -14 m 386 715 l 239 910 l 404 910 l 463 715 l 386 715 z "},"ủ":{"ha":785,"x_min":-14,"x_max":701,"o":"m 354 -14 q 160 47 222 -14 q 97 242 97 108 l 97 472 q 78 577 97 543 q 0 611 58 611 l -14 611 l -14 653 l 153 653 q 229 636 203 653 q 267 581 256 619 q 278 472 278 543 l 278 240 q 307 92 278 136 q 396 49 336 49 q 489 93 447 49 q 521 139 504 108 l 521 653 l 701 653 l 701 0 l 583 0 l 535 63 l 528 63 q 482 24 508 42 q 354 -14 429 -14 m 393 724 q 400 761 394 746 q 418 797 406 776 q 439 854 439 829 q 426 882 439 871 q 393 893 413 893 q 354 878 368 893 q 333 821 340 864 l 257 822 q 289 940 257 900 q 393 979 321 979 q 494 947 458 979 q 531 867 531 915 q 522 828 531 844 q 499 794 514 813 q 474 759 482 774 q 465 724 467 744 l 393 724 z "},"ư":{"ha":785,"x_min":-14,"x_max":882,"o":"m 882 796 q 835 673 882 729 q 701 599 789 617 l 701 0 l 583 0 l 535 63 l 528 63 q 482 24 508 42 q 354 -14 429 -14 q 160 47 222 -14 q 97 242 97 108 l 97 472 q 78 577 97 543 q 0 611 58 611 l -14 611 l -14 653 l 153 653 q 229 636 203 653 q 267 581 256 619 q 278 472 278 543 l 278 240 q 307 92 278 136 q 396 49 336 49 q 489 93 447 49 q 521 139 504 108 l 521 653 l 654 653 q 742 702 713 661 q 771 796 771 743 l 882 796 z "},"ứ":{"ha":785,"x_min":-14,"x_max":882,"o":"m 882 796 q 835 673 882 729 q 701 599 789 617 l 701 0 l 583 0 l 535 63 l 528 63 q 482 24 508 42 q 354 -14 429 -14 q 160 47 222 -14 q 97 242 97 108 l 97 472 q 78 577 97 543 q 0 611 58 611 l -14 611 l -14 653 l 153 653 q 229 636 203 653 q 267 581 256 619 q 278 472 278 543 l 278 240 q 307 92 278 136 q 396 49 336 49 q 489 93 447 49 q 521 139 504 108 l 521 653 l 654 653 q 742 702 713 661 q 771 796 771 743 l 882 796 m 350 715 l 408 910 l 574 910 l 426 715 l 350 715 z "},"ự":{"ha":785,"x_min":-14,"x_max":882,"o":"m 882 796 q 835 673 882 729 q 701 599 789 617 l 701 0 l 583 0 l 535 63 l 528 63 q 482 24 508 42 q 354 -14 429 -14 q 160 47 222 -14 q 97 242 97 108 l 97 472 q 78 577 97 543 q 0 611 58 611 l -14 611 l -14 653 l 153 653 q 229 636 203 653 q 267 581 256 619 q 278 472 278 543 l 278 240 q 307 92 278 136 q 396 49 336 49 q 489 93 447 49 q 521 139 504 108 l 521 653 l 654 653 q 742 702 713 661 q 771 796 771 743 l 882 796 m 393 -240 q 342 -221 360 -240 q 324 -169 324 -201 q 342 -119 324 -139 q 393 -100 361 -100 q 445 -119 426 -100 q 464 -169 464 -139 q 445 -221 464 -201 q 393 -240 426 -240 z "},"ừ":{"ha":785,"x_min":-14,"x_max":882,"o":"m 882 796 q 835 673 882 729 q 701 599 789 617 l 701 0 l 583 0 l 535 63 l 528 63 q 482 24 508 42 q 354 -14 429 -14 q 160 47 222 -14 q 97 242 97 108 l 97 472 q 78 577 97 543 q 0 611 58 611 l -14 611 l -14 653 l 153 653 q 229 636 203 653 q 267 581 256 619 q 278 472 278 543 l 278 240 q 307 92 278 136 q 396 49 336 49 q 489 93 447 49 q 521 139 504 108 l 521 653 l 654 653 q 742 702 713 661 q 771 796 771 743 l 882 796 m 386 715 l 239 910 l 404 910 l 463 715 l 386 715 z "},"ử":{"ha":785,"x_min":-14,"x_max":882,"o":"m 882 796 q 835 673 882 729 q 701 599 789 617 l 701 0 l 583 0 l 535 63 l 528 63 q 482 24 508 42 q 354 -14 429 -14 q 160 47 222 -14 q 97 242 97 108 l 97 472 q 78 577 97 543 q 0 611 58 611 l -14 611 l -14 653 l 153 653 q 229 636 203 653 q 267 581 256 619 q 278 472 278 543 l 278 240 q 307 92 278 136 q 396 49 336 49 q 489 93 447 49 q 521 139 504 108 l 521 653 l 654 653 q 742 702 713 661 q 771 796 771 743 l 882 796 m 393 724 q 400 761 394 746 q 418 797 406 776 q 439 854 439 829 q 426 882 439 871 q 393 893 413 893 q 354 878 368 893 q 333 821 340 864 l 257 822 q 289 940 257 900 q 393 979 321 979 q 494 947 458 979 q 531 867 531 915 q 522 828 531 844 q 499 794 514 813 q 474 759 482 774 q 465 724 467 744 l 393 724 z "},"ữ":{"ha":785,"x_min":-14,"x_max":882,"o":"m 882 796 q 835 673 882 729 q 701 599 789 617 l 701 0 l 583 0 l 535 63 l 528 63 q 482 24 508 42 q 354 -14 429 -14 q 160 47 222 -14 q 97 242 97 108 l 97 472 q 78 577 97 543 q 0 611 58 611 l -14 611 l -14 653 l 153 653 q 229 636 203 653 q 267 581 256 619 q 278 472 278 543 l 278 240 q 307 92 278 136 q 396 49 336 49 q 489 93 447 49 q 521 139 504 108 l 521 653 l 654 653 q 742 702 713 661 q 771 796 771 743 l 882 796 m 229 764 q 253 872 229 842 q 324 903 278 903 q 365 894 347 903 q 404 869 382 885 q 422 857 407 867 q 451 847 438 847 q 487 864 474 847 q 500 903 500 881 l 556 903 q 532 794 556 825 q 463 764 508 764 q 424 772 440 764 q 382 797 407 781 q 357 813 369 806 q 333 819 344 819 q 298 803 311 819 q 285 764 285 786 l 229 764 z "},"ũ":{"ha":785,"x_min":-14,"x_max":701,"o":"m 354 -14 q 160 47 222 -14 q 97 242 97 108 l 97 472 q 78 577 97 543 q 0 611 58 611 l -14 611 l -14 653 l 153 653 q 229 636 203 653 q 267 581 256 619 q 278 472 278 543 l 278 240 q 307 92 278 136 q 396 49 336 49 q 489 93 447 49 q 521 139 504 108 l 521 653 l 701 653 l 701 0 l 583 0 l 535 63 l 528 63 q 482 24 508 42 q 354 -14 429 -14 m 229 764 q 253 872 229 842 q 324 903 278 903 q 365 894 347 903 q 404 869 382 885 q 422 857 407 867 q 451 847 438 847 q 487 864 474 847 q 500 903 500 881 l 556 903 q 532 794 556 825 q 463 764 508 764 q 424 772 440 764 q 382 797 407 781 q 357 813 369 806 q 333 819 344 819 q 298 803 311 819 q 285 764 285 786 l 229 764 z "},"v":{"ha":694,"x_min":-17,"x_max":688,"o":"m 107 493 q 43 602 69 571 q -17 636 17 633 l -17 664 l 35 667 q 191 631 128 667 q 301 493 254 594 l 424 226 l 613 653 l 688 653 l 392 -14 l 342 -14 l 107 493 z "},"w":{"ha":1076,"x_min":-19,"x_max":1060,"o":"m 110 493 q 47 603 76 571 q -19 638 18 635 l -19 664 l 47 667 q 197 629 139 667 q 300 493 254 592 l 418 228 l 511 450 l 492 493 q 429 601 458 568 q 369 638 400 635 l 369 664 l 422 667 q 581 628 517 667 q 689 493 644 590 l 817 214 l 986 653 l 1060 653 l 804 -14 l 740 -14 l 560 376 l 399 -14 l 336 -14 l 110 493 z "},"x":{"ha":689,"x_min":4,"x_max":685,"o":"m 267 290 l 133 514 q 71 591 104 563 q 4 625 38 619 l 4 653 l 136 653 q 240 625 200 653 q 314 542 281 597 l 381 429 l 563 653 l 656 653 l 421 364 l 556 139 q 618 62 585 90 q 685 28 651 33 l 685 0 l 553 0 q 449 28 489 0 q 375 111 408 56 l 307 224 l 125 0 l 32 0 l 267 290 z "},"y":{"ha":707,"x_min":-22,"x_max":683,"o":"m 128 -229 q 251 -200 204 -229 q 328 -94 299 -171 l 357 -19 l 107 528 q -22 639 61 628 l -22 667 l 100 667 q 208 637 161 667 q 281 556 256 607 l 440 206 l 610 653 l 683 653 l 403 -90 q 313 -238 364 -199 q 183 -278 261 -278 l 128 -278 l 128 -229 z "},"ý":{"ha":706,"x_min":-22,"x_max":683,"o":"m 128 -229 q 251 -200 204 -229 q 328 -94 299 -171 l 357 -19 l 107 528 q -22 639 61 628 l -22 667 l 100 667 q 208 637 161 667 q 281 556 256 607 l 440 206 l 610 653 l 683 653 l 403 -90 q 313 -238 364 -199 q 183 -278 261 -278 l 128 -278 l 128 -229 m 350 694 l 408 889 l 574 889 l 426 694 l 350 694 z "},"ÿ":{"ha":706,"x_min":-22,"x_max":710,"o":"m 128 -229 q 251 -200 204 -229 q 328 -94 299 -171 l 357 -19 l 107 528 q -22 639 61 628 l -22 667 l 100 667 q 208 637 161 667 q 281 556 256 607 l 440 206 l 610 653 l 683 653 l 403 -90 q 313 -238 364 -199 q 183 -278 261 -278 l 128 -278 l 128 -229 m 382 722 q 325 744 346 722 q 304 800 304 767 q 325 856 304 833 q 382 878 346 878 q 439 856 418 878 q 460 800 460 833 q 439 744 460 767 q 382 722 418 722 m 632 722 q 575 744 596 722 q 554 800 554 767 q 575 856 554 833 q 632 878 596 878 q 689 856 668 878 q 710 800 710 833 q 689 744 710 767 q 632 722 668 722 z "},"ỵ":{"ha":707,"x_min":-22,"x_max":683,"o":"m 128 -229 q 251 -200 204 -229 q 328 -94 299 -171 l 357 -19 l 107 528 q -22 639 61 628 l -22 667 l 100 667 q 208 637 161 667 q 281 556 256 607 l 440 206 l 610 653 l 683 653 l 403 -90 q 313 -238 364 -199 q 183 -278 261 -278 l 128 -278 l 128 -229 m 496 -240 q 444 -221 463 -240 q 426 -169 426 -201 q 445 -119 426 -139 q 496 -100 464 -100 q 548 -119 529 -100 q 567 -169 567 -139 q 548 -221 567 -201 q 496 -240 529 -240 z "},"ỳ":{"ha":707,"x_min":-22,"x_max":683,"o":"m 128 -229 q 251 -200 204 -229 q 328 -94 299 -171 l 357 -19 l 107 528 q -22 639 61 628 l -22 667 l 100 667 q 208 637 161 667 q 281 556 256 607 l 440 206 l 610 653 l 683 653 l 403 -90 q 313 -238 364 -199 q 183 -278 261 -278 l 128 -278 l 128 -229 m 347 715 l 200 910 l 365 910 l 424 715 l 347 715 z "},"ỷ":{"ha":707,"x_min":-22,"x_max":683,"o":"m 128 -229 q 251 -200 204 -229 q 328 -94 299 -171 l 357 -19 l 107 528 q -22 639 61 628 l -22 667 l 100 667 q 208 637 161 667 q 281 556 256 607 l 440 206 l 610 653 l 683 653 l 403 -90 q 313 -238 364 -199 q 183 -278 261 -278 l 128 -278 l 128 -229 m 354 724 q 361 761 356 746 q 379 797 367 776 q 400 854 400 829 q 387 882 400 871 q 354 893 374 893 q 315 878 329 893 q 294 821 301 864 l 218 822 q 250 940 218 900 q 354 979 282 979 q 456 947 419 979 q 492 867 492 915 q 483 828 492 844 q 460 794 475 813 q 435 759 443 774 q 426 724 428 744 l 354 724 z "},"ỹ":{"ha":707,"x_min":-22,"x_max":683,"o":"m 128 -229 q 251 -200 204 -229 q 328 -94 299 -171 l 357 -19 l 107 528 q -22 639 61 628 l -22 667 l 100 667 q 208 637 161 667 q 281 556 256 607 l 440 206 l 610 653 l 683 653 l 403 -90 q 313 -238 364 -199 q 183 -278 261 -278 l 128 -278 l 128 -229 m 190 764 q 215 872 190 842 q 285 903 239 903 q 326 894 308 903 q 365 869 343 885 q 383 857 368 867 q 413 847 399 847 q 448 864 435 847 q 461 903 461 881 l 517 903 q 493 794 517 825 q 424 764 469 764 q 385 772 401 764 q 343 797 368 781 q 318 813 331 806 q 294 819 306 819 q 259 803 272 819 q 246 764 246 786 l 190 764 z "},"z":{"ha":685,"x_min":54,"x_max":667,"o":"m 54 43 l 419 590 l 256 590 q 132 559 168 590 q 96 458 96 528 l 54 458 l 54 542 q 172 653 54 653 l 667 653 l 272 63 l 638 63 l 638 0 l 54 0 l 54 43 z "},"ž":{"ha":685,"x_min":54,"x_max":667,"o":"m 54 43 l 419 590 l 256 590 q 132 559 168 590 q 96 458 96 528 l 54 458 l 54 542 q 172 653 54 653 l 667 653 l 272 63 l 638 63 l 638 0 l 54 0 l 54 43 m 268 722 l 157 896 l 254 896 l 358 785 l 463 896 l 560 896 l 449 722 l 268 722 z "},"ª":{"ha":450,"x_min":58,"x_max":372,"o":"m 182 550 q 93 574 128 550 q 58 647 58 597 q 107 731 58 701 q 250 760 156 760 l 272 760 q 254 856 272 831 q 208 882 236 882 q 153 864 172 882 q 125 810 133 846 l 85 810 q 88 858 85 840 q 104 890 90 876 q 222 917 126 917 q 333 885 294 917 q 372 760 372 853 l 372 557 l 308 557 l 282 592 l 278 592 q 182 550 239 550 m 208 585 q 272 632 247 585 l 272 725 l 250 725 q 184 703 210 725 q 158 647 158 682 q 173 599 158 614 q 208 585 188 585 z "},"º":{"ha":468,"x_min":60,"x_max":408,"o":"m 233 510 q 103 573 146 510 q 60 733 60 636 q 103 894 60 832 q 233 957 146 957 q 365 894 322 957 q 408 733 408 832 q 365 573 408 636 q 233 510 322 510 m 233 544 q 289 587 269 544 q 308 733 308 629 q 289 881 308 839 q 233 922 269 922 q 179 881 199 922 q 160 733 160 839 q 179 588 160 631 q 233 544 199 544 z "},"А":{"ha":899,"x_min":11,"x_max":939,"o":"m 872 -6 q 714 31 785 -6 q 599 175 643 68 l 567 253 l 197 253 l 83 0 l 11 0 l 421 917 l 483 917 l 794 175 q 939 36 847 46 l 939 1 q 872 -6 914 -6 m 226 315 l 540 315 l 388 678 l 226 315 z "},"Б":{"ha":882,"x_min":21,"x_max":847,"o":"m 132 736 q 113 841 132 807 q 35 875 93 875 l 21 875 l 21 917 l 631 917 q 749 806 749 917 l 749 688 l 707 688 q 663 815 707 775 q 533 854 619 854 l 313 854 l 313 528 l 438 528 q 733 472 619 528 q 847 264 847 415 q 733 56 847 113 q 438 0 619 0 l 132 0 l 132 736 m 417 56 q 597 105 542 56 q 653 264 653 154 q 597 423 653 374 q 417 472 542 472 l 410 472 q 340 465 368 472 l 313 458 l 313 69 q 340 63 328 64 q 410 56 371 56 l 417 56 z "},"В":{"ha":894,"x_min":21,"x_max":847,"o":"m 132 736 q 113 841 132 807 q 35 875 93 875 l 21 875 l 21 917 l 396 917 q 688 868 571 917 q 806 674 806 819 q 755 553 806 610 q 613 474 704 497 q 847 254 847 450 q 732 55 847 110 q 438 0 617 0 l 132 0 l 132 736 m 417 501 q 559 544 507 501 q 611 681 611 586 q 549 819 611 776 q 396 861 488 861 q 338 856 358 861 l 313 851 l 313 501 l 417 501 m 417 56 q 592 106 532 56 q 653 247 653 156 q 417 439 653 439 l 313 439 l 313 69 q 340 63 328 64 q 410 56 371 56 l 417 56 z "},"Г":{"ha":756,"x_min":21,"x_max":735,"o":"m 132 736 q 113 841 132 807 q 35 875 93 875 l 21 875 l 21 917 l 617 917 q 735 806 735 917 l 735 688 l 693 688 q 649 815 693 775 q 519 854 606 854 l 313 854 l 313 0 l 132 0 l 132 736 z "},"Ѓ":{"ha":756,"x_min":21,"x_max":735,"o":"m 132 736 q 113 841 132 807 q 35 875 93 875 l 21 875 l 21 917 l 617 917 q 735 806 735 917 l 735 688 l 693 688 q 649 815 693 775 q 519 854 606 854 l 313 854 l 313 0 l 132 0 l 132 736 m 318 976 l 376 1171 l 542 1171 l 394 976 l 318 976 z "},"Ґ":{"ha":747,"x_min":21,"x_max":735,"o":"m 132 736 q 113 841 132 807 q 35 875 93 875 l 21 875 l 21 917 l 519 917 q 649 956 606 917 q 693 1083 693 996 l 735 1083 l 735 965 q 617 854 735 854 l 313 854 l 313 0 l 132 0 l 132 736 z "},"Д":{"ha":964,"x_min":-1,"x_max":935,"o":"m -1 14 q 13 49 -1 35 q 47 63 26 63 l 96 63 q 187 367 160 201 q 214 736 214 533 q 194 841 214 807 q 117 875 175 875 l 103 875 l 103 917 l 838 917 l 838 63 l 886 63 q 921 49 907 63 q 935 14 935 35 l 935 -256 l 865 -256 q 833 -101 854 -157 q 778 -23 811 -46 q 692 0 744 0 l 242 0 q 156 -23 189 0 q 101 -101 122 -46 q 68 -256 79 -157 l -1 -256 l -1 14 m 657 63 l 657 854 l 351 854 q 326 386 351 568 q 240 63 301 204 l 657 63 z "},"Е":{"ha":833,"x_min":21,"x_max":807,"o":"m 132 736 q 113 841 132 807 q 35 875 93 875 l 21 875 l 21 917 l 633 917 q 751 806 751 917 l 751 688 l 710 688 q 666 814 710 774 q 536 854 622 854 l 313 854 l 313 507 l 674 507 l 674 444 l 313 444 l 313 63 l 550 63 q 682 98 629 63 q 769 221 735 133 l 807 207 l 767 97 q 724 24 749 47 q 646 0 699 0 l 132 0 l 132 736 z "},"Ѐ":{"ha":833,"x_min":21,"x_max":807,"o":"m 132 736 q 113 841 132 807 q 35 875 93 875 l 21 875 l 21 917 l 633 917 q 751 806 751 917 l 751 688 l 710 688 q 666 814 710 774 q 536 854 622 854 l 313 854 l 313 507 l 674 507 l 674 444 l 313 444 l 313 63 l 550 63 q 682 98 629 63 q 769 221 735 133 l 807 207 l 767 97 q 724 24 749 47 q 646 0 699 0 l 132 0 l 132 736 m 410 979 l 263 1174 l 428 1174 l 486 979 l 410 979 z "},"Ё":{"ha":833,"x_min":21,"x_max":807,"o":"m 132 736 q 113 841 132 807 q 35 875 93 875 l 21 875 l 21 917 l 633 917 q 751 806 751 917 l 751 688 l 710 688 q 666 814 710 774 q 536 854 622 854 l 313 854 l 313 507 l 674 507 l 674 444 l 313 444 l 313 63 l 550 63 q 682 98 629 63 q 769 221 735 133 l 807 207 l 767 97 q 724 24 749 47 q 646 0 699 0 l 132 0 l 132 736 m 294 1014 q 238 1036 258 1014 q 217 1092 217 1058 q 238 1147 217 1125 q 294 1169 258 1169 q 351 1147 331 1169 q 372 1092 372 1125 q 351 1036 372 1058 q 294 1014 331 1014 m 544 1014 q 488 1036 508 1014 q 467 1092 467 1058 q 488 1147 467 1125 q 544 1169 508 1169 q 601 1147 581 1169 q 622 1092 622 1125 q 601 1036 622 1058 q 544 1014 581 1014 z "},"Ж":{"ha":1374,"x_min":-14,"x_max":1388,"o":"m 75 -14 q -14 0 28 -14 l -14 33 q 87 81 29 40 q 194 181 144 121 l 474 514 l 281 769 q 183 847 235 826 q 40 868 131 868 l 40 917 l 124 917 q 259 878 200 917 q 369 771 318 839 l 596 472 l 596 917 l 778 917 l 778 472 l 1004 771 q 1115 878 1056 839 q 1250 917 1174 917 l 1333 917 l 1333 868 q 1191 847 1243 868 q 1093 769 1139 826 l 900 514 l 1179 181 q 1287 81 1229 121 q 1388 33 1344 40 l 1388 0 q 1299 -14 1346 -14 q 1122 23 1200 -14 q 960 167 1043 60 l 778 396 l 778 0 l 596 0 l 596 396 l 414 167 q 252 23 331 60 q 75 -14 174 -14 z "},"З":{"ha":806,"x_min":26,"x_max":763,"o":"m 389 -28 q 177 18 264 -28 q 26 160 90 64 l 68 194 q 191 78 124 121 q 354 35 258 35 q 508 86 447 35 q 568 229 568 138 q 505 383 568 328 q 332 438 442 438 l 214 438 l 214 500 l 332 500 q 431 522 383 500 q 510 588 479 544 q 540 694 540 632 q 513 799 540 757 q 444 862 485 842 q 361 882 403 882 q 203 821 268 882 q 111 653 138 760 l 68 653 q 74 775 68 732 q 103 847 79 818 q 215 917 138 890 q 368 944 292 944 q 626 893 524 944 q 728 701 728 842 q 671 567 728 631 q 514 479 614 503 q 701 394 640 464 q 763 236 763 325 q 707 83 763 142 q 566 -2 651 24 q 389 -28 481 -28 z "},"И":{"ha":985,"x_min":21,"x_max":882,"o":"m 132 736 q 113 841 132 807 q 35 875 93 875 l 21 875 l 21 917 l 188 917 q 264 900 238 917 q 301 845 290 883 q 313 736 313 807 l 313 181 l 715 917 l 882 917 l 882 0 l 701 0 l 701 736 l 299 0 l 132 0 l 132 736 z "},"Й":{"ha":985,"x_min":21,"x_max":882,"o":"m 132 736 q 113 841 132 807 q 35 875 93 875 l 21 875 l 21 917 l 188 917 q 264 900 238 917 q 301 845 290 883 q 313 736 313 807 l 313 181 l 715 917 l 882 917 l 882 0 l 701 0 l 701 736 l 299 0 l 132 0 l 132 736 m 506 979 q 388 1015 439 979 q 310 1110 336 1050 l 349 1139 q 412 1090 372 1110 q 506 1069 451 1069 q 599 1090 560 1069 q 663 1139 639 1110 l 701 1110 q 624 1015 675 1050 q 506 979 572 979 z "},"Ѝ":{"ha":985,"x_min":21,"x_max":882,"o":"m 132 736 q 113 841 132 807 q 35 875 93 875 l 21 875 l 21 917 l 188 917 q 264 900 238 917 q 301 845 290 883 q 313 736 313 807 l 313 181 l 715 917 l 882 917 l 882 0 l 701 0 l 701 736 l 299 0 l 132 0 l 132 736 m 486 979 l 339 1174 l 504 1174 l 563 979 l 486 979 z "},"К":{"ha":963,"x_min":21,"x_max":978,"o":"m 876 -14 q 709 22 789 -14 q 538 153 629 57 l 314 386 l 314 0 l 133 0 l 132 736 q 113 841 132 807 q 35 875 93 875 l 21 875 l 21 917 l 188 917 q 263 900 236 917 q 302 844 290 883 q 314 736 314 806 l 314 472 l 554 771 q 665 877 606 838 q 800 917 724 917 l 897 917 l 897 868 q 749 847 811 868 q 643 769 688 825 l 436 514 l 757 181 q 873 81 808 124 q 978 33 938 39 l 978 0 q 876 -14 936 -14 z "},"Ќ":{"ha":963,"x_min":21,"x_max":978,"o":"m 876 -14 q 709 22 789 -14 q 538 153 629 57 l 314 386 l 314 0 l 133 0 l 132 736 q 113 841 132 807 q 35 875 93 875 l 21 875 l 21 917 l 188 917 q 263 900 236 917 q 302 844 290 883 q 314 736 314 806 l 314 472 l 554 771 q 665 877 606 838 q 800 917 724 917 l 897 917 l 897 868 q 749 847 811 868 q 643 769 688 825 l 436 514 l 757 181 q 873 81 808 124 q 978 33 938 39 l 978 0 q 876 -14 936 -14 m 399 939 l 457 1133 l 622 1133 l 475 939 l 399 939 z "},"Л":{"ha":943,"x_min":-11,"x_max":840,"o":"m 72 -21 q -11 -8 26 -21 l -11 35 q 104 108 57 49 q 180 317 151 168 q 208 736 208 467 q 189 841 208 807 q 111 875 169 875 l 97 875 l 97 917 l 840 917 l 840 0 l 660 0 l 660 854 l 360 854 l 360 736 q 284 149 360 319 q 72 -21 208 -21 z "},"М":{"ha":1204,"x_min":103,"x_max":1176,"o":"m 1176 -62 q 960 8 1026 -62 q 894 236 894 78 l 894 728 l 590 0 l 544 0 l 172 756 l 172 0 l 103 0 l 103 917 l 272 917 l 608 235 l 893 917 l 1075 917 l 1075 236 q 1097 44 1075 106 q 1176 -28 1119 -17 l 1176 -62 z "},"Н":{"ha":1000,"x_min":21,"x_max":979,"o":"m 132 736 q 113 841 132 807 q 35 875 93 875 l 21 875 l 21 917 l 188 917 q 264 900 238 917 q 301 845 290 883 q 313 736 313 807 l 313 507 l 688 507 l 688 917 l 868 917 l 868 181 q 888 76 868 110 q 965 42 907 42 l 979 42 l 979 0 l 813 0 q 736 16 763 0 q 699 70 710 32 q 688 181 688 108 l 688 444 l 313 444 l 313 0 l 132 0 l 132 736 z "},"О":{"ha":1018,"x_min":51,"x_max":967,"o":"m 510 -28 q 270 36 375 -28 q 108 211 165 100 q 51 458 51 322 q 108 706 51 594 q 270 881 165 817 q 510 944 375 944 q 749 881 644 944 q 910 706 853 817 q 967 458 967 594 q 910 211 967 322 q 749 36 853 100 q 510 -28 644 -28 m 510 35 q 706 145 636 35 q 775 458 775 256 q 706 772 775 661 q 510 882 636 882 q 315 772 383 882 q 246 458 246 661 q 315 145 246 256 q 510 35 383 35 z "},"П":{"ha":957,"x_min":21,"x_max":854,"o":"m 132 736 q 113 841 132 807 q 35 875 93 875 l 21 875 l 21 917 l 854 917 l 854 0 l 674 0 l 674 854 l 313 854 l 313 0 l 132 0 l 132 736 z "},"Р":{"ha":801,"x_min":21,"x_max":778,"o":"m 132 736 q 113 841 132 807 q 35 875 93 875 l 21 875 l 21 917 l 403 917 q 662 860 546 917 q 778 638 778 804 q 717 469 778 529 q 582 390 657 410 q 444 371 507 371 l 313 371 l 313 0 l 132 0 l 132 736 m 396 426 q 531 476 478 426 q 583 644 583 526 q 531 811 583 761 q 403 861 479 861 q 340 856 363 861 l 313 851 l 313 426 l 396 426 z "},"С":{"ha":943,"x_min":51,"x_max":910,"o":"m 510 -28 q 263 34 367 -28 q 106 203 160 96 q 51 444 51 310 q 111 698 51 583 q 276 878 171 813 q 510 944 381 944 q 714 913 632 944 q 839 832 796 882 q 869 753 864 800 q 875 621 875 706 l 833 621 q 736 815 807 749 q 551 882 665 882 q 328 782 410 882 q 246 444 246 682 q 321 151 246 268 q 551 35 396 35 q 730 86 649 35 q 861 233 811 138 l 910 196 q 749 26 843 79 q 510 -28 654 -28 z "},"Т":{"ha":799,"x_min":22,"x_max":793,"o":"m 322 854 l 224 854 q 105 815 146 854 q 64 688 64 776 l 22 688 l 22 806 q 140 917 22 917 l 793 917 l 793 854 l 503 854 l 503 0 l 322 0 l 322 854 z "},"У":{"ha":858,"x_min":-43,"x_max":850,"o":"m 197 36 q 325 56 271 36 q 404 132 379 76 l 414 153 l 129 736 q 55 844 99 804 q -43 889 11 883 l -43 917 l 96 917 q 231 875 172 917 q 322 764 290 833 l 514 372 l 760 917 l 850 917 l 494 132 q 407 24 465 63 q 267 -14 349 -14 l 197 -14 l 197 36 z "},"Ў":{"ha":858,"x_min":-43,"x_max":850,"o":"m 197 36 q 325 56 271 36 q 404 132 379 76 l 414 153 l 129 736 q 55 844 99 804 q -43 889 11 883 l -43 917 l 96 917 q 231 875 172 917 q 322 764 290 833 l 514 372 l 760 917 l 850 917 l 494 132 q 407 24 465 63 q 267 -14 349 -14 l 197 -14 l 197 36 m 471 979 q 353 1015 404 979 q 275 1110 301 1050 l 314 1139 q 377 1090 338 1110 q 471 1069 417 1069 q 565 1090 525 1069 q 628 1139 604 1110 l 667 1110 q 589 1015 640 1050 q 471 979 538 979 z "},"Ф":{"ha":1140,"x_min":36,"x_max":1106,"o":"m 481 49 q 151 153 265 49 q 36 438 36 257 q 151 722 36 618 q 481 826 265 826 q 383 931 481 931 l 369 931 l 369 972 l 536 972 q 634 940 607 972 q 661 826 661 907 q 991 722 876 826 q 1106 438 1106 618 q 991 153 1106 257 q 661 49 876 49 l 661 -56 l 481 -56 l 481 49 m 481 764 q 295 672 360 764 q 231 438 231 581 q 295 203 231 294 q 481 111 360 111 l 481 764 m 661 111 q 846 203 781 111 q 911 438 911 294 q 846 672 911 581 q 661 764 781 764 l 661 111 z "},"Х":{"ha":899,"x_min":-18,"x_max":926,"o":"m 365 432 l 168 736 q 79 839 132 794 q -18 889 26 883 l -18 917 l 135 917 q 263 872 206 917 q 361 764 321 828 l 482 578 l 750 917 l 840 917 l 522 515 l 740 181 q 829 78 776 122 q 926 28 882 33 l 926 0 l 774 0 q 645 44 703 0 q 547 153 588 89 l 407 369 l 114 0 l 24 0 l 365 432 z "},"Ч":{"ha":921,"x_min":-1,"x_max":818,"o":"m 638 361 q 558 340 606 347 q 458 333 510 333 q 110 639 110 333 l 110 736 q 90 841 110 807 q 13 875 71 875 l -1 875 l -1 917 l 165 917 q 242 900 215 917 q 279 845 268 883 q 290 736 290 807 l 290 625 q 344 455 290 514 q 485 396 397 396 q 638 424 565 396 l 638 917 l 818 917 l 818 0 l 638 0 l 638 361 z "},"Ц":{"ha":981,"x_min":21,"x_max":951,"o":"m 882 -257 q 849 -101 871 -157 q 794 -23 828 -46 q 708 0 761 0 l 132 0 l 132 736 q 113 841 132 807 q 35 875 93 875 l 21 875 l 21 917 l 188 917 q 264 900 238 917 q 301 845 290 883 q 313 736 313 807 l 313 63 l 674 63 l 674 917 l 854 917 l 854 63 l 903 63 q 938 49 924 63 q 951 14 951 35 l 951 -257 l 882 -257 z "},"Ш":{"ha":1318,"x_min":21,"x_max":1215,"o":"m 132 736 q 113 841 132 807 q 35 875 93 875 l 21 875 l 21 917 l 188 917 q 264 900 238 917 q 301 845 290 883 q 313 736 313 807 l 313 63 l 583 63 l 583 917 l 764 917 l 764 63 l 1035 63 l 1035 917 l 1215 917 l 1215 0 l 132 0 l 132 736 z "},"Щ":{"ha":1342,"x_min":21,"x_max":1313,"o":"m 1243 -257 q 1210 -101 1232 -157 q 1156 -23 1189 -46 q 1069 0 1122 0 l 132 0 l 132 736 q 113 841 132 807 q 35 875 93 875 l 21 875 l 21 917 l 188 917 q 264 900 238 917 q 301 845 290 883 q 313 736 313 807 l 313 63 l 583 63 l 583 917 l 764 917 l 764 63 l 1035 63 l 1035 917 l 1215 917 l 1215 63 l 1264 63 q 1299 49 1285 63 q 1313 14 1313 35 l 1313 -257 l 1243 -257 z "},"Џ":{"ha":957,"x_min":21,"x_max":854,"o":"m 424 0 l 132 0 l 132 736 q 113 841 132 807 q 35 875 93 875 l 21 875 l 21 917 l 188 917 q 264 900 238 917 q 301 845 290 883 q 313 736 313 807 l 313 63 l 674 63 l 674 917 l 854 917 l 854 0 l 563 0 l 542 -243 l 444 -243 l 424 0 z "},"Ь":{"ha":871,"x_min":21,"x_max":847,"o":"m 132 736 q 113 841 132 807 q 35 875 93 875 l 21 875 l 21 917 l 188 917 q 264 900 238 917 q 301 845 290 883 q 313 736 313 807 l 313 542 l 438 542 q 731 481 614 542 q 847 271 847 419 q 731 61 847 122 q 438 0 614 0 l 132 0 l 132 736 m 417 56 q 596 110 539 56 q 653 271 653 164 q 596 432 653 378 q 417 486 539 486 l 410 486 q 340 479 368 486 l 313 472 l 313 69 q 340 63 328 64 q 410 56 371 56 l 417 56 z "},"Ъ":{"ha":1003,"x_min":33,"x_max":979,"o":"m 264 854 l 249 854 q 132 804 169 854 q 89 639 94 754 l 33 639 l 33 868 q 47 903 33 889 q 82 917 61 917 l 444 917 l 444 542 l 569 542 q 863 481 746 542 q 979 271 979 419 q 863 61 979 122 q 569 0 746 0 l 264 0 l 264 854 m 549 56 q 728 110 671 56 q 785 271 785 164 q 728 432 785 378 q 549 486 671 486 l 542 486 q 472 479 500 486 l 444 472 l 444 69 q 472 63 460 64 q 542 56 503 56 l 549 56 z "},"Ы":{"ha":1242,"x_min":21,"x_max":1221,"o":"m 132 736 q 113 841 132 807 q 35 875 93 875 l 21 875 l 21 917 l 188 917 q 264 900 238 917 q 301 845 290 883 q 313 736 313 807 l 313 542 l 424 542 q 717 481 600 542 q 833 271 833 419 q 717 61 833 122 q 424 0 600 0 l 132 0 l 132 736 m 1054 0 q 978 16 1004 0 q 940 70 951 32 q 929 181 929 108 l 929 917 l 1110 917 l 1110 181 q 1129 76 1110 110 q 1207 42 1149 42 l 1221 42 l 1221 0 l 1054 0 m 403 56 q 582 110 525 56 q 639 271 639 164 q 582 432 639 378 q 403 486 525 486 q 339 479 367 486 l 313 472 l 313 69 q 339 63 325 64 q 403 56 369 56 z "},"Љ":{"ha":1372,"x_min":-11,"x_max":1349,"o":"m 72 -21 q -11 -8 26 -21 l -11 35 q 104 108 57 49 q 180 317 151 168 q 208 736 208 467 q 190 841 208 807 q 113 875 171 875 l 99 875 l 99 917 l 828 917 l 828 542 l 953 542 q 1234 480 1119 542 q 1349 271 1349 418 q 1234 62 1349 124 q 953 0 1119 0 l 647 0 l 647 854 l 361 854 l 361 736 q 285 150 361 321 q 72 -21 210 -21 m 932 56 q 1154 271 1154 56 q 932 486 1154 486 l 925 486 q 856 479 883 486 l 828 472 l 828 69 q 856 63 843 64 q 925 56 886 56 l 932 56 z "},"Њ":{"ha":1394,"x_min":21,"x_max":1375,"o":"m 132 736 q 113 841 132 807 q 35 875 93 875 l 21 875 l 21 917 l 188 917 q 264 900 238 917 q 301 845 290 883 q 313 736 313 807 l 313 507 l 661 507 l 661 917 l 842 917 l 842 514 l 965 514 q 1258 455 1140 514 q 1375 257 1375 396 q 1258 59 1375 118 q 965 0 1140 0 l 661 0 l 661 444 l 313 444 l 313 0 l 132 0 l 132 736 m 944 56 q 1181 257 1181 56 q 944 458 1181 458 l 938 458 q 876 453 904 458 q 840 444 847 449 l 840 69 q 868 63 856 64 q 938 56 899 56 l 944 56 z "},"Ѕ":{"ha":779,"x_min":65,"x_max":728,"o":"m 379 -24 q 229 -3 301 -24 q 111 55 157 17 q 65 143 65 93 l 65 306 l 104 306 q 192 101 125 164 q 378 39 258 39 q 506 74 458 39 q 553 174 553 108 q 518 268 553 229 q 410 353 483 307 l 239 456 q 106 568 146 510 q 67 704 67 626 q 151 878 67 814 q 378 942 235 942 q 528 922 456 942 q 646 863 600 901 q 692 775 692 825 l 692 613 l 653 613 q 565 817 629 754 q 393 879 501 879 q 274 843 318 879 q 231 744 231 807 q 265 655 231 690 q 375 575 299 619 l 546 474 q 685 363 643 417 q 728 235 728 310 q 637 45 728 114 q 379 -24 546 -24 z "},"Є":{"ha":943,"x_min":51,"x_max":910,"o":"m 510 -28 q 263 34 367 -28 q 106 203 160 96 q 51 444 51 310 q 111 698 51 583 q 276 878 171 813 q 510 944 381 944 q 714 913 632 944 q 839 832 796 882 q 869 753 864 800 q 875 621 875 706 l 833 621 q 736 815 807 749 q 551 882 665 882 q 247 493 261 882 l 676 493 l 676 431 l 246 431 q 324 147 249 260 q 551 35 400 35 q 730 86 649 35 q 861 233 811 138 l 910 196 q 749 26 843 79 q 510 -28 654 -28 z "},"Э":{"ha":944,"x_min":35,"x_max":893,"o":"m 435 -28 q 196 26 290 -28 q 35 196 101 79 l 83 233 q 215 86 133 138 q 393 35 296 35 q 620 147 544 35 q 699 431 696 260 l 268 431 l 268 493 l 697 493 q 393 882 683 882 q 208 815 279 882 q 111 621 138 749 l 69 621 q 75 753 69 706 q 106 832 81 800 q 231 913 149 882 q 435 944 313 944 q 669 878 564 944 q 833 698 774 813 q 893 444 893 583 q 839 203 893 310 q 681 34 785 96 q 435 -28 578 -28 z "},"І":{"ha":422,"x_min":110,"x_max":401,"o":"m 235 0 q 158 16 185 0 q 121 70 132 32 q 110 181 110 108 l 110 917 l 290 917 l 290 181 q 310 76 290 110 q 388 42 329 42 l 401 42 l 401 0 l 235 0 z "},"Ї":{"ha":422,"x_min":7,"x_max":401,"o":"m 85 993 q 28 1015 49 993 q 7 1071 7 1038 q 28 1126 7 1104 q 85 1149 49 1149 q 142 1126 121 1149 q 163 1071 163 1104 q 142 1015 163 1038 q 85 993 121 993 m 315 993 q 258 1015 279 993 q 238 1071 238 1038 q 258 1126 238 1104 q 315 1149 279 1149 q 372 1126 351 1149 q 393 1071 393 1104 q 372 1015 393 1038 q 315 993 351 993 m 235 0 q 158 16 185 0 q 121 70 132 32 q 110 181 110 108 l 110 917 l 290 917 l 290 181 q 310 76 290 110 q 388 42 329 42 l 401 42 l 401 0 l 235 0 z "},"Ј":{"ha":386,"x_min":-26,"x_max":283,"o":"m -26 -149 q 72 -83 40 -140 q 103 115 103 -25 l 103 917 l 283 917 l 283 115 q 258 -73 283 -8 q 167 -164 232 -137 q -26 -190 101 -190 l -26 -149 z "},"Ћ":{"ha":1033,"x_min":22,"x_max":964,"o":"m 658 597 q 876 541 789 597 q 964 347 964 485 l 964 0 l 783 0 l 783 347 q 744 486 783 444 q 631 528 704 528 q 531 515 579 528 q 450 479 483 501 l 450 0 l 269 0 l 269 854 l 224 854 q 105 815 146 854 q 64 688 64 776 l 22 688 l 22 806 q 140 917 22 917 l 793 917 l 793 854 l 450 854 l 450 542 q 542 581 486 564 q 658 597 599 597 z "},"Ю":{"ha":1274,"x_min":21,"x_max":1221,"o":"m 806 -28 q 597 32 692 -28 q 447 199 503 92 q 389 444 390 307 l 313 444 l 313 0 l 132 0 l 132 736 q 113 841 132 807 q 35 875 93 875 l 21 875 l 21 917 l 188 917 q 264 900 238 917 q 301 845 290 883 q 313 736 313 807 l 313 507 l 390 507 q 458 735 401 636 q 605 890 514 835 q 806 944 696 944 q 1017 883 922 944 q 1167 710 1113 821 q 1221 458 1221 600 q 1167 206 1221 317 q 1017 34 1113 96 q 806 -28 922 -28 m 806 35 q 920 83 869 35 q 1000 226 971 131 q 1029 458 1029 321 q 1000 691 1029 596 q 920 834 971 786 q 806 882 869 882 q 690 834 740 882 q 612 691 640 786 q 583 458 583 596 q 612 226 583 321 q 690 83 640 131 q 806 35 740 35 z "},"Я":{"ha":871,"x_min":13,"x_max":850,"o":"m 107 -22 q 53 -18 82 -22 q 13 -8 24 -14 l 13 26 q 92 67 50 33 q 185 179 133 100 l 317 389 q 160 474 228 408 q 92 640 92 539 q 206 855 92 793 q 467 917 321 917 l 850 917 l 850 875 l 836 875 q 758 841 778 875 q 739 736 739 807 l 739 0 l 557 0 l 557 378 l 496 378 l 371 179 q 239 24 301 69 q 107 -22 176 -22 m 557 433 l 557 851 l 529 856 q 467 861 507 861 q 382 837 424 861 q 313 764 340 813 q 286 647 286 715 q 313 528 286 576 q 383 457 340 481 q 474 433 426 433 l 557 433 z "},"Ђ":{"ha":997,"x_min":22,"x_max":964,"o":"m 658 597 q 883 527 803 597 q 964 278 964 457 q 888 23 964 101 q 665 -56 813 -56 l 665 -21 q 753 53 722 -21 q 783 278 783 128 q 740 470 783 413 q 631 528 696 528 q 531 515 579 528 q 450 479 483 501 l 450 0 l 269 0 l 269 854 l 224 854 q 105 815 146 854 q 64 688 64 776 l 22 688 l 22 806 q 140 917 22 917 l 793 917 l 793 854 l 450 854 l 450 542 q 542 581 486 564 q 658 597 599 597 z "},"Ѣ":{"ha":996,"x_min":22,"x_max":972,"o":"m 563 542 q 856 481 739 542 q 972 271 972 419 q 856 61 972 122 q 563 0 739 0 l 257 0 l 257 715 l 224 715 q 105 676 146 715 q 64 549 64 638 l 22 549 l 22 667 q 140 778 22 778 l 256 778 q 230 851 251 826 q 160 875 208 875 l 146 875 l 146 917 l 313 917 q 405 886 378 917 q 436 778 432 856 l 710 778 l 710 715 l 438 715 l 438 542 l 563 542 m 542 56 q 721 110 664 56 q 778 271 778 164 q 721 432 778 378 q 542 486 664 486 l 535 486 q 465 479 493 486 l 438 472 l 438 69 q 465 63 453 64 q 535 56 496 56 l 542 56 z "},"Ѫ":{"ha":1374,"x_min":-14,"x_max":1388,"o":"m 75 -14 q -14 0 28 -14 l -14 33 q 88 81 29 40 q 194 181 146 121 l 375 396 q 564 507 464 501 l 351 769 q 253 844 308 821 q 110 868 197 868 l 110 917 l 1236 917 l 1236 868 q 1092 848 1143 868 q 997 769 1042 828 l 811 507 q 913 474 865 504 q 1006 388 960 444 l 1179 181 q 1288 81 1231 121 q 1388 33 1344 40 l 1388 0 q 1299 -14 1346 -14 q 1122 23 1200 -14 q 960 167 1044 60 l 778 396 l 778 0 l 596 0 l 596 396 l 414 167 q 253 23 332 60 q 75 -14 175 -14 m 689 453 l 965 854 l 369 854 l 689 453 z "},"Ѳ":{"ha":1018,"x_min":51,"x_max":967,"o":"m 510 944 q 749 881 644 944 q 910 706 853 817 q 967 458 967 594 q 910 211 967 322 q 749 36 853 100 q 510 -28 644 -28 q 270 36 375 -28 q 108 211 165 100 q 51 458 51 322 q 108 706 51 594 q 270 881 165 817 q 510 944 375 944 m 510 882 q 324 785 392 882 q 247 507 256 688 l 774 507 q 697 785 765 688 q 510 882 628 882 m 510 35 q 704 142 635 35 q 775 444 774 249 l 246 444 q 317 141 247 247 q 510 35 386 35 z "},"Ѵ":{"ha":942,"x_min":-46,"x_max":914,"o":"m 92 754 q 28 863 60 831 q -46 900 -3 894 l -46 928 l 13 931 q 174 896 104 931 q 288 754 243 861 l 499 256 l 686 736 q 867 919 757 919 q 914 917 886 919 l 914 889 q 848 872 872 885 q 803 828 824 860 q 758 736 782 797 l 471 -14 l 415 -14 l 92 754 z "},"Ғ":{"ha":756,"x_min":21,"x_max":735,"o":"m 617 917 q 735 806 735 917 l 735 688 l 693 688 q 649 815 693 775 q 519 854 606 854 l 313 854 l 313 489 l 472 489 l 472 426 l 313 426 l 313 0 l 132 0 l 132 426 l 57 426 l 57 489 l 132 489 l 132 736 q 113 841 132 807 q 35 875 93 875 l 21 875 l 21 917 l 617 917 z "},"Ҕ":{"ha":889,"x_min":21,"x_max":826,"o":"m 521 597 q 742 515 657 597 q 826 278 826 433 q 766 35 826 138 q 604 -121 706 -67 q 382 -175 503 -175 l 382 -140 q 506 -86 444 -140 q 606 64 567 -32 q 646 278 646 160 q 593 465 646 400 q 453 531 540 531 q 313 493 388 531 l 313 0 l 132 0 l 132 736 q 113 841 132 807 q 35 875 93 875 l 21 875 l 21 917 l 617 917 q 735 806 735 917 l 735 688 l 693 688 q 649 815 693 775 q 519 854 606 854 l 313 854 l 313 556 q 420 587 375 576 q 521 597 465 597 z "},"Җ":{"ha":1386,"x_min":-14,"x_max":1400,"o":"m 1351 63 q 1386 49 1372 63 q 1400 14 1400 35 l 1400 -257 l 1331 -257 q 1289 -81 1318 -139 q 1210 -7 1260 -24 q 1084 45 1144 6 q 960 167 1024 85 l 778 396 l 778 0 l 596 0 l 596 396 l 414 167 q 252 23 331 60 q 75 -14 174 -14 q -14 0 28 -14 l -14 33 q 87 81 29 40 q 194 181 144 121 l 474 514 l 281 769 q 183 847 235 826 q 40 868 131 868 l 40 917 l 124 917 q 259 878 200 917 q 369 771 318 839 l 596 472 l 596 917 l 778 917 l 778 472 l 1004 771 q 1115 878 1056 839 q 1250 917 1174 917 l 1333 917 l 1333 868 q 1191 847 1243 868 q 1093 769 1139 826 l 900 514 l 1179 181 q 1238 119 1203 153 q 1305 74 1279 86 q 1351 63 1331 63 z "},"Ҙ":{"ha":806,"x_min":26,"x_max":763,"o":"m 763 236 q 674 53 763 117 q 458 -24 586 -11 l 458 -257 l 389 -257 q 346 -26 379 -76 q 162 26 239 -19 q 26 160 85 72 l 68 194 q 191 78 124 121 q 354 35 258 35 q 508 86 447 35 q 568 229 568 138 q 505 383 568 328 q 332 438 442 438 l 214 438 l 214 500 l 332 500 q 431 522 383 500 q 510 588 479 544 q 540 694 540 632 q 513 799 540 757 q 444 862 485 842 q 361 882 403 882 q 203 821 268 882 q 111 653 138 760 l 68 653 q 74 775 68 732 q 103 847 79 818 q 215 917 138 890 q 368 944 292 944 q 626 893 524 944 q 728 701 728 842 q 671 567 728 631 q 514 479 614 503 q 701 394 640 464 q 763 236 763 325 z "},"Қ":{"ha":969,"x_min":21,"x_max":983,"o":"m 935 63 q 969 49 956 63 q 983 14 983 35 l 983 -257 l 914 -257 q 871 -79 900 -137 q 790 -6 842 -21 q 667 44 729 7 q 538 153 606 81 l 314 386 l 314 0 l 133 0 l 132 736 q 113 841 132 807 q 35 875 93 875 l 21 875 l 21 917 l 188 917 q 263 900 236 917 q 302 844 290 883 q 314 736 314 806 l 314 472 l 554 771 q 665 877 606 838 q 800 917 724 917 l 897 917 l 897 868 q 749 847 811 868 q 643 769 688 825 l 436 514 l 757 181 q 804 133 779 156 q 882 77 853 92 q 935 63 911 63 z "},"Ҝ":{"ha":1074,"x_min":21,"x_max":1089,"o":"m 868 181 q 984 81 919 124 q 1089 33 1049 39 l 1089 0 q 988 -14 1047 -14 q 820 22 900 -14 q 649 153 740 57 l 433 378 l 433 256 l 357 256 l 357 404 l 314 404 l 314 0 l 133 0 l 132 736 q 113 841 132 807 q 35 875 93 875 l 21 875 l 21 917 l 188 917 q 263 900 236 917 q 302 844 290 883 q 314 736 314 806 l 314 467 l 357 467 l 357 643 l 433 643 l 433 482 l 665 771 q 776 877 717 838 q 911 917 835 917 l 1008 917 l 1008 868 q 860 847 922 868 q 754 769 799 825 l 547 514 l 868 181 z "},"Ҡ":{"ha":1139,"x_min":22,"x_max":1154,"o":"m 1053 -14 q 885 22 965 -14 q 714 153 806 57 l 490 386 l 490 0 l 310 0 l 308 854 l 224 854 q 105 815 146 854 q 64 688 64 776 l 22 688 l 22 806 q 140 917 22 917 l 490 917 l 490 472 l 731 771 q 841 877 782 838 q 976 917 900 917 l 1074 917 l 1074 868 q 926 847 988 868 q 819 769 864 825 l 613 514 l 933 181 q 1049 81 985 124 q 1154 33 1114 39 l 1154 0 q 1053 -14 1113 -14 z "},"Ң":{"ha":994,"x_min":21,"x_max":965,"o":"m 896 -257 q 863 -101 885 -157 q 808 -23 842 -46 q 722 0 775 0 l 688 0 l 688 444 l 313 444 l 313 0 l 132 0 l 132 736 q 113 841 132 807 q 35 875 93 875 l 21 875 l 21 917 l 188 917 q 264 900 238 917 q 301 845 290 883 q 313 736 313 807 l 313 507 l 688 507 l 688 917 l 868 917 l 868 63 l 917 63 q 951 49 938 63 q 965 14 965 35 l 965 -257 l 896 -257 z "},"Ԥ":{"ha":981,"x_min":21,"x_max":951,"o":"m 903 63 q 938 49 924 63 q 951 14 951 35 l 951 -257 l 882 -257 q 849 -101 871 -157 q 794 -23 828 -46 q 708 0 761 0 l 674 0 l 674 854 l 313 854 l 313 0 l 132 0 l 132 736 q 113 841 132 807 q 35 875 93 875 l 21 875 l 21 917 l 854 917 l 854 63 l 903 63 z "},"Ҫ":{"ha":943,"x_min":51,"x_max":910,"o":"m 910 196 q 779 44 854 97 q 597 -22 704 -8 l 597 -257 l 528 -257 q 485 -28 518 -78 q 251 40 349 -22 q 102 208 153 103 q 51 444 51 314 q 111 698 51 583 q 276 878 171 813 q 510 944 381 944 q 714 913 632 944 q 839 832 796 882 q 869 753 864 800 q 875 621 875 706 l 833 621 q 736 815 807 749 q 551 882 665 882 q 328 782 410 882 q 246 444 246 682 q 321 151 246 268 q 551 35 396 35 q 730 86 649 35 q 861 233 811 138 l 910 196 z "},"Ү":{"ha":886,"x_min":-43,"x_max":883,"o":"m 388 367 l 142 736 q 51 840 100 796 q -43 889 1 885 l -43 917 l 108 917 q 237 872 179 917 q 335 764 294 828 l 524 479 l 793 917 l 883 917 l 568 404 l 568 0 l 388 0 l 388 367 z "},"Ұ":{"ha":886,"x_min":-43,"x_max":883,"o":"m 572 411 l 681 411 l 681 349 l 568 349 l 568 0 l 388 0 l 388 349 l 265 349 l 265 411 l 358 411 l 142 736 q 51 840 100 796 q -43 889 1 885 l -43 917 l 108 917 q 237 872 179 917 q 335 764 294 828 l 524 479 l 793 917 l 883 917 l 572 411 z "},"Ҷ":{"ha":944,"x_min":-1,"x_max":915,"o":"m 867 63 q 901 49 888 63 q 915 14 915 35 l 915 -257 l 846 -257 q 813 -101 835 -157 q 758 -23 792 -46 q 672 0 725 0 l 638 0 l 638 361 q 558 340 606 347 q 458 333 510 333 q 110 639 110 333 l 110 736 q 90 841 110 807 q 13 875 71 875 l -1 875 l -1 917 l 165 917 q 242 900 215 917 q 279 845 268 883 q 290 736 290 807 l 290 625 q 344 455 290 514 q 485 396 397 396 q 638 424 565 396 l 638 917 l 818 917 l 818 63 l 867 63 z "},"Ҹ":{"ha":921,"x_min":-1,"x_max":818,"o":"m 818 917 l 818 0 l 638 0 l 638 361 q 522 336 594 343 l 522 181 l 446 181 l 446 333 q 110 639 110 340 l 110 736 q 90 841 110 807 q 13 875 71 875 l -1 875 l -1 917 l 165 917 q 242 900 215 917 q 279 845 268 883 q 290 736 290 807 l 290 625 q 332 469 290 526 q 446 399 374 411 l 446 568 l 522 568 l 522 397 q 638 424 583 403 l 638 917 l 818 917 z "},"Һ":{"ha":921,"x_min":103,"x_max":922,"o":"m 283 556 q 363 576 315 569 q 463 583 411 583 q 811 278 811 583 l 811 181 q 831 76 811 110 q 908 42 850 42 l 922 42 l 922 0 l 756 0 q 679 17 706 0 q 642 72 653 33 q 631 181 631 110 l 631 292 q 577 462 631 403 q 436 521 524 521 q 283 493 356 521 l 283 0 l 103 0 l 103 917 l 283 917 l 283 556 z "},"Ӏ":{"ha":422,"x_min":110,"x_max":401,"o":"m 235 0 q 158 16 185 0 q 121 70 132 32 q 110 181 110 108 l 110 917 l 290 917 l 290 181 q 310 76 290 110 q 388 42 329 42 l 401 42 l 401 0 l 235 0 z "},"Ӂ":{"ha":1374,"x_min":-14,"x_max":1388,"o":"m 75 -14 q -14 0 28 -14 l -14 33 q 87 81 29 40 q 194 181 144 121 l 474 514 l 281 769 q 183 847 235 826 q 40 868 131 868 l 40 917 l 124 917 q 259 878 200 917 q 369 771 318 839 l 596 472 l 596 917 l 778 917 l 778 472 l 1004 771 q 1115 878 1056 839 q 1250 917 1174 917 l 1333 917 l 1333 868 q 1191 847 1243 868 q 1093 769 1139 826 l 900 514 l 1179 181 q 1287 81 1229 121 q 1388 33 1344 40 l 1388 0 q 1299 -14 1346 -14 q 1122 23 1200 -14 q 960 167 1043 60 l 778 396 l 778 0 l 596 0 l 596 396 l 414 167 q 252 23 331 60 q 75 -14 174 -14 m 688 979 q 569 1015 621 979 q 492 1110 518 1050 l 531 1139 q 594 1090 554 1110 q 688 1069 633 1069 q 781 1090 742 1069 q 844 1139 821 1110 l 883 1110 q 806 1015 857 1050 q 688 979 754 979 z "},"Ӌ":{"ha":915,"x_min":-1,"x_max":818,"o":"m 818 917 l 818 0 l 783 0 q 697 -23 731 0 q 642 -101 664 -46 q 610 -257 621 -157 l 540 -257 l 540 14 q 554 49 540 35 q 589 63 568 63 l 638 63 l 638 361 q 558 340 606 347 q 458 333 510 333 q 110 639 110 333 l 110 736 q 90 841 110 807 q 13 875 71 875 l -1 875 l -1 917 l 165 917 q 242 900 215 917 q 279 845 268 883 q 290 736 290 807 l 290 625 q 344 455 290 514 q 485 396 397 396 q 638 424 565 396 l 638 917 l 818 917 z "},"Ӑ":{"ha":899,"x_min":11,"x_max":939,"o":"m 872 -6 q 714 31 785 -6 q 599 175 643 68 l 567 253 l 197 253 l 83 0 l 11 0 l 421 917 l 483 917 l 794 175 q 939 36 847 46 l 939 1 q 872 -6 914 -6 m 226 315 l 540 315 l 388 678 l 226 315 m 450 979 q 332 1015 383 979 q 254 1110 281 1050 l 293 1139 q 356 1090 317 1110 q 450 1069 396 1069 q 544 1090 504 1069 q 607 1139 583 1110 l 646 1110 q 568 1015 619 1050 q 450 979 517 979 z "},"Ӓ":{"ha":899,"x_min":11,"x_max":939,"o":"m 872 -6 q 714 31 785 -6 q 599 175 643 68 l 567 253 l 197 253 l 83 0 l 11 0 l 421 917 l 483 917 l 794 175 q 939 36 847 46 l 939 1 q 872 -6 914 -6 m 226 315 l 540 315 l 388 678 l 226 315 m 325 993 q 268 1015 289 993 q 247 1071 247 1038 q 268 1126 247 1104 q 325 1149 289 1149 q 382 1126 361 1149 q 403 1071 403 1104 q 382 1015 403 1038 q 325 993 361 993 m 575 993 q 518 1015 539 993 q 497 1071 497 1038 q 518 1126 497 1104 q 575 1149 539 1149 q 632 1126 611 1149 q 653 1071 653 1104 q 632 1015 653 1038 q 575 993 611 993 z "},"Ӗ":{"ha":833,"x_min":21,"x_max":807,"o":"m 132 736 q 113 841 132 807 q 35 875 93 875 l 21 875 l 21 917 l 633 917 q 751 806 751 917 l 751 688 l 710 688 q 666 814 710 774 q 536 854 622 854 l 313 854 l 313 507 l 674 507 l 674 444 l 313 444 l 313 63 l 550 63 q 682 98 629 63 q 769 221 735 133 l 807 207 l 767 97 q 724 24 749 47 q 646 0 699 0 l 132 0 l 132 736 m 417 979 q 299 1015 350 979 q 221 1110 247 1050 l 260 1139 q 323 1090 283 1110 q 417 1069 363 1069 q 510 1090 471 1069 q 574 1139 550 1110 l 613 1110 q 535 1015 586 1050 q 417 979 483 979 z "},"Ә":{"ha":990,"x_min":51,"x_max":939,"o":"m 483 -28 q 162 85 272 -28 q 51 401 51 199 q 56 488 51 444 l 744 488 q 451 882 744 882 q 285 836 356 882 q 146 686 214 790 l 85 732 q 245 886 149 828 q 474 944 342 944 q 717 881 611 944 q 881 703 822 817 q 939 450 939 590 q 880 190 939 299 q 717 27 821 82 q 483 -28 614 -28 m 481 35 q 671 119 597 35 q 744 396 744 203 l 233 396 q 481 35 233 35 z "},"Ӝ":{"ha":1374,"x_min":-14,"x_max":1388,"o":"m 75 -14 q -14 0 28 -14 l -14 33 q 87 81 29 40 q 194 181 144 121 l 474 514 l 281 769 q 183 847 235 826 q 40 868 131 868 l 40 917 l 124 917 q 259 878 200 917 q 369 771 318 839 l 596 472 l 596 917 l 778 917 l 778 472 l 1004 771 q 1115 878 1056 839 q 1250 917 1174 917 l 1333 917 l 1333 868 q 1191 847 1243 868 q 1093 769 1139 826 l 900 514 l 1179 181 q 1287 81 1229 121 q 1388 33 1344 40 l 1388 0 q 1299 -14 1346 -14 q 1122 23 1200 -14 q 960 167 1043 60 l 778 396 l 778 0 l 596 0 l 596 396 l 414 167 q 252 23 331 60 q 75 -14 174 -14 m 563 993 q 506 1015 526 993 q 485 1071 485 1038 q 506 1126 485 1104 q 563 1149 526 1149 q 619 1126 599 1149 q 640 1071 640 1104 q 619 1015 640 1038 q 563 993 599 993 m 813 993 q 756 1015 776 993 q 735 1071 735 1038 q 756 1126 735 1104 q 813 1149 776 1149 q 869 1126 849 1149 q 890 1071 890 1104 q 869 1015 890 1038 q 813 993 849 993 z "},"Ӟ":{"ha":806,"x_min":26,"x_max":763,"o":"m 389 -28 q 177 18 264 -28 q 26 160 90 64 l 68 194 q 191 78 124 121 q 354 35 258 35 q 508 86 447 35 q 568 229 568 138 q 505 383 568 328 q 332 438 442 438 l 214 438 l 214 500 l 332 500 q 431 522 383 500 q 510 588 479 544 q 540 694 540 632 q 513 799 540 757 q 444 862 485 842 q 361 882 403 882 q 203 821 268 882 q 111 653 138 760 l 68 653 q 74 775 68 732 q 103 847 79 818 q 215 917 138 890 q 368 944 292 944 q 626 893 524 944 q 728 701 728 842 q 671 567 728 631 q 514 479 614 503 q 701 394 640 464 q 763 236 763 325 q 707 83 763 142 q 566 -2 651 24 q 389 -28 481 -28 m 250 993 q 193 1015 214 993 q 172 1071 172 1038 q 193 1126 172 1104 q 250 1149 214 1149 q 307 1126 286 1149 q 328 1071 328 1104 q 307 1015 328 1038 q 250 993 286 993 m 500 993 q 443 1015 464 993 q 422 1071 422 1038 q 443 1126 422 1104 q 500 1149 464 1149 q 557 1126 536 1149 q 578 1071 578 1104 q 557 1015 578 1038 q 500 993 536 993 z "},"Ӣ":{"ha":985,"x_min":21,"x_max":882,"o":"m 132 736 q 113 841 132 807 q 35 875 93 875 l 21 875 l 21 917 l 188 917 q 264 900 238 917 q 301 845 290 883 q 313 736 313 807 l 313 181 l 715 917 l 882 917 l 882 0 l 701 0 l 701 736 l 299 0 l 132 0 l 132 736 m 299 1024 l 299 1142 l 686 1142 l 686 1024 l 299 1024 z "},"Ӥ":{"ha":985,"x_min":21,"x_max":882,"o":"m 132 736 q 113 841 132 807 q 35 875 93 875 l 21 875 l 21 917 l 188 917 q 264 900 238 917 q 301 845 290 883 q 313 736 313 807 l 313 181 l 715 917 l 882 917 l 882 0 l 701 0 l 701 736 l 299 0 l 132 0 l 132 736 m 368 993 q 311 1015 332 993 q 290 1071 290 1038 q 311 1126 290 1104 q 368 1149 332 1149 q 425 1126 404 1149 q 446 1071 446 1104 q 425 1015 446 1038 q 368 993 404 993 m 618 993 q 561 1015 582 993 q 540 1071 540 1038 q 561 1126 540 1104 q 618 1149 582 1149 q 675 1126 654 1149 q 696 1071 696 1104 q 675 1015 696 1038 q 618 993 654 993 z "},"Ӧ":{"ha":1018,"x_min":51,"x_max":967,"o":"m 510 -28 q 270 36 375 -28 q 108 211 165 100 q 51 458 51 322 q 108 706 51 594 q 270 881 165 817 q 510 944 375 944 q 749 881 644 944 q 910 706 853 817 q 967 458 967 594 q 910 211 967 322 q 749 36 853 100 q 510 -28 644 -28 m 510 35 q 706 145 636 35 q 775 458 775 256 q 706 772 775 661 q 510 882 636 882 q 315 772 383 882 q 246 458 246 661 q 315 145 246 256 q 510 35 383 35 m 385 993 q 328 1015 349 993 q 307 1071 307 1038 q 328 1126 307 1104 q 385 1149 349 1149 q 442 1126 421 1149 q 463 1071 463 1104 q 442 1015 463 1038 q 385 993 421 993 m 635 993 q 578 1015 599 993 q 557 1071 557 1038 q 578 1126 557 1104 q 635 1149 599 1149 q 692 1126 671 1149 q 713 1071 713 1104 q 692 1015 713 1038 q 635 993 671 993 z "},"Ө":{"ha":1018,"x_min":51,"x_max":967,"o":"m 510 944 q 749 881 644 944 q 910 706 853 817 q 967 458 967 594 q 910 211 967 322 q 749 36 853 100 q 510 -28 644 -28 q 270 36 375 -28 q 108 211 165 100 q 51 458 51 322 q 108 706 51 594 q 270 881 165 817 q 510 944 375 944 m 510 882 q 324 785 392 882 q 247 507 256 688 l 774 507 q 697 785 765 688 q 510 882 628 882 m 510 35 q 704 142 635 35 q 775 444 774 249 l 246 444 q 317 141 247 247 q 510 35 386 35 z "},"Ӯ":{"ha":858,"x_min":-43,"x_max":850,"o":"m 197 36 q 325 56 271 36 q 404 132 379 76 l 414 153 l 129 736 q 55 844 99 804 q -43 889 11 883 l -43 917 l 96 917 q 231 875 172 917 q 322 764 290 833 l 514 372 l 760 917 l 850 917 l 494 132 q 407 24 465 63 q 267 -14 349 -14 l 197 -14 l 197 36 m 276 1024 l 276 1142 l 664 1142 l 664 1024 l 276 1024 z "},"Ӱ":{"ha":858,"x_min":-43,"x_max":850,"o":"m 197 36 q 325 56 271 36 q 404 132 379 76 l 414 153 l 129 736 q 55 844 99 804 q -43 889 11 883 l -43 917 l 96 917 q 231 875 172 917 q 322 764 290 833 l 514 372 l 760 917 l 850 917 l 494 132 q 407 24 465 63 q 267 -14 349 -14 l 197 -14 l 197 36 m 346 993 q 289 1015 310 993 q 268 1071 268 1038 q 289 1126 268 1104 q 346 1149 310 1149 q 403 1126 382 1149 q 424 1071 424 1104 q 403 1015 424 1038 q 346 993 382 993 m 596 993 q 539 1015 560 993 q 518 1071 518 1038 q 539 1126 518 1104 q 596 1149 560 1149 q 653 1126 632 1149 q 674 1071 674 1104 q 653 1015 674 1038 q 596 993 632 993 z "},"Ӳ":{"ha":858,"x_min":-43,"x_max":850,"o":"m 197 36 q 325 56 271 36 q 404 132 379 76 l 414 153 l 129 736 q 55 844 99 804 q -43 889 11 883 l -43 917 l 96 917 q 231 875 172 917 q 322 764 290 833 l 514 372 l 760 917 l 850 917 l 494 132 q 407 24 465 63 q 267 -14 349 -14 l 197 -14 l 197 36 m 363 979 l 421 1174 l 531 1174 l 411 979 l 363 979 m 515 979 l 574 1174 l 683 1174 l 564 979 l 515 979 z "},"Ӵ":{"ha":921,"x_min":-1,"x_max":818,"o":"m 638 361 q 558 340 606 347 q 458 333 510 333 q 110 639 110 333 l 110 736 q 90 841 110 807 q 13 875 71 875 l -1 875 l -1 917 l 165 917 q 242 900 215 917 q 279 845 268 883 q 290 736 290 807 l 290 625 q 344 455 290 514 q 485 396 397 396 q 638 424 565 396 l 638 917 l 818 917 l 818 0 l 638 0 l 638 361 m 336 993 q 279 1015 300 993 q 258 1071 258 1038 q 279 1126 258 1104 q 336 1149 300 1149 q 393 1126 372 1149 q 414 1071 414 1104 q 393 1015 414 1038 q 336 993 372 993 m 586 993 q 529 1015 550 993 q 508 1071 508 1038 q 529 1126 508 1104 q 586 1149 550 1149 q 643 1126 622 1149 q 664 1071 664 1104 q 643 1015 664 1038 q 586 993 622 993 z "},"Ӷ":{"ha":756,"x_min":21,"x_max":735,"o":"m 617 917 q 735 806 735 917 l 735 688 l 693 688 q 649 815 693 775 q 519 854 606 854 l 313 854 l 313 63 l 361 63 q 396 49 382 63 q 410 14 410 35 l 410 -257 l 340 -257 q 308 -101 329 -157 q 253 -23 286 -46 q 167 0 219 0 l 132 0 l 132 736 q 113 841 132 807 q 35 875 93 875 l 21 875 l 21 917 l 617 917 z "},"Ӹ":{"ha":1242,"x_min":21,"x_max":1221,"o":"m 132 736 q 113 841 132 807 q 35 875 93 875 l 21 875 l 21 917 l 188 917 q 264 900 238 917 q 301 845 290 883 q 313 736 313 807 l 313 542 l 424 542 q 717 481 600 542 q 833 271 833 419 q 717 61 833 122 q 424 0 600 0 l 132 0 l 132 736 m 1054 0 q 978 16 1004 0 q 940 70 951 32 q 929 181 929 108 l 929 917 l 1110 917 l 1110 181 q 1129 76 1110 110 q 1207 42 1149 42 l 1221 42 l 1221 0 l 1054 0 m 403 56 q 582 110 525 56 q 639 271 639 164 q 582 432 639 378 q 403 486 525 486 q 339 479 367 486 l 313 472 l 313 69 q 339 63 325 64 q 403 56 369 56 m 496 993 q 439 1015 460 993 q 418 1071 418 1038 q 439 1126 418 1104 q 496 1149 460 1149 q 553 1126 532 1149 q 574 1071 574 1104 q 553 1015 574 1038 q 496 993 532 993 m 746 993 q 689 1015 710 993 q 668 1071 668 1038 q 689 1126 668 1104 q 746 1149 710 1149 q 803 1126 782 1149 q 824 1071 824 1104 q 803 1015 824 1038 q 746 993 782 993 z "},"Ԛ":{"ha":1021,"x_min":53,"x_max":968,"o":"m 963 -285 q 640 -218 793 -285 q 367 -6 488 -151 q 138 165 222 39 q 53 458 53 290 q 110 706 53 594 q 272 881 167 817 q 511 944 376 944 q 750 881 646 944 q 911 706 854 817 q 968 458 968 594 q 881 158 968 285 q 643 -10 793 32 q 720 -130 667 -75 q 839 -217 774 -185 q 963 -249 904 -249 l 963 -285 m 511 35 q 707 145 638 35 q 776 458 776 256 q 707 772 776 661 q 511 882 638 882 q 316 772 385 882 q 247 458 247 661 q 316 145 247 256 q 511 35 385 35 z "},"Ԝ":{"ha":1258,"x_min":-53,"x_max":1229,"o":"m 85 754 q 22 863 54 831 q -53 900 -10 894 l -53 928 l 6 931 q 168 897 99 931 q 281 754 238 863 l 468 275 l 593 631 l 544 754 q 478 862 514 829 q 397 900 443 894 l 397 928 l 451 931 q 614 896 544 931 q 726 754 683 861 l 925 249 l 1163 917 l 1229 917 l 900 -12 l 844 -12 l 631 532 l 440 -12 l 385 -12 l 85 754 z "},"а":{"ha":689,"x_min":40,"x_max":617,"o":"m 276 -14 q 102 37 164 -14 q 40 174 40 88 q 73 289 40 243 q 188 358 106 335 q 415 382 269 382 l 436 382 q 403 553 436 503 q 304 604 369 604 q 215 578 250 604 q 165 479 181 551 l 89 479 q 95 560 89 526 q 124 618 101 593 q 332 667 167 667 q 544 594 471 667 q 617 375 617 521 l 617 0 l 499 0 l 450 63 l 443 63 q 404 24 431 43 q 276 -14 357 -14 m 318 56 q 368 67 347 56 q 408 100 389 79 q 436 146 426 119 l 436 319 l 415 319 q 272 284 317 319 q 228 174 228 249 q 251 86 228 117 q 318 56 275 56 z "},"б":{"ha":757,"x_min":63,"x_max":701,"o":"m 382 -14 q 149 77 235 -14 q 63 333 63 168 l 63 375 q 92 644 63 544 q 174 788 122 743 q 307 851 226 833 l 500 896 q 595 926 564 911 q 632 965 626 940 l 674 965 l 674 854 q 590 764 674 782 l 363 713 q 215 622 272 690 q 153 431 158 553 l 160 431 q 254 565 194 518 q 410 611 314 611 q 622 533 542 611 q 701 299 701 454 q 617 64 701 142 q 382 -14 533 -14 m 382 49 q 474 106 435 49 q 514 299 514 163 q 494 445 514 389 q 444 525 474 501 q 382 549 414 549 q 320 525 350 549 q 270 445 290 501 q 250 299 250 389 q 290 106 250 163 q 382 49 329 49 z "},"в":{"ha":728,"x_min":-1,"x_max":679,"o":"m 103 472 q 83 577 103 543 q 6 611 64 611 l -1 611 l -1 653 l 371 653 q 576 610 500 653 q 651 486 651 567 q 606 388 651 425 q 475 340 560 351 q 624 287 568 328 q 679 181 679 246 q 371 0 679 0 l 103 0 l 103 472 m 332 375 q 426 405 388 375 q 464 486 464 435 q 428 569 464 540 q 346 597 393 597 q 283 588 313 597 l 283 375 l 332 375 m 346 56 q 451 88 411 56 q 492 181 492 121 q 449 279 492 246 q 332 313 407 313 l 283 313 l 283 65 q 346 56 313 56 z "},"г":{"ha":611,"x_min":-1,"x_max":582,"o":"m 103 472 q 83 577 103 543 q 6 611 64 611 l -1 611 l -1 653 l 478 653 q 582 542 582 653 l 582 444 l 540 444 q 507 556 540 521 q 408 590 474 590 l 283 590 l 283 0 l 103 0 l 103 472 z "},"ѓ":{"ha":611,"x_min":-1,"x_max":582,"o":"m 103 472 q 83 577 103 543 q 6 611 64 611 l -1 611 l -1 653 l 478 653 q 582 542 582 653 l 582 444 l 540 444 q 507 556 540 521 q 408 590 474 590 l 283 590 l 283 0 l 103 0 l 103 472 m 290 715 l 349 910 l 514 910 l 367 715 l 290 715 z "},"ґ":{"ha":601,"x_min":-1,"x_max":582,"o":"m 103 472 q 83 577 103 543 q 6 611 64 611 l -1 611 l -1 653 l 408 653 q 507 688 474 653 q 540 799 540 722 l 582 799 l 582 701 q 478 590 582 590 l 283 590 l 283 0 l 103 0 l 103 472 z "},"д":{"ha":810,"x_min":13,"x_max":799,"o":"m 13 14 q 26 49 13 35 q 61 63 40 63 l 111 63 q 175 270 156 160 q 194 486 194 381 q 174 579 194 547 q 90 611 153 611 l 90 653 l 708 653 l 708 63 l 750 63 q 785 49 771 63 q 799 14 799 35 l 799 -222 l 729 -222 q 703 -85 722 -133 q 652 -19 683 -37 q 574 0 621 0 l 238 0 q 159 -19 190 0 q 108 -85 128 -37 q 82 -222 89 -133 l 13 -222 l 13 14 m 528 63 l 528 590 l 332 590 q 315 288 332 411 q 256 63 297 165 l 528 63 z "},"е":{"ha":707,"x_min":51,"x_max":663,"o":"m 371 -14 q 203 31 275 -14 q 91 152 131 75 q 51 326 51 229 q 91 511 51 435 q 200 627 131 588 q 357 667 269 667 q 513 632 443 667 q 622 534 582 597 q 663 389 663 471 q 660 329 663 363 l 657 301 l 239 301 q 279 109 239 169 q 392 49 319 49 q 503 78 458 49 q 590 164 549 108 l 633 132 q 533 28 593 69 q 371 -14 472 -14 m 475 364 q 444 549 475 494 q 357 604 414 604 q 272 548 304 604 q 239 364 239 492 l 475 364 z "},"ѐ":{"ha":707,"x_min":51,"x_max":663,"o":"m 371 -14 q 203 31 275 -14 q 91 152 131 75 q 51 326 51 229 q 91 511 51 435 q 200 627 131 588 q 357 667 269 667 q 513 632 443 667 q 622 534 582 597 q 663 389 663 471 q 660 329 663 363 l 657 301 l 239 301 q 279 109 239 169 q 392 49 319 49 q 503 78 458 49 q 590 164 549 108 l 633 132 q 533 28 593 69 q 371 -14 472 -14 m 475 364 q 444 549 475 494 q 357 604 414 604 q 272 548 304 604 q 239 364 239 492 l 475 364 m 347 715 l 200 910 l 365 910 l 424 715 l 347 715 z "},"ё":{"ha":707,"x_min":51,"x_max":663,"o":"m 371 -14 q 203 31 275 -14 q 91 152 131 75 q 51 326 51 229 q 91 511 51 435 q 200 627 131 588 q 357 667 269 667 q 513 632 443 667 q 622 534 582 597 q 663 389 663 471 q 660 329 663 363 l 657 301 l 239 301 q 279 109 239 169 q 392 49 319 49 q 503 78 458 49 q 590 164 549 108 l 633 132 q 533 28 593 69 q 371 -14 472 -14 m 475 364 q 444 549 475 494 q 357 604 414 604 q 272 548 304 604 q 239 364 239 492 l 475 364 m 229 729 q 172 751 193 729 q 151 807 151 774 q 172 863 151 840 q 229 885 193 885 q 286 863 265 885 q 307 807 307 840 q 286 751 307 774 q 229 729 265 729 m 479 729 q 422 751 443 729 q 401 807 401 774 q 422 863 401 840 q 479 885 443 885 q 536 863 515 885 q 557 807 557 840 q 536 751 557 774 q 479 729 515 729 z "},"ж":{"ha":1028,"x_min":1,"x_max":1026,"o":"m 97 -14 q 42 -10 72 -14 q 1 0 13 -6 l 1 33 q 131 139 68 50 l 303 383 l 181 547 q 42 617 128 617 l 42 653 l 69 653 q 183 628 140 653 q 269 546 226 603 l 424 340 l 424 653 l 604 653 l 604 340 l 758 546 q 844 628 801 603 q 958 653 888 653 l 986 653 l 986 617 q 847 547 900 617 l 725 383 l 897 139 q 1026 33 960 50 l 1026 0 q 986 -10 1015 -6 q 931 -14 957 -14 q 820 15 869 -14 q 724 111 771 43 l 604 282 l 604 0 l 424 0 l 424 282 l 304 111 q 208 15 257 43 q 97 -14 158 -14 z "},"з":{"ha":639,"x_min":42,"x_max":590,"o":"m 299 -14 q 42 97 128 -14 l 83 132 q 257 49 150 49 q 363 79 324 49 q 403 174 403 110 q 366 274 403 242 q 236 306 329 306 l 167 306 l 167 368 l 236 368 q 350 395 318 368 q 382 486 382 422 q 346 574 382 544 q 257 604 310 604 q 151 562 194 604 q 104 451 108 519 l 63 451 q 68 559 63 524 q 97 618 74 594 q 174 655 122 643 q 292 667 225 667 q 495 622 421 667 q 569 486 569 576 q 524 385 569 425 q 403 333 479 344 q 540 279 489 322 q 590 174 590 236 q 514 32 590 78 q 299 -14 438 -14 z "},"и":{"ha":790,"x_min":-1,"x_max":707,"o":"m 110 472 q 90 577 110 543 q 13 611 71 611 l -1 611 l -1 653 l 165 653 q 242 636 215 653 q 279 581 268 619 q 290 472 290 543 l 290 174 l 540 653 l 707 653 l 707 0 l 526 0 l 526 479 l 276 0 l 110 0 l 110 472 z "},"й":{"ha":790,"x_min":-1,"x_max":707,"o":"m 110 472 q 90 577 110 543 q 13 611 71 611 l -1 611 l -1 653 l 165 653 q 242 636 215 653 q 279 581 268 619 q 290 472 290 543 l 290 174 l 540 653 l 707 653 l 707 0 l 526 0 l 526 479 l 276 0 l 110 0 l 110 472 m 396 708 q 278 744 329 708 q 200 839 226 779 l 239 868 q 302 819 263 839 q 396 799 342 799 q 490 819 450 799 q 553 868 529 839 l 592 839 q 514 744 565 779 q 396 708 463 708 z "},"ѝ":{"ha":790,"x_min":-1,"x_max":707,"o":"m 110 472 q 90 577 110 543 q 13 611 71 611 l -1 611 l -1 653 l 165 653 q 242 636 215 653 q 279 581 268 619 q 290 472 290 543 l 290 174 l 540 653 l 707 653 l 707 0 l 526 0 l 526 479 l 276 0 l 110 0 l 110 472 m 389 715 l 242 910 l 407 910 l 465 715 l 389 715 z "},"к":{"ha":728,"x_min":-1,"x_max":726,"o":"m 631 -14 q 519 12 569 -14 q 424 97 468 38 l 290 272 l 290 0 l 110 0 l 110 472 q 90 577 110 543 q 13 611 71 611 l -1 611 l -1 653 l 165 653 q 242 636 215 653 q 279 581 268 619 q 290 472 290 543 l 290 340 l 458 546 q 547 628 506 603 q 658 653 589 653 l 686 653 l 686 617 q 611 600 644 617 q 547 547 578 583 l 413 383 l 597 139 q 726 33 664 49 l 726 0 q 686 -10 715 -6 q 631 -14 657 -14 z "},"ќ":{"ha":728,"x_min":-1,"x_max":726,"o":"m 631 -14 q 519 12 569 -14 q 424 97 468 38 l 290 272 l 290 0 l 110 0 l 110 472 q 90 577 110 543 q 13 611 71 611 l -1 611 l -1 653 l 165 653 q 242 636 215 653 q 279 581 268 619 q 290 472 290 543 l 290 340 l 458 546 q 547 628 506 603 q 658 653 589 653 l 686 653 l 686 617 q 611 600 644 617 q 547 547 578 583 l 413 383 l 597 139 q 726 33 664 49 l 726 0 q 686 -10 715 -6 q 631 -14 657 -14 m 321 715 l 379 910 l 544 910 l 397 715 l 321 715 z "},"л":{"ha":788,"x_min":8,"x_max":704,"o":"m 92 -21 q 46 -17 71 -21 q 8 -8 21 -12 l 8 32 q 100 80 63 40 q 160 217 138 119 q 183 486 183 315 q 162 579 183 547 q 79 611 140 611 l 79 653 l 704 653 l 704 0 l 524 0 l 524 590 l 328 590 l 328 486 q 92 -21 328 -21 z "},"м":{"ha":925,"x_min":83,"x_max":922,"o":"m 922 -35 q 707 31 774 -35 q 640 236 640 97 l 640 478 l 440 0 l 394 0 l 153 492 l 153 1 l 83 1 l 83 653 l 253 653 l 458 235 l 639 667 l 821 667 l 821 236 q 843 64 821 118 q 922 0 865 10 l 922 -35 z "},"н":{"ha":803,"x_min":-1,"x_max":804,"o":"m 110 472 q 90 577 110 543 q 13 611 71 611 l -1 611 l -1 653 l 165 653 q 242 636 215 653 q 279 581 268 619 q 290 472 290 543 l 290 361 l 513 361 l 513 653 l 693 653 l 693 181 q 713 76 693 110 q 790 42 732 42 l 804 42 l 804 0 l 638 0 q 561 16 588 0 q 524 70 535 32 q 513 181 513 108 l 513 299 l 290 299 l 290 0 l 110 0 l 110 472 z "},"о":{"ha":767,"x_min":50,"x_max":717,"o":"m 383 -14 q 206 31 282 -14 q 90 153 131 76 q 50 326 50 231 q 90 499 50 422 q 206 622 131 576 q 383 667 282 667 q 560 622 485 667 q 676 499 636 576 q 717 326 717 422 q 676 153 717 231 q 560 31 636 76 q 383 -14 485 -14 m 383 49 q 492 125 454 49 q 529 326 529 201 q 492 528 529 451 q 383 604 454 604 q 275 528 313 604 q 238 326 238 451 q 275 125 238 201 q 383 49 313 49 z "},"п":{"ha":769,"x_min":-1,"x_max":686,"o":"m 103 472 q 83 577 103 543 q 6 611 64 611 l -1 611 l -1 653 l 686 653 l 686 0 l 506 0 l 506 590 l 283 590 l 283 0 l 103 0 l 103 472 z "},"р":{"ha":788,"x_min":1,"x_max":736,"o":"m 111 472 q 92 577 111 543 q 15 611 74 611 l 1 611 l 1 653 l 139 653 q 214 640 188 653 q 256 594 240 626 q 444 667 338 667 q 660 572 585 667 q 736 326 736 476 q 659 81 736 176 q 438 -14 582 -14 q 331 7 381 -14 q 292 28 308 15 l 292 -264 l 111 -264 l 111 472 m 410 49 q 549 326 549 49 q 517 529 549 454 q 417 604 485 604 q 282 547 339 604 l 286 528 q 292 481 292 511 l 292 90 q 325 69 307 78 q 410 49 364 49 z "},"с":{"ha":689,"x_min":50,"x_max":653,"o":"m 383 -14 q 201 32 276 -14 q 88 155 126 78 q 50 326 50 232 q 88 498 50 421 q 201 621 126 575 q 383 667 276 667 q 599 618 550 667 q 628 556 622 594 q 633 424 633 517 l 592 424 q 538 558 586 511 q 404 604 489 604 q 283 534 328 604 q 238 326 238 464 q 411 49 238 49 q 523 78 478 49 q 610 164 568 108 l 653 132 q 551 28 613 69 q 383 -14 490 -14 z "},"т":{"ha":649,"x_min":31,"x_max":636,"o":"m 246 590 l 204 590 q 106 556 139 590 q 72 444 72 521 l 31 444 l 31 542 q 135 653 31 653 l 636 653 l 636 590 l 426 590 l 426 0 l 246 0 l 246 590 z "},"у":{"ha":707,"x_min":-22,"x_max":683,"o":"m 128 -229 q 251 -200 204 -229 q 328 -94 299 -171 l 357 -19 l 107 528 q -22 639 61 628 l -22 667 l 100 667 q 208 637 161 667 q 281 556 256 607 l 440 206 l 610 653 l 683 653 l 403 -90 q 313 -238 364 -199 q 183 -278 261 -278 l 128 -278 l 128 -229 z "},"ў":{"ha":688,"x_min":-22,"x_max":683,"o":"m 128 -229 q 251 -200 204 -229 q 328 -94 299 -171 l 357 -19 l 107 528 q -22 639 61 628 l -22 667 l 100 667 q 208 637 161 667 q 281 556 256 607 l 440 206 l 610 653 l 683 653 l 403 -90 q 313 -238 364 -199 q 183 -278 261 -278 l 128 -278 l 128 -229 m 408 689 q 290 724 342 689 q 213 819 239 760 l 251 849 q 315 799 275 819 q 408 779 354 779 q 502 799 463 779 q 565 849 542 819 l 604 819 q 526 724 578 760 q 408 689 475 689 z "},"ф":{"ha":978,"x_min":51,"x_max":926,"o":"m 399 -14 q 143 90 235 -3 q 51 326 51 182 q 143 563 51 471 q 399 667 235 656 l 399 736 q 379 841 399 807 q 301 875 360 875 l 288 875 l 288 917 l 454 917 q 531 900 504 917 q 568 845 557 883 q 579 736 579 807 l 579 667 q 835 563 743 656 q 926 326 926 471 q 835 90 926 182 q 579 -14 743 -3 l 579 -264 l 399 -264 l 399 -14 m 406 618 q 288 530 336 606 q 239 326 239 454 q 288 123 239 199 q 406 35 336 47 l 406 618 m 572 35 q 690 123 642 47 q 739 326 739 199 q 690 530 739 454 q 572 618 642 606 l 572 35 z "},"х":{"ha":689,"x_min":4,"x_max":685,"o":"m 267 290 l 133 514 q 71 591 104 563 q 4 625 38 619 l 4 653 l 136 653 q 240 625 200 653 q 314 542 281 597 l 381 429 l 563 653 l 656 653 l 421 364 l 556 139 q 618 62 585 90 q 685 28 651 33 l 685 0 l 553 0 q 449 28 489 0 q 375 111 408 56 l 307 224 l 125 0 l 32 0 l 267 290 z "},"ч":{"ha":769,"x_min":6,"x_max":686,"o":"m 506 247 q 449 230 482 238 q 381 222 415 222 q 190 273 263 222 q 117 431 117 324 l 117 472 q 97 577 117 543 q 19 611 78 611 l 6 611 l 6 653 l 172 653 q 249 636 222 653 q 286 581 275 619 q 297 472 297 543 l 297 431 q 413 285 297 285 q 463 290 443 285 q 506 307 483 294 l 506 653 l 686 653 l 686 0 l 506 0 l 506 247 z "},"ц":{"ha":794,"x_min":-1,"x_max":783,"o":"m 721 -222 q 694 -85 714 -133 q 644 -19 675 -37 q 565 0 613 0 l 110 0 l 110 472 q 90 577 110 543 q 13 611 71 611 l -1 611 l -1 653 l 165 653 q 242 636 215 653 q 279 581 268 619 q 290 472 290 543 l 290 63 l 513 63 l 513 653 l 693 653 l 693 63 l 735 63 q 769 49 756 63 q 783 14 783 35 l 783 -222 l 721 -222 z "},"ш":{"ha":1054,"x_min":-1,"x_max":971,"o":"m 110 472 q 90 577 110 543 q 13 611 71 611 l -1 611 l -1 653 l 165 653 q 242 636 215 653 q 279 581 268 619 q 290 472 290 543 l 290 63 l 450 63 l 450 653 l 631 653 l 631 63 l 790 63 l 790 653 l 971 653 l 971 0 l 110 0 l 110 472 z "},"щ":{"ha":1072,"x_min":-1,"x_max":1061,"o":"m 999 -222 q 972 -85 992 -133 q 922 -19 953 -37 q 843 0 890 0 l 110 0 l 110 472 q 90 577 110 543 q 13 611 71 611 l -1 611 l -1 653 l 165 653 q 242 636 215 653 q 279 581 268 619 q 290 472 290 543 l 290 63 l 450 63 l 450 653 l 631 653 l 631 63 l 790 63 l 790 653 l 971 653 l 971 63 l 1013 63 q 1047 49 1033 63 q 1061 14 1061 35 l 1061 -222 l 999 -222 z "},"џ":{"ha":776,"x_min":-1,"x_max":693,"o":"m 339 0 l 110 0 l 110 472 q 90 577 110 543 q 13 611 71 611 l -1 611 l -1 653 l 165 653 q 242 636 215 653 q 279 581 268 619 q 290 472 290 543 l 290 63 l 513 63 l 513 653 l 693 653 l 693 0 l 464 0 l 443 -208 l 360 -208 l 339 0 z "},"ь":{"ha":707,"x_min":-1,"x_max":679,"o":"m 110 472 q 90 577 110 543 q 13 611 71 611 l -1 611 l -1 653 l 165 653 q 242 636 215 653 q 279 581 268 619 q 290 472 290 543 l 290 389 l 394 389 q 603 338 526 389 q 679 194 679 288 q 603 51 679 101 q 394 0 526 0 l 110 0 l 110 472 m 353 56 q 453 88 415 56 q 492 194 492 121 q 453 301 492 268 q 353 333 415 333 q 290 324 319 333 l 290 65 q 353 56 319 56 z "},"ъ":{"ha":831,"x_min":39,"x_max":803,"o":"m 233 590 q 131 541 161 585 q 94 403 100 497 l 39 403 l 39 604 q 53 639 39 625 q 88 653 67 653 l 414 653 l 414 389 l 518 389 q 726 338 650 389 q 803 194 803 288 q 726 51 803 101 q 518 0 650 0 l 233 0 l 233 590 m 476 56 q 577 88 539 56 q 615 194 615 121 q 577 301 615 268 q 476 333 539 333 q 414 324 443 333 l 414 65 q 476 56 443 56 z "},"ы":{"ha":1025,"x_min":-1,"x_max":1026,"o":"m 110 472 q 90 577 110 543 q 13 611 71 611 l -1 611 l -1 653 l 165 653 q 242 636 215 653 q 279 581 268 619 q 290 472 290 543 l 290 389 l 381 389 q 589 338 513 389 q 665 194 665 288 q 589 51 665 101 q 381 0 513 0 l 110 0 l 110 472 m 860 0 q 783 16 810 0 q 746 70 757 32 q 735 181 735 108 l 735 653 l 915 653 l 915 181 q 935 76 915 110 q 1013 42 954 42 l 1026 42 l 1026 0 l 860 0 m 353 56 q 442 88 406 56 q 478 194 478 121 q 442 301 478 268 q 353 333 406 333 q 290 324 319 333 l 290 65 q 353 56 319 56 z "},"љ":{"ha":1104,"x_min":8,"x_max":1076,"o":"m 92 -21 q 46 -17 71 -21 q 8 -8 21 -12 l 8 32 q 100 80 63 40 q 160 217 138 119 q 183 486 183 315 q 162 579 183 547 q 79 611 140 611 l 79 653 l 688 653 l 688 389 l 792 389 q 1000 338 924 389 q 1076 194 1076 288 q 1000 51 1076 101 q 792 0 924 0 l 507 0 l 507 590 l 328 590 l 328 486 q 92 -21 328 -21 m 750 56 q 851 88 813 56 q 889 194 889 121 q 851 301 889 268 q 750 333 813 333 q 688 324 717 333 l 688 65 q 750 56 717 56 z "},"њ":{"ha":1094,"x_min":-1,"x_max":1068,"o":"m 110 472 q 90 577 110 543 q 13 611 71 611 l -1 611 l -1 653 l 165 653 q 242 636 215 653 q 279 581 268 619 q 290 472 290 543 l 290 375 l 499 375 l 499 653 l 679 653 l 679 375 l 783 375 q 991 325 914 375 q 1068 188 1068 275 q 991 50 1068 100 q 783 0 914 0 l 499 0 l 499 313 l 290 313 l 290 0 l 110 0 l 110 472 m 742 56 q 842 87 804 56 q 881 188 881 118 q 842 288 881 257 q 742 319 804 319 q 679 310 708 319 l 679 65 q 742 56 708 56 z "},"ѕ":{"ha":650,"x_min":54,"x_max":603,"o":"m 318 -14 q 94 43 156 -14 q 67 102 72 64 q 61 208 61 140 l 110 208 q 167 92 122 136 q 290 49 211 49 q 429 143 429 49 q 399 203 429 179 q 304 256 369 226 l 232 286 q 99 371 143 325 q 54 482 54 417 q 127 618 54 569 q 318 667 200 667 q 542 610 481 667 q 569 551 564 589 q 575 444 575 514 l 526 444 q 469 560 514 517 q 346 604 425 604 q 257 578 286 604 q 228 510 228 553 q 252 452 228 475 q 326 407 276 429 l 410 372 q 558 285 513 329 q 603 171 603 242 q 524 34 603 82 q 318 -14 446 -14 z "},"є":{"ha":696,"x_min":50,"x_max":653,"o":"m 383 -14 q 201 32 276 -14 q 88 155 126 78 q 50 326 50 232 q 88 498 50 421 q 201 621 126 575 q 383 667 276 667 q 599 618 550 667 q 628 556 622 594 q 633 424 633 517 l 592 424 q 538 558 586 511 q 404 604 489 604 q 288 540 332 604 q 239 354 244 476 l 501 354 l 501 292 l 239 292 q 411 49 249 49 q 523 78 478 49 q 610 164 568 108 l 653 132 q 551 28 613 69 q 383 -14 490 -14 z "},"э":{"ha":696,"x_min":43,"x_max":646,"o":"m 313 -14 q 144 28 206 -14 q 43 132 83 69 l 86 164 q 173 78 129 107 q 285 49 217 49 q 457 292 447 49 l 194 292 l 194 354 l 457 354 q 408 540 451 476 q 292 604 364 604 q 158 558 207 604 q 104 424 110 511 l 63 424 q 68 556 63 517 q 97 618 74 594 q 313 667 146 667 q 494 621 419 667 q 608 498 569 575 q 646 326 646 421 q 608 155 646 232 q 494 32 569 78 q 313 -14 419 -14 z "},"і":{"ha":371,"x_min":-1,"x_max":290,"o":"m 200 728 q 123 758 150 728 q 96 833 96 789 q 117 890 96 869 q 172 911 139 911 q 249 881 222 911 q 276 806 276 850 q 255 749 276 769 q 200 728 233 728 m 110 472 q 90 577 110 543 q 13 611 71 611 l -1 611 l -1 653 l 165 653 q 242 636 215 653 q 279 581 268 619 q 290 472 290 543 l 290 0 l 110 0 l 110 472 z "},"ї":{"ha":371,"x_min":-29,"x_max":408,"o":"m 75 742 q -2 772 25 742 q -29 847 -29 803 q -8 904 -29 883 q 47 925 14 925 q 124 894 97 925 q 151 819 151 864 q 130 763 151 783 q 75 742 108 742 m 332 742 q 255 772 282 742 q 228 847 228 803 q 249 904 228 883 q 304 925 271 925 q 381 894 354 925 q 408 819 408 864 q 387 763 408 783 q 332 742 365 742 m 110 472 q 90 577 110 543 q 13 611 71 611 l -1 611 l -1 653 l 165 653 q 242 636 215 653 q 279 581 268 619 q 290 472 290 543 l 290 0 l 110 0 l 110 472 z "},"ј":{"ha":371,"x_min":-12,"x_max":290,"o":"m 200 728 q 123 758 150 728 q 96 833 96 789 q 117 890 96 869 q 172 911 139 911 q 249 881 222 911 q 276 806 276 850 q 255 749 276 769 q 200 728 233 728 m -12 -229 q 81 -160 53 -217 q 110 35 110 -103 l 110 472 q 90 577 110 543 q 13 611 71 611 l -1 611 l -1 653 l 165 653 q 242 636 215 653 q 279 581 268 619 q 290 472 290 543 l 290 35 q 262 -146 290 -82 q 169 -237 233 -210 q -12 -264 104 -264 l -12 -229 z "},"ћ":{"ha":758,"x_min":-14,"x_max":681,"o":"m 83 688 l -14 688 l -14 750 l 83 750 l 83 833 l 153 917 l 264 917 l 264 750 l 403 750 l 403 688 l 264 688 l 264 528 q 340 578 296 560 q 431 597 385 597 q 613 542 544 597 q 681 347 681 486 l 681 0 l 500 0 l 500 347 q 389 528 500 528 q 324 510 357 528 q 264 461 290 492 l 264 0 l 83 0 l 83 688 z "},"ю":{"ha":1021,"x_min":-1,"x_max":971,"o":"m 658 -14 q 502 27 571 -14 q 392 139 433 68 q 346 299 351 210 l 290 299 l 290 0 l 110 0 l 110 472 q 90 577 110 543 q 13 611 71 611 l -1 611 l -1 653 l 165 653 q 242 636 215 653 q 279 581 268 619 q 290 472 290 543 l 290 361 l 347 361 q 396 517 356 447 q 504 626 436 586 q 658 667 572 667 q 822 622 750 667 q 932 499 893 576 q 971 326 971 421 q 932 154 971 232 q 822 31 893 76 q 658 -14 750 -14 m 658 49 q 751 125 719 49 q 783 326 783 201 q 751 528 783 451 q 658 604 719 604 q 565 528 597 604 q 533 326 533 451 q 565 125 533 201 q 658 49 597 49 z "},"я":{"ha":733,"x_min":21,"x_max":729,"o":"m 111 -21 q 21 -7 63 -21 l 21 29 q 139 132 85 38 l 222 276 q 106 335 149 288 q 63 451 63 383 q 144 604 63 556 q 368 653 225 653 l 729 653 l 729 611 l 722 611 q 644 577 664 611 q 625 472 625 543 l 625 0 l 444 0 l 444 269 l 383 269 l 300 104 q 226 9 268 39 q 111 -21 183 -21 m 382 326 q 425 331 407 326 q 444 336 443 336 l 444 588 q 425 592 443 588 q 382 597 407 597 q 287 566 324 597 q 250 465 250 535 q 288 361 250 396 q 382 326 325 326 z "},"ђ":{"ha":758,"x_min":-14,"x_max":681,"o":"m 385 -160 q 472 -93 444 -149 q 500 76 500 -37 l 500 347 q 389 528 500 528 q 324 510 357 528 q 264 461 290 492 l 264 0 l 83 0 l 83 688 l -14 688 l -14 750 l 83 750 l 83 833 l 153 917 l 264 917 l 264 750 l 472 750 l 472 688 l 264 688 l 264 528 q 340 578 296 560 q 431 597 385 597 q 613 542 544 597 q 681 347 681 486 l 681 76 q 608 -128 681 -61 q 385 -194 535 -194 l 385 -160 z "},"ѣ":{"ha":814,"x_min":31,"x_max":786,"o":"m 501 389 q 710 338 633 389 q 786 194 786 288 q 710 51 786 101 q 501 0 633 0 l 217 0 l 217 590 l 204 590 q 106 556 139 590 q 72 444 72 521 l 31 444 l 31 542 q 135 653 31 653 l 217 653 l 217 736 q 197 841 217 807 q 119 875 178 875 l 106 875 l 106 917 l 272 917 q 349 900 322 917 q 386 845 375 883 q 397 736 397 807 l 397 653 l 608 653 l 608 590 l 397 590 l 397 389 l 501 389 m 460 56 q 560 88 522 56 q 599 194 599 121 q 560 301 599 268 q 460 333 522 333 q 397 324 426 333 l 397 65 q 460 56 426 56 z "},"ѫ":{"ha":1029,"x_min":1,"x_max":1028,"o":"m 97 -14 q 42 -10 71 -14 q 3 0 14 -6 l 1 33 q 132 139 68 50 l 218 260 q 382 361 285 360 l 208 547 q 140 599 171 582 q 69 617 108 617 l 71 653 l 946 653 l 944 617 q 879 601 907 617 q 806 547 851 585 l 625 361 l 643 361 q 728 336 682 361 q 808 268 774 311 l 899 139 q 1026 33 961 50 l 1028 0 q 985 -10 1015 -6 q 931 -14 956 -14 q 820 15 869 -14 q 724 111 771 43 l 606 282 l 606 0 l 425 0 l 425 282 l 304 111 q 208 15 257 43 q 97 -14 158 -14 m 503 328 l 753 590 l 265 590 l 503 328 z "},"ѳ":{"ha":767,"x_min":50,"x_max":717,"o":"m 383 667 q 560 622 485 667 q 676 499 636 576 q 717 326 717 422 q 676 153 717 231 q 560 31 636 76 q 383 -14 485 -14 q 206 31 282 -14 q 90 153 131 76 q 50 326 50 231 q 90 499 50 422 q 206 622 131 576 q 383 667 282 667 m 383 604 q 281 538 318 604 q 239 361 243 471 l 528 361 q 486 538 524 471 q 383 604 449 604 m 383 49 q 488 117 450 49 q 529 299 525 185 l 238 299 q 279 117 242 185 q 383 49 317 49 z "},"ѵ":{"ha":768,"x_min":-17,"x_max":726,"o":"m 726 625 q 649 588 678 619 q 589 475 621 556 l 392 -12 l 342 -14 l 107 493 q 43 602 69 571 q -17 636 17 633 l -17 664 l 35 667 q 191 631 128 667 q 301 493 254 594 l 419 238 l 514 471 q 593 612 556 574 q 679 653 631 650 q 707 653 696 654 q 725 653 718 653 l 726 625 z "},"ғ":{"ha":611,"x_min":-1,"x_max":582,"o":"m 478 653 q 582 542 582 653 l 582 444 l 540 444 q 507 556 540 521 q 408 590 474 590 l 283 590 l 283 357 l 439 357 l 439 294 l 283 294 l 283 0 l 103 0 l 103 294 l 24 294 l 24 357 l 103 357 l 103 472 q 83 577 103 543 q 6 611 64 611 l -1 611 l -1 653 l 478 653 z "},"ҕ":{"ha":708,"x_min":-1,"x_max":674,"o":"m 378 376 q 597 301 521 376 q 674 94 674 225 q 588 -124 674 -54 q 321 -194 503 -194 l 321 -160 q 451 -91 410 -149 q 493 90 493 -33 q 453 251 493 196 q 336 306 414 306 q 283 304 303 306 l 283 0 l 103 0 l 103 472 q 83 577 103 543 q 6 611 64 611 l -1 611 l -1 653 l 478 653 q 582 542 582 653 l 582 444 l 540 444 q 507 556 540 521 q 408 590 474 590 l 283 590 l 283 371 q 378 376 328 376 z "},"җ":{"ha":1046,"x_min":1,"x_max":1046,"o":"m 997 63 q 1032 49 1018 63 q 1046 14 1046 35 l 1046 -222 l 983 -222 q 947 -71 974 -118 q 867 -6 919 -24 q 724 111 790 15 l 604 282 l 604 0 l 424 0 l 424 282 l 304 111 q 208 15 257 43 q 97 -14 158 -14 q 42 -10 72 -14 q 1 0 13 -6 l 1 33 q 131 139 68 50 l 303 383 l 181 547 q 42 617 128 617 l 42 653 l 69 653 q 183 628 140 653 q 269 546 226 603 l 424 340 l 424 653 l 604 653 l 604 340 l 758 546 q 844 628 801 603 q 958 653 888 653 l 986 653 l 986 617 q 847 547 900 617 l 725 383 l 897 139 q 933 94 922 106 q 997 63 964 63 z "},"ҙ":{"ha":639,"x_min":42,"x_max":590,"o":"m 590 174 q 533 45 590 90 q 369 -11 475 0 l 369 -222 l 307 -222 q 291 -79 303 -128 q 258 -12 279 -31 q 42 97 117 0 l 83 132 q 257 49 150 49 q 363 79 324 49 q 403 174 403 110 q 366 274 403 242 q 236 306 329 306 l 167 306 l 167 368 l 236 368 q 350 395 318 368 q 382 486 382 422 q 346 574 382 544 q 257 604 310 604 q 151 562 194 604 q 104 451 108 519 l 63 451 q 68 559 63 524 q 97 618 74 594 q 174 655 122 643 q 292 667 225 667 q 495 622 421 667 q 569 486 569 576 q 524 385 569 425 q 403 333 479 344 q 540 279 489 322 q 590 174 590 236 z "},"қ":{"ha":747,"x_min":-1,"x_max":747,"o":"m 699 63 q 733 49 719 63 q 747 14 747 35 l 747 -222 l 685 -222 q 645 -66 675 -115 q 561 -6 615 -17 q 424 97 483 17 l 290 272 l 290 0 l 110 0 l 110 472 q 90 577 110 543 q 13 611 71 611 l -1 611 l -1 653 l 165 653 q 242 636 215 653 q 279 581 268 619 q 290 472 290 543 l 290 340 l 458 546 q 547 628 506 603 q 658 653 589 653 l 686 653 l 686 617 q 611 600 644 617 q 547 547 578 583 l 413 383 l 597 139 q 626 103 614 115 q 664 71 647 79 q 699 63 681 63 z "},"ҝ":{"ha":839,"x_min":-1,"x_max":838,"o":"m 708 139 q 838 33 775 49 l 838 0 q 797 -10 826 -6 q 742 -14 768 -14 q 630 12 681 -14 q 535 97 579 38 l 406 267 l 406 133 l 329 133 l 329 278 l 290 278 l 290 0 l 110 0 l 110 472 q 90 577 110 543 q 13 611 71 611 l -1 611 l -1 653 l 165 653 q 242 636 215 653 q 279 581 268 619 q 290 472 290 543 l 290 340 l 329 340 l 329 493 l 406 493 l 406 344 l 569 546 q 658 628 615 603 q 769 653 700 653 l 797 653 l 797 617 q 722 600 756 617 q 658 547 689 583 l 524 383 l 708 139 z "},"ҡ":{"ha":853,"x_min":31,"x_max":851,"o":"m 756 -14 q 644 12 694 -14 q 549 97 593 38 l 415 272 l 415 0 l 235 0 l 235 590 l 204 590 q 106 556 139 590 q 72 444 72 521 l 31 444 l 31 542 q 135 653 31 653 l 415 653 l 415 340 l 583 546 q 672 628 631 603 q 783 653 714 653 l 811 653 l 811 617 q 736 600 769 617 q 672 547 703 583 l 538 383 l 722 139 q 851 33 789 49 l 851 0 q 811 -10 840 -6 q 756 -14 782 -14 z "},"ң":{"ha":794,"x_min":-1,"x_max":783,"o":"m 721 -222 q 694 -85 714 -133 q 644 -19 675 -37 q 565 0 613 0 l 513 0 l 513 299 l 290 299 l 290 0 l 110 0 l 110 472 q 90 577 110 543 q 13 611 71 611 l -1 611 l -1 653 l 165 653 q 242 636 215 653 q 279 581 268 619 q 290 472 290 543 l 290 361 l 513 361 l 513 653 l 693 653 l 693 63 l 735 63 q 769 49 756 63 q 783 14 783 35 l 783 -222 l 721 -222 z "},"ԥ":{"ha":788,"x_min":-1,"x_max":776,"o":"m 728 63 q 763 49 749 63 q 776 14 776 35 l 776 -222 l 714 -222 q 688 -85 707 -133 q 637 -19 668 -37 q 558 0 606 0 l 506 0 l 506 590 l 283 590 l 283 0 l 103 0 l 103 472 q 83 577 103 543 q 6 611 64 611 l -1 611 l -1 653 l 686 653 l 686 63 l 728 63 z "},"ҫ":{"ha":689,"x_min":50,"x_max":653,"o":"m 653 132 q 567 39 617 78 q 435 -11 518 0 l 435 -222 l 372 -222 q 355 -74 368 -124 q 319 -10 342 -25 q 120 103 190 10 q 50 326 50 197 q 88 498 50 421 q 201 621 126 575 q 383 667 276 667 q 599 618 550 667 q 628 556 622 594 q 633 424 633 517 l 592 424 q 538 558 586 511 q 404 604 489 604 q 283 534 328 604 q 238 326 238 464 q 411 49 238 49 q 523 78 478 49 q 610 164 568 108 l 653 132 z "},"ү":{"ha":694,"x_min":-17,"x_max":688,"o":"m 458 -1 l 458 -264 l 278 -264 l 278 1 l 107 493 q 44 602 71 571 q -17 636 18 633 l -17 664 l 35 667 q 191 631 128 667 q 301 493 254 594 l 428 101 l 613 653 l 688 653 l 458 -1 z "},"ұ":{"ha":694,"x_min":-17,"x_max":688,"o":"m 469 31 l 579 31 l 579 -32 l 458 -32 l 458 -264 l 278 -264 l 278 -32 l 164 -32 l 164 31 l 268 31 l 107 493 q 44 602 71 571 q -17 636 18 633 l -17 664 l 35 667 q 191 631 128 667 q 301 493 254 594 l 428 101 l 613 653 l 688 653 l 469 31 z "},"ҷ":{"ha":788,"x_min":6,"x_max":776,"o":"m 728 63 q 763 49 749 63 q 776 14 776 35 l 776 -222 l 714 -222 q 688 -85 707 -133 q 637 -19 668 -37 q 558 0 606 0 l 506 0 l 506 247 q 449 230 482 238 q 381 222 415 222 q 190 273 263 222 q 117 431 117 324 l 117 472 q 97 577 117 543 q 19 611 78 611 l 6 611 l 6 653 l 172 653 q 249 636 222 653 q 286 581 275 619 q 297 472 297 543 l 297 431 q 413 285 297 285 q 463 290 443 285 q 506 307 483 294 l 506 653 l 686 653 l 686 63 l 728 63 z "},"ҹ":{"ha":769,"x_min":6,"x_max":686,"o":"m 686 653 l 686 0 l 506 0 l 506 247 q 436 228 472 233 l 436 63 l 360 63 l 360 222 q 183 277 250 226 q 117 431 117 328 l 117 472 q 97 577 117 543 q 19 611 78 611 l 6 611 l 6 653 l 172 653 q 249 636 222 653 q 286 581 275 619 q 297 472 297 543 l 297 431 q 360 294 297 324 l 360 450 l 436 450 l 436 286 q 506 307 471 288 l 506 653 l 686 653 z "},"һ":{"ha":756,"x_min":-28,"x_max":681,"o":"m 83 736 q 64 841 83 807 q -14 875 44 875 l -28 875 l -28 917 l 139 917 q 215 900 189 917 q 253 845 242 883 q 264 736 264 807 l 264 614 q 307 640 276 624 q 417 667 363 667 q 605 609 529 667 q 681 413 681 551 l 681 0 l 500 0 l 500 406 q 465 551 500 506 q 375 597 429 597 q 296 572 338 597 q 264 549 279 563 l 264 0 l 83 0 l 83 736 z "},"ӏ":{"ha":358,"x_min":-22,"x_max":269,"o":"m 89 736 q 69 841 89 807 q -8 875 50 875 l -22 875 l -22 917 l 144 917 q 221 900 194 917 q 258 845 247 883 q 269 736 269 807 l 269 0 l 89 0 l 89 736 z "},"ӂ":{"ha":1028,"x_min":1,"x_max":1026,"o":"m 97 -14 q 42 -10 72 -14 q 1 0 13 -6 l 1 33 q 131 139 68 50 l 303 383 l 181 547 q 42 617 128 617 l 42 653 l 69 653 q 183 628 140 653 q 269 546 226 603 l 424 340 l 424 653 l 604 653 l 604 340 l 758 546 q 844 628 801 603 q 958 653 888 653 l 986 653 l 986 617 q 847 547 900 617 l 725 383 l 897 139 q 1026 33 960 50 l 1026 0 q 986 -10 1015 -6 q 931 -14 957 -14 q 820 15 869 -14 q 724 111 771 43 l 604 282 l 604 0 l 424 0 l 424 282 l 304 111 q 208 15 257 43 q 97 -14 158 -14 m 514 694 q 396 730 447 694 q 318 825 344 765 l 357 854 q 420 805 381 825 q 514 785 460 785 q 608 805 568 785 q 671 854 647 825 l 710 825 q 632 730 683 765 q 514 694 581 694 z "},"ӌ":{"ha":769,"x_min":6,"x_max":686,"o":"m 686 653 l 686 0 l 633 0 q 555 -19 586 0 q 504 -85 524 -37 q 478 -222 485 -133 l 415 -222 l 415 14 q 429 49 415 35 q 464 63 443 63 l 506 63 l 506 247 q 449 230 482 238 q 381 222 415 222 q 190 273 263 222 q 117 431 117 324 l 117 472 q 97 577 117 543 q 19 611 78 611 l 6 611 l 6 653 l 172 653 q 249 636 222 653 q 286 581 275 619 q 297 472 297 543 l 297 431 q 413 285 297 285 q 463 290 443 285 q 506 307 483 294 l 506 653 l 686 653 z "},"ӑ":{"ha":689,"x_min":40,"x_max":617,"o":"m 276 -14 q 102 37 164 -14 q 40 174 40 88 q 73 289 40 243 q 188 358 106 335 q 415 382 269 382 l 436 382 q 403 553 436 503 q 304 604 369 604 q 215 578 250 604 q 165 479 181 551 l 89 479 q 95 560 89 526 q 124 618 101 593 q 332 667 167 667 q 544 594 471 667 q 617 375 617 521 l 617 0 l 499 0 l 450 63 l 443 63 q 404 24 431 43 q 276 -14 357 -14 m 318 56 q 368 67 347 56 q 408 100 389 79 q 436 146 426 119 l 436 319 l 415 319 q 272 284 317 319 q 228 174 228 249 q 251 86 228 117 q 318 56 275 56 m 344 694 q 226 730 278 694 q 149 825 175 765 l 188 854 q 251 805 211 825 q 344 785 290 785 q 438 805 399 785 q 501 854 478 825 l 540 825 q 463 730 514 765 q 344 694 411 694 z "},"ӓ":{"ha":689,"x_min":40,"x_max":617,"o":"m 276 -14 q 102 37 164 -14 q 40 174 40 88 q 73 289 40 243 q 188 358 106 335 q 415 382 269 382 l 436 382 q 403 553 436 503 q 304 604 369 604 q 215 578 250 604 q 165 479 181 551 l 89 479 q 95 560 89 526 q 124 618 101 593 q 332 667 167 667 q 544 594 471 667 q 617 375 617 521 l 617 0 l 499 0 l 450 63 l 443 63 q 404 24 431 43 q 276 -14 357 -14 m 318 56 q 368 67 347 56 q 408 100 389 79 q 436 146 426 119 l 436 319 l 415 319 q 272 284 317 319 q 228 174 228 249 q 251 86 228 117 q 318 56 275 56 m 219 729 q 163 751 183 729 q 142 807 142 774 q 163 863 142 840 q 219 885 183 885 q 276 863 256 885 q 297 807 297 840 q 276 751 297 774 q 219 729 256 729 m 469 729 q 413 751 433 729 q 392 807 392 774 q 413 863 392 840 q 469 885 433 885 q 526 863 506 885 q 547 807 547 840 q 526 751 547 774 q 469 729 506 729 z "},"ӗ":{"ha":707,"x_min":51,"x_max":663,"o":"m 371 -14 q 203 31 275 -14 q 91 152 131 75 q 51 326 51 229 q 91 511 51 435 q 200 627 131 588 q 357 667 269 667 q 513 632 443 667 q 622 534 582 597 q 663 389 663 471 q 660 329 663 363 l 657 301 l 239 301 q 279 109 239 169 q 392 49 319 49 q 503 78 458 49 q 590 164 549 108 l 633 132 q 533 28 593 69 q 371 -14 472 -14 m 475 364 q 444 549 475 494 q 357 604 414 604 q 272 548 304 604 q 239 364 239 492 l 475 364 m 354 694 q 236 730 288 694 q 158 825 185 765 l 197 854 q 260 805 221 825 q 354 785 300 785 q 448 805 408 785 q 511 854 488 825 l 550 825 q 472 730 524 765 q 354 694 421 694 z "},"ә":{"ha":707,"x_min":44,"x_max":656,"o":"m 336 667 q 504 622 432 667 q 616 501 576 578 q 656 326 656 424 q 616 142 656 218 q 507 26 576 65 q 350 -14 438 -14 q 194 21 264 -14 q 85 119 125 56 q 44 264 44 182 q 47 324 44 290 l 50 351 l 468 351 q 428 544 468 483 q 315 604 388 604 q 203 574 249 604 q 117 489 158 544 l 74 521 q 174 625 114 583 q 336 667 235 667 m 232 289 q 263 103 232 158 q 350 49 293 49 q 435 105 403 49 q 468 289 468 161 l 232 289 z "}}}
